<svg xmlns="http://www.w3.org/2000/svg" fill="none" viewBox="0 0 200 200" id="Being-Creative--Streamline-Bruxelles">
  <desc>
    Being Creative Streamline Illustration: https://streamlinehq.com
  </desc>
  <path fill="#ffffff" d="M54.62 26.48h0.51c0.0558 0.0044 0.1089 0.0259 0.1519 0.0618 0.043 0.0358 0.0738 0.0841 0.0881 0.1382 0.3 1.2 1.91 7.63 2.53 9.27 0.05 0.12 0 0.19 -0.09 0.18 -0.3429 -0.0194 -0.6806 -0.0936 -1 -0.22 -0.41 -0.49 -0.66 -2.25 -2.06 -7.66 -0.48 -1.81 -0.63 -1.78 -0.13 -1.77Z" stroke-width="1"></path>
  <path fill="#ffffff" d="M76.19 83c0 0.07 -0.07 1.06 0.39 1.47 0.46 0.41 -1.13 0.76 -0.43 1.61 0.29 0.33 1 -0.06 1.29 -0.21 0.29 -0.15 -0.44 1.31 0 1.55s1.23 -0.29 1.86 -1.16c0.267 -0.3295 0.4663 -0.7085 0.5864 -1.1152 0.1201 -0.4067 0.1587 -0.8331 0.1136 -1.2548 -0.07 -0.7 -0.82 -4 -2.49 -3.3 -0.4754 0.1726 -0.8717 0.5124 -1.1146 0.956 -0.243 0.4436 -0.316 0.9605 -0.2054 1.454Z" stroke-width="1"></path>
  <path fill="#c1e1fd" d="M77.57 80c-0.5 -1 -1.09 -0.73 -2 -1.56 -1.32 -1.41 -1 -3.73 -1 -5.29 -0.15 -1.84 -0.75 -3 -2.11 -5.83 -0.4189 -0.935 -0.9069 -1.8375 -1.46 -2.7 -1 -1.44 -1.81 -1.53 -2.27 -2.3 -0.0881 -0.2011 -0.1616 -0.4083 -0.22 -0.62 -0.0655 -0.1684 -0.1754 -0.3159 -0.318 -0.4268s-0.3127 -0.1812 -0.492 -0.2032c-0.3922 -0.0406 -0.7886 -0.0101 -1.17 0.09l-1.61 0.33c-0.1149 0.0245 -0.2221 0.0765 -0.3126 0.1513 -0.0906 0.0749 -0.1617 0.1705 -0.2074 0.2787 -0.5605 0.9274 -1.0551 1.8931 -1.48 2.89 -1.13 3.26 -0.58 6.56 0.34 9.87C64 77.21 65.65 82 66 82.92c0.2043 0.4987 0.4661 0.9719 0.78 1.41 0.88 1.19 3.25 0.63 4.65 0.23 6.48 -1.85 6.14 -1.65 6.17 -1.78 0.3083 -0.9028 0.2977 -1.884 -0.03 -2.78Z" stroke-width="1"></path>
  <path fill="#ffffff" d="M71.3 57.8c-0.56 -0.94 -0.94 -1 -1 -1.5 -0.08 -0.86 0.49 -1.71 0 -2.62 -0.37 -0.64 -0.65 -0.63 -0.39 -1.48 0.243 -0.5727 0.2759 -1.2128 0.0929 -1.8074 -0.1829 -0.5946 -0.57 -1.1055 -1.0929 -1.4426 -0.22 -0.13 -0.57 -0.06 -0.75 -0.26 -0.18 -0.2 -0.16 -0.69 -0.24 -0.95 -0.34 -1 -0.91 -2 -2 -2.12 -0.2297 -0.035 -0.4645 -0.0101 -0.6817 0.0723 -0.2172 0.0823 -0.4095 0.2193 -0.5583 0.3977 -0.18 0.23 -0.26 0.5 -0.44 0.72 -0.18 0.22 -0.42 0.33 -0.6 0.13 -0.1113 -0.1643 -0.1609 -0.3627 -0.14 -0.56 0.0514 -0.4029 -0.0048 -0.8122 -0.1629 -1.1863 -0.158 -0.3741 -0.4124 -0.6997 -0.7371 -0.9437 -0.0898 -0.0678 -0.1929 -0.1159 -0.3026 -0.1412 -0.1096 -0.0252 -0.2234 -0.0271 -0.3338 -0.0054 -0.1104 0.0217 -0.215 0.0665 -0.307 0.1314 -0.0919 0.0649 -0.1691 0.1484 -0.2266 0.2452 -0.41 0.63 -0.46 1.21 -1.12 0.73 -0.2094 -0.1634 -0.4377 -0.301 -0.68 -0.41 -1 -0.36 -2.85 -0.57 -2.87 0.53 -0.1983 0.4062 -0.2714 0.8622 -0.21 1.31 0.0717 0.244 0.1994 0.4678 0.3731 0.6536 0.1736 0.1858 0.3883 0.3284 0.6269 0.4164 0.2341 0.1055 0.4501 0.2472 0.64 0.42 0.0944 0.08 0.1676 0.1822 0.213 0.2973 0.0453 0.1152 0.0615 0.2398 0.047 0.3627 -0.1 0.38 -0.57 0.39 -1.11 0.76 -0.91 0.75 -0.81 2.38 0.32 2.55 0.1392 0.0082 0.2738 0.053 0.39 0.13 0.0707 0.0974 0.1088 0.2146 0.1088 0.335 0 0.1204 -0.0381 0.2376 -0.1088 0.335 -0.3627 0.453 -0.6778 0.9423 -0.94 1.46 -0.1297 0.2233 -0.2122 0.4708 -0.2425 0.7272 -0.0303 0.2564 -0.0078 0.5164 0.0662 0.7637 0.0741 0.2474 0.198 0.477 0.3642 0.6746 0.1662 0.1977 0.3711 0.3591 0.6021 0.4745 0.2573 0.0699 0.5236 0.1002 0.79 0.09 0.1284 -0.0146 0.2581 0.0113 0.3711 0.0741 0.1129 0.0627 0.2035 0.1592 0.2589 0.2759 0.17 0.57 -0.16 0.92 -0.39 1.67 -0.38 1 0 2.4 1.11 2.6 1.11 0.2 2 -1.22 2.61 -1.73 0.2078 -0.1968 0.4596 -0.3411 0.7344 -0.4211 0.2747 -0.08 0.5646 -0.0934 0.8456 -0.0389 0.35 0.06 1.31 0.28 1.81 0.44 0.5577 0.1887 1.0862 0.4546 1.57 0.79 0.45 0.2 0.66 0.16 1.94 0.09 0.5225 0.0195 1.0433 -0.069 1.53 -0.26 0.2253 -0.1092 0.4152 -0.2797 0.5478 -0.492 0.1327 -0.2123 0.2028 -0.4577 0.2022 -0.708 -0.0239 -0.5661 -0.2076 -1.114 -0.53 -1.58Z" stroke-width="1"></path>
  <path fill="#ffffff" d="M68.1 54.27c-0.23 -0.61 0.19 -1.43 -0.67 -2.9 -0.4311 -0.9819 -1.1818 -1.789 -2.13 -2.29 -0.5312 -0.1907 -1.0987 -0.2591 -1.66 -0.2 -0.3818 -0.0126 -0.7605 0.0727 -1.1 0.2477 -0.3396 0.1751 -0.6287 0.434 -0.84 0.7523 -0.5882 1.1165 -0.9997 2.3174 -1.22 3.56 -0.104 1.1614 0.1397 2.3274 0.7 3.35 0.4811 1.0522 1.0603 2.0566 1.73 3 0.52 0.85 1.52 2.87 4.08 2.76 1.65 -0.06 2.1 -3.07 2.15 -4.14 0.0976 -1.4551 -0.2664 -2.9038 -1.04 -4.14Z" stroke-width="1"></path>
  <path fill="#ffffff" d="M62 54.92c0.84 -1.53 1.7 -3 3.8 -0.88 0 1.78 -2.19 2.2 -3.8 0.88Z" stroke-width="1"></path>
  <path fill="#ffffff" d="M158 91.41c1.93 3.35 5.19 10.79 4.79 13.81 -0.48 3.65 -4.11 11.31 -4.79 12 -0.25 -0.55 0.15 -2.57 -0.27 -2.6 -1 -0.09 0.41 7.19 0.51 7.91 0.1 0.72 -1.13 3 -0.52 8.38 0.23 2 0 22.16 -0.16 24.44 -0.27 3.47 0.88 4.09 0.62 7.79 -0.2 2.85 -0.86 4.52 -0.13 11.12s0.79 6.27 0.11 6.49c-0.829 0.246 -1.679 0.414 -2.54 0.5 -5 0.54 -3.53 0.74 -10.36 -0.36 -0.69 -0.11 -1.34 -1 -0.92 -1.34 1 -0.89 1.13 -1 0.75 -2.09 -1.84 -5.41 -4.85 -11.49 -6.26 -21.36 -0.51 -3.5 -0.58 -3.74 -0.78 -4.94 -0.06 -0.35 0 -0.19 1 0.21 5.86 2.26 5.72 1.75 6.08 -1.78 0.45 -4.5 0.29 -7 0.37 -7 0 -16.8 6.93 -35.47 5.93 -47 -0.46 -5.15 -1.2 -4.55 1.81 -5.06 1.357 -0.1985 2.695 -0.5096 4 -0.93 0.32 -0.13 1 0.11 0.68 0.56 -0.83 1.08 -4 1.77 -2.57 2.2 0 0 0.1 -0.05 0.15 -0.07 2.65 -1.29 2.35 -1.21 2.5 -0.88Zm-1.4 65.41c0 -0.44 -1.1 -4.71 -1.58 -9.89 0 0 -0.44 -4.7 -1.08 -8.64 -0.93 -5.78 -2.24 -8.95 -2.4 -8.93 -0.5 0.06 1.46 5.25 2.36 13.33 0.408 4.78 1.136 9.528 2.18 14.21 0.13 0.36 0.55 0.53 0.56 -0.08h-0.04Zm-0.94 17.11c0.14 -0.07 -4.07 -27.48 -6.27 -28.27 -0.31 0.48 1.45 3.22 4.92 23.12 0.83 4.52 0.88 5.41 1.39 5.15h-0.04Zm-5.9 5.56c5 -0.45 3.84 -1.52 3.44 -1.33 -2 1 -8.94 0.81 -7.55 1.49 1.385 0.068 2.774 0.014 4.15 -0.16h-0.04Z" stroke-width="1"></path>
  <path fill="#ffffff" d="M161.47 62.38c0.47 3.23 1 3.29 0.46 3.44 -7.68 2.1 -8.45 2 -10.25 2.78 -0.08 0 -0.39 0.18 -0.38 0 0.07 -1.33 -0.58 -2.37 0 -3.92 0.37 -1 1.63 -4.44 0.42 -3.66 0 0 -0.87 2.94 -1.09 3.27 -0.184 -0.5085 -0.256 -1.051 -0.21 -1.59 0.17 -2.14 -0.3 -2.47 -0.6 -4.12 -0.15 -0.8 0.46 -3.13 0 -3.13 -0.16 0 -0.29 0 -0.34 0.17l-0.49 -0.14c0.755 -2.0858 2.057 -3.9302 3.77 -5.34 4.14 -2.84 7.77 2.36 7.44 6.76 -0.14 1.82 0.89 2.9 1.27 5.48Zm-10 -3.74c1.77 -4.48 2.08 -4.85 1.71 -5 -0.37 -0.15 -0.38 0 -0.72 0.81 -0.34 0.81 -2.22 4.72 -1.46 4.9 0.36 0.12 0.3 -0.26 0.47 -0.71Z" stroke-width="1"></path>
  <path fill="#ffffff" d="M161.92 80.33c0.047 1.161 -0.252 2.3098 -0.86 3.3 -2.32 4.54 -17.44 -5.14 -23.27 -5.75 -0.525 -0.0859 -1.063 -0.0307 -1.56 0.16 -1.59 0.76 -3 1.56 -4.86 1.37 -0.47 0 -2.48 -0.6 -2.17 -1 0.31 -0.4 1.47 0.59 1.69 0 0.22 -0.59 -2.09 -0.58 -3.26 -1.45 -0.31 -0.24 -0.06 -0.65 0.29 -0.44 2 1.24 2.58 0.15 1.47 0 -0.728 -0.2439 -1.439 -0.5345 -2.13 -0.87 -3.88 -1.88 2.5 0.29 2.72 -0.13 0.22 -0.42 -0.51 -0.58 -0.9 -0.64 -1.59 -0.26 -1.23 -0.37 -4.12 -0.92 -2 -0.39 -2.25 -1.33 -1.32 -1.14 5.58 1.17 6 0.38 7.77 0.31 0.168 -0.0095 0.335 -0.0295 0.5 -0.06 1.84 -0.35 0.76 -2.24 -0.69 -2.82 -0.43 -0.18 -1.37 -0.74 -1.46 -1.39 1.279 0.3565 2.511 0.8634 3.67 1.51 0.46 0.25 1 1.42 1.73 2.18 2.66 2.88 19.53 3.76 19.76 3.79 1.55 0.21 3 0.79 2.37 -0.17 -0.19 -0.32 -4.39 -0.47 -4.55 -2.16 -0.6 -6.44 -3.42 -3.94 7.08 -6.83 0.25 -0.07 0.46 0.44 0.65 1.23 0.42 1.87 1.37 10.59 1.45 11.92Zm-30 -1.85c0.31 -0.18 -0.21 -0.79 -0.23 -1 -0.1 -0.7 -0.78 -0.73 -0.62 -1.58 0.16 -0.85 -0.47 -1.19 -0.58 -1.78 -0.025 -0.0439 -0.064 -0.0784 -0.11 -0.0981 -0.046 -0.0198 -0.098 -0.0237 -0.147 -0.0112 -0.049 0.0125 -0.092 0.0408 -0.124 0.0804 -0.031 0.0396 -0.048 0.0884 -0.049 0.1389 -0.14 0.7 0.52 0.87 0.44 1.66 -0.031 0.2021 -0.031 0.4079 0 0.61 0.56 1.16 0.98 2.25 1.44 1.98h-0.02Z" stroke-width="1"></path>
  <path fill="#c1e1fd" d="M157.6 88c0.092 0.1626 0.147 0.3437 0.16 0.53 0 0.47 -0.66 0.67 -3.12 1.17 -4.29 0.87 -4.47 0.26 -4 3.92 0.628 6.437 0.147 12.935 -1.42 19.21 -4.51 19.5 -4 28.17 -4.89 38.84 -0.17 2.07 -11 -3.92 -11.77 -4.25 -0.77 -0.33 -4.48 -2.45 -8.32 -2.44 -0.639 0.001 -1.275 0.068 -1.9 0.2 -2.15 0.48 -2 0.38 -2 -0.16 0 -3.28 1.55 -7.16 2.12 -9.29 0.49 -1.81 0.48 -3 0.94 -4.69 2.78 -10 6 -17.75 6.22 -18.42 1.5 -5.18 6.36 -17.33 7.77 -20.62 0.8 -1.87 -0.29 -2.75 0.75 -3.31 0.32 -0.17 0.32 -0.19 3 0.73 1.728 0.5784 3.567 0.7428 5.37 0.48 0.37 0 0.48 -0.42 0 -0.48 -0.83 -0.1 -4.44 0.33 -7.82 -1.8 -1 -0.66 -0.62 -1.28 -0.58 -3 0.16 -6.16 -4.8 -8.3 5.85 -4 3 1.2 3.12 1.23 3.23 1.67 0.86 3.41 1.34 6.87 4 6.88 4.42 -0.04 6.12 -1.8 6.41 -1.17ZM140 131.37c0.27 -0.48 -0.94 -1.1 -3.2 -9 -2 -6.9 -1.8 -11.79 -2.57 -11.65 -0.41 0.07 0.85 8 1.78 11.06 0.36 1.1 3.25 10.99 3.99 9.59Zm-8.14 -7.37c2.5 22.51 5 20.87 4.57 20.16 -0.55 -0.91 -1.76 -4.86 -2.72 -10.57 -1.78 -10.66 -1.17 -16.67 -1.46 -18.79 -0.05 -0.34 -0.34 -0.41 -0.37 0 -0.183 3.064 -0.19 6.135 -0.02 9.2Z" stroke-width="1"></path>
  <path fill="#ffffff" d="M156.74 38.18c1.62 1.2 1.41 2.17 0.63 2.69 -0.78 0.52 -1.47 1.28 -2.38 0.59 -2.25 -1.69 -1.14 2.06 -3.34 1.41 -0.437 -0.5906 -0.825 -1.216 -1.16 -1.87 -2.19 -4.15 0.06 -3 1.22 -7.07 0.84 -3 -2.93 -4.42 -4.52 -2.66 -0.75 0.83 -4.54 -1.22 -4.71 -5.11 -0.07 -1.63 -1.64 -1.93 -1.58 -4.31 0 -1.4 0.89 -0.83 1.28 -2.45 0.16 -0.68 -0.64 -1.29 0.31 -1.74 0.45 -0.21 0.34 -0.77 -0.2 -0.69 -0.73 0.11 -1.1 0.88 -0.78 1.87 0.32 0.99 -0.71 1.67 -1.57 1.81 -1.15 0.19 -1.19 1.34 -1.36 2.2 -0.1 0.52 -0.09 0.91 -0.73 1.1 -0.304 0.1755 -0.649 0.2679 -1 0.2679s-0.696 -0.0924 -1 -0.2679c-0.43 -0.17 -0.54 -0.69 -0.68 -1.15 -0.074 -0.1563 -0.188 -0.2905 -0.33 -0.3896 -0.142 -0.0991 -0.307 -0.1597 -0.48 -0.1759 -0.172 -0.0161 -0.345 0.0128 -0.503 0.0839 -0.158 0.071 -0.295 0.1819 -0.397 0.3216 -0.2 0.29 -0.79 1.4 -2 0.43 -1.32 -1.08 -0.41 -2.29 -1.83 -2.46 -0.213 -0.0445 -0.413 -0.134 -0.588 -0.2625s-0.321 -0.2931 -0.427 -0.4826c-0.106 -0.1896 -0.171 -0.3996 -0.189 -0.6161 -0.018 -0.2165 0.011 -0.4343 0.084 -0.6388 0.18 -0.73 -0.32 -0.8 -0.46 -0.45 -0.22 0.52 -0.17 0.77 -0.48 0.6 -1.17 -0.61 -1.93 -0.43 -0.83 -2 0.27 -0.47 0 -0.79 -0.46 -0.35 -0.81 0.8 -1.17 2.09 0 2.6 1.17 0.51 1.83 0.64 1.48 1.68 -0.27 0.83 -1.06 1.14 -2.06 2 -0.276 0.2318 -0.451 0.5624 -0.486 0.9213 -0.036 0.3588 0.071 0.7173 0.296 0.9987 0.7 0.92 1.12 1.15 0.73 2.25 -0.66 1.85 -2.73 1.84 -0.52 3.79 0.69 0.62 0.1 2.33 0 2.34 -0.45 0 0.42 -0.36 -1 -1.92 -0.33 -0.37 -1.69 -1.43 -0.59 -2.83 0.68 -0.88 1 -1.57 0.15 -2.46 -2.28 -2.4 0.12 -2.69 0.39 -4.11 0.42 -2.24 -3.63 -1.33 -3.29 -4.12 0.138 -0.6894 0.488 -1.3186 1 -1.8 0.34 -0.2812 0.753 -0.4614 1.19 -0.52 2.11 -0.61 -0.82 -1.48 -0.31 -2.68 0.107 -0.254 0.266 -0.4831 0.465 -0.6729 0.2 -0.1898 0.437 -0.3363 0.696 -0.4302 0.26 -0.0939 0.535 -0.1332 0.811 -0.1155 0.275 0.0178 0.543 0.0922 0.788 0.2186 0.69 0.59 1.64 0.56 0.56 -1 -0.71 -1.06 0.21 -2.39 0.86 -2.22 0.555 0.1109 1.088 0.3101 1.58 0.59 0.69 0.45 0.91 0.85 1.12 -0.06 -0.135 -0.35093 -0.152 -0.73653 -0.047 -1.09775s0.325 -0.67815 0.627 -0.90225c2.16 -1.59 4.93 0.93 5.15 1.08 1.4 0.92 0.61 -1.55 2.62 -2 0.826 -0.18598 1.69 -0.08165 2.448 0.29541 0.758 0.37705 1.362 1.00379 1.712 1.77459 0.3 0.71 -0.51 0.33 -0.74 1.49 -0.12 0.57 0.47 0.56 0.59 0.22 0.26 -0.74 0.93 -0.82 1.55 -1 0.62 -0.18 0.86 1 1.34 0.61 0.071 -0.04526 0.122 -0.11693 0.141 -0.19938 0.018 -0.08244 0.004 -0.16894 -0.041 -0.24062 -0.65 -0.78 -0.47 -0.85 -1.56 -0.88 -0.13 0 -0.13 -0.06 -0.1 -0.17 0.043 -0.28699 0.147 -0.56126 0.307 -0.80378 0.159 -0.24251 0.369 -0.44747 0.615 -0.60065 0.247 -0.15317 0.524 -0.2509 0.812 -0.2864 0.288 -0.0355 0.58 -0.00792 0.856 0.08083 0.82 0.37 1.69 1.77 1.82 4.07 0.07 1.35 2.7 -0.09 1.43 3.3 -0.51 1.38 -0.35 1 1.34 1.51 0.52 0.15 1 0.32 0.1 2.17 -0.54 1.07 -0.9 0.34 -2.84 -0.42 -0.85 -0.33 -0.75 0.73 -1.44 1.65 -0.119 0.1556 -0.277 0.2775 -0.458 0.3537 -0.18 0.0762 -0.378 0.104 -0.572 0.0808 -0.195 -0.0232 -0.38 -0.0966 -0.538 -0.2132 -0.158 -0.1165 -0.283 -0.272 -0.362 -0.4513 -0.17 -0.51 -0.46 -1.05 -1 -1 -0.39 0 -0.55 0.58 -0.09 0.66 0.66 0.11 0.34 1 1.06 1.37 1.46 0.71 2.18 0.61 3.14 -1.46 0.15 -0.33 0.38 -0.09 1.13 0.33 4 2.25 1.69 2.36 4.32 4.25 0.569 0.4746 1.028 1.0676 1.344 1.7378 0.316 0.6702 0.482 1.4012 0.486 2.1422 -0.024 0.5734 -0.121 1.1414 -0.29 1.69 -0.41 1.43 0.45 1.72 0.52 2.57 0.07 0.85 -0.45 0.94 -1.29 1.79 -0.54 0.55 -0.3 1.08 0.17 0.87 0.32 -0.14 0.48 -0.63 1 -0.37 0.365 0.1878 0.687 0.4484 0.947 0.7658 0.26 0.3173 0.453 0.6846 0.565 1.0792 0.113 0.3946 0.143 0.8081 0.089 1.2149 -0.053 0.4067 -0.19 0.7982 -0.401 1.1501 -0.1 0.1752 -0.141 0.3782 -0.116 0.5784 0.026 0.2002 0.115 0.3868 0.256 0.5316Zm-3.7 1.7c0.456 -0.2413 0.802 -0.6498 0.964 -1.14 0.162 -0.4902 0.129 -1.0241 -0.094 -1.49 -0.83 -0.79 0 -1.51 -0.07 -2.38 -0.007 -0.0525 -0.031 -0.1012 -0.068 -0.1386 -0.038 -0.0374 -0.086 -0.0614 -0.139 -0.0683 -0.052 -0.0068 -0.106 0.0039 -0.151 0.0304 -0.046 0.0266 -0.082 0.0675 -0.102 0.1165 -0.1 0.27 0 0.52 -0.21 0.8 -0.59 1 0 1.46 0.21 2 0.18 0.41 0.19 0.9 -0.42 1.56 -0.115 0.1062 -0.251 0.1876 -0.399 0.2393 -0.148 0.0517 -0.305 0.0725 -0.462 0.0613 -0.156 -0.0112 -0.309 -0.0543 -0.448 -0.1267 -0.139 -0.0723 -0.262 -0.1723 -0.361 -0.2939 -0.33 -0.31 -0.5 -0.1 -0.49 0.06 0.081 0.2057 0.206 0.3916 0.365 0.5449 0.16 0.1533 0.35 0.2704 0.559 0.3435 0.209 0.0731 0.431 0.1003 0.651 0.0799 0.22 -0.0205 0.433 -0.0881 0.625 -0.1983h0.04Zm-3.3 -12.33c0.419 -0.7803 0.547 -1.6842 0.36 -2.55 -0.22 -1.57 -1.61 -1.92 -2.42 -3.58 -0.16 -0.33 -0.25 -0.78 -0.59 -0.77 -0.34 0.01 -0.21 0.69 -0.13 0.84 1.51 2.72 2.6 1.65 2.47 5.38 -0.01 0.5 0.03 0.62 0.31 0.68Zm-4 -0.49c0.38 1.56 1 1.11 0.83 0.64 -0.92 -2 0.75 -2.52 -1.57 -4.78 -2.16 -2.11 -1.05 -3 -1.71 -2.93 -0.66 0.07 -0.34 1 -0.19 1.37 0.398 1.0276 1.052 1.9365 1.9 2.64 1.07 1.11 0.49 2.15 0.71 3.06h0.03Zm-0.33 -13.38c1.38 0.36 1.08 -0.43 0.66 -0.52 -0.538 -0.1844 -1.114 -0.2288 -1.674 -0.1291 -0.56 0.0997 -1.085 0.3403 -1.526 0.6991 -0.4 0.12 -0.36 -1.64 -2.33 -1.74 -0.64 0 -1.66 0.37 -1.33 0.91 0.19 0.32 0.63 -0.11 1 -0.21 0.204 -0.0385 0.414 -0.0346 0.617 0.0114 0.203 0.0459 0.394 0.133 0.562 0.2558 0.168 0.1228 0.308 0.2786 0.414 0.458 0.105 0.1794 0.172 0.3784 0.197 0.5848 0.07 0.34 0.14 0.81 0.35 0.92 0.38 0.2 0.44 -0.26 0.54 -0.39 0.295 -0.3591 0.684 -0.6289 1.124 -0.7791 0.44 -0.1501 0.913 -0.1747 1.366 -0.0709h0.03ZM137 15.59c0.54 0.09 0.61 -0.43 0.22 -0.59 -0.217 -0.0813 -0.45 -0.1146 -0.681 -0.0976 -0.232 0.0169 -0.457 0.0837 -0.66 0.1958s-0.38 0.2668 -0.518 0.4535c-0.138 0.1867 -0.234 0.4011 -0.281 0.6283 -0.16 0.66 -1 -0.8 -2.41 -0.07 -0.479 0.2574 -0.884 0.6335 -1.177 1.0922 -0.292 0.4587 -0.462 0.9847 -0.493 1.5278 0 0.59 0.59 0.67 0.64 0 0.039 -0.4294 0.177 -0.844 0.403 -1.2116 0.225 -0.3677 0.532 -0.6785 0.897 -0.9084 1.29 -0.61 2.38 1.65 2.61 0.42 0.1 -0.73 0.33 -1.64 1.45 -1.44Zm0 -5.59c0.05 -0.41 -1.49 -0.58 -2.15 -0.09 -0.94 0.71 -0.82 1.38 -1 2.35 -0.12 0.59 -0.8 -0.45 -1.63 0.22 -0.29 0.23 -0.7 -0.57 -1.49 -0.6 -0.412 -0.0119 -0.817 0.1037 -1.161 0.3311 -0.344 0.2273 -0.609 0.5552 -0.759 0.9389 -0.33 0.68 -0.34 1.29 0.09 1.05 0.43 -0.24 0 -0.69 0.95 -1.4 0.159 -0.1207 0.344 -0.2034 0.541 -0.2416 0.196 -0.0382 0.398 -0.031 0.591 0.0212 0.193 0.0521 0.372 0.1477 0.522 0.2795 0.151 0.1318 0.269 0.2963 0.346 0.4809 0.31 0.53 0.58 0.27 0.83 -0.23s0.61 0 0.94 0.15c0.93 0.51 1.06 -1.84 1.12 -2.12 0.083 -0.3469 0.3 -0.6468 0.604 -0.8342 0.303 -0.1873 0.669 -0.247 1.016 -0.1658 0.12 0.08 0.64 0.37 0.64 -0.14Z" stroke-width="1"></path>
  <path fill="#ffffff" d="M156.91 85.47c0.83 0.14 0.52 0.92 0.25 1.72 -1.391 0.6553 -2.87 1.1066 -4.39 1.34 -1.94 0.28 -2.63 -0.09 -3.39 -1.15 -0.76 -1.06 -1.54 -5.11 -1.54 -5.13 0.41 0.07 7.46 2.94 9.07 3.22Z" stroke-width="1"></path>
  <path fill="#ffffff" d="M156.67 193.67c0 0.56 0.16 0.44 -2.89 0.64 -11.74 -0.68 -4.42 -0.61 -10.74 -0.15 -1.8 0.14 -5.75 0.64 -8 -0.69 -0.79 -0.46 -1 -0.76 -1.07 -1.09v-0.23c0 -0.35 0.18 -0.1 1.93 0.71 2.06 1 7 0.62 8.9 0.06 0.73 -0.24 9.19 0.6 11.31 0 0.26 -0.1 0.6 0.14 0.56 0.75Z" stroke-width="1"></path>
  <path fill="#ffffff" d="M140.38 188.1c-0.3 -0.35 -0.46 -0.38 -0.86 -0.18 -4.67 2.21 -7.06 2.68 -4 4.1 1.098 0.559 2.318 0.834 3.55 0.8 1.31 0.027 2.62 -0.04 3.92 -0.2 -0.787 -1.553 -1.658 -3.062 -2.61 -4.52Z" stroke-width="1"></path>
  <path fill="#ffffff" d="M154.21 185.94c-0.43 0.25 -2.7 3.34 -4.38 1.84 -1.68 -1.5 -2.5 -2.92 -4 -2.21 -0.38 0.18 -0.21 0.17 0.48 1.3 0.19 0.3 -0.19 0.75 -0.48 0.29 -0.8 -1.25 -0.87 -1.31 -1.17 -1.08 -0.3 0.23 1.1 1.55 0.39 1.67 -0.71 0.12 -0.72 -1.6 -1.48 -1.16 -0.15 0.09 -0.09 -0.05 0.46 1.22 0.18 0.42 -0.32 0.65 -0.51 0.24 -0.57 -1.22 -0.53 -1.23 -0.81 -1.11 -1.65 0.74 -2 0.71 -1.76 1.22 0.711 1.512 1.499 2.988 2.36 4.42 0.5 -0.06 0.61 -0.14 1.38 -0.24 2.77 -0.36 5 0.27 8.72 0.14 -0.26 -4.42 0.89 -5.65 0.8 -6.54Z" stroke-width="1"></path>
  <path fill="#ffffff" d="M156.23 189.47c-0.3 -2.82 -0.65 -4.19 -1.08 -4 -1.08 0.41 -1.52 4.39 -1.5 5.26l0 1.76c1.31 -0.05 2.43 -0.15 2.44 -0.14 0.54 0.03 0.39 -0.55 0.14 -2.88Z" stroke-width="1"></path>
  <path fill="#c1e1fd" d="M155.93 48.52c-6.49 0.34 -7.09 6.35 -11.41 17.45 -1.15 3 1.39 8.88 0.48 8.76 -0.58 -0.07 -8.06 -1.33 -8.2 -1.93 -0.501 -2.3064 -0.835 -4.6457 -1 -7 0 -2.58 0.18 -1.77 2.52 -6.59 3.05 -6.27 0.08 -0.65 4 -7.45 2 -3.47 1.74 -3.45 2 -3.23 0.5 0.41 0.13 0.46 -3.6 7.66 -1.22 2.35 -2.76 5 -0.11 5 2.08 0 3 1.75 4.9 -2.25 3.55 -7.34 3.47 -7 5.86 -10.13 1.84 -2.36 4.38 -1.76 4.56 -0.29Z" stroke-width="1"></path>
  <path fill="#ffffff" d="M154.43 182.75c0 1.41 0.25 2.07 -0.37 2.64 -3.13 2.9 -3 2.74 -5.43 0.37 -0.32 -0.31 -0.28 -0.38 0.06 -2.14 0.16 -0.81 0.3 0.09 3.5 -0.55 2.16 -0.44 2.23 -0.76 2.24 -0.32Z" stroke-width="1"></path>
  <path fill="#ffffff" d="M151.89 44.84c2 2.77 1.58 1.07 -0.54 3.23s-3.88 5.56 -6.21 6.66c-1.34 0.63 -0.27 -3.32 0.25 -4.68 0.73 0.61 0.76 0.06 0.55 -0.32 -2.76 -4.87 -2.16 -2 -0.23 -7.21 0.029 -0.0667 0.031 -0.1418 0.007 -0.2103 -0.024 -0.0685 -0.073 -0.1255 -0.137 -0.1597 -0.64 -0.29 -2.68 2.57 -5.29 3.46 -1.92 0.66 -3.64 -0.28 -5 -1.83 -1.627 -1.8133 -2.587 -4.1274 -2.72 -6.56 0 -2.37 0.26 -2.6 0.08 -4.16 -0.43 -1.7826 -0.582 -3.621 -0.45 -5.45 0 -0.44 0.23 -0.2 0.35 0 0.25 0.38 0.51 1.23 0.89 1.08 0.38 -0.15 0.06 -1.32 -0.74 -2 -0.63 -0.51 1.38 -4.41 1.79 -3.6 0.18 0.35 0.12 1 1 1.39 0.356 0.1977 0.75 0.3162 1.155 0.3473 0.406 0.0311 0.814 -0.026 1.195 -0.1673 1.33 -0.19 1.53 -1.36 1.74 -2.77 0.05 -0.38 0.65 -0.84 0.7 -0.2 -0.129 1.1075 0.176 2.2219 0.85 3.11 1 1.34 0.65 6.57 5.35 7.13 0.37 0 0.12 0.23 0.14 0.34 0.02 0.11 0 0.34 0.08 0.39 0.08 0.05 0.63 -0.7 1.14 -1.08 0.26 -0.2071 0.565 -0.3489 0.891 -0.4137 0.326 -0.0647 0.663 -0.0505 0.982 0.0416 0.319 0.092 0.612 0.2592 0.853 0.4875 0.241 0.2282 0.424 0.511 0.534 0.8246 0.29 0.81 0.11 1.59 -0.78 2.84 -0.61 0.84 -0.52 1.14 -1.13 1.62 -0.126 0.0998 -0.271 0.1731 -0.427 0.2157 -0.155 0.0425 -0.317 0.0534 -0.477 0.0319 -0.159 -0.0214 -0.313 -0.0748 -0.451 -0.1568 -0.139 -0.0821 -0.26 -0.1912 -0.355 -0.3208 -0.24 -0.22 0 -0.8 -0.47 -0.86 -0.47 -0.06 -0.6 1.06 0 1.55 1.27 1 1.66 0.17 1.84 0.93 0.636 2.3146 1.664 4.5029 3.04 6.47Zm-1.55 -11.71c0.39 -0.32 -0.29 -1.29 -1.19 -1.28 -1.15 0 -2.44 1.82 -0.94 2.9 0.54 0.38 -0.1 0.62 0.16 1.12 0.11 0.2 0.4 0.14 0.54 -0.25 0.52 -1.49 -0.91 -1.13 -0.74 -2.11 0.13 -0.76 1.12 -1.44 1.65 -0.71 0.18 0.28 0.4 0.43 0.52 0.33Zm-9.12 3.61c0.59 0.55 1 -0.63 -0.16 -1.44 -0.058 -0.0623 -0.139 -0.0989 -0.224 -0.1017 -0.086 -0.0028 -0.169 0.0284 -0.231 0.0867s-0.099 0.1391 -0.102 0.2244c-0.003 0.0853 0.029 0.1683 0.087 0.2306 0.23 0.29 -0.25 0.4 -0.94 0.8 -2.67 1.52 -4.88 0.94 -5 1.22 -0.12 0.28 0.58 0.24 1 1.32 0.5 1.29 0.85 2.44 2.17 2.29 2.08 -0.24 2.88 -5.11 3.4 -4.63Zm-2.47 -5.1c1.21 -0.65 2.49 0.23 2.34 -0.61 -0.07 -0.45 -1.34 -0.32 -1.8 -0.21 -1.25 0.3 -1.46 1.12 -2.83 1.16 -0.37 0 -0.15 0.49 0.22 0.51 0.37 0.02 2.22 -0.43 3.23 0.17 0.43 0.25 0.81 -0.46 0 -0.75 -0.374 -0.1509 -0.777 -0.2192 -1.18 -0.2l0.02 -0.07Zm2.2 -4.76c0.1 -0.49 -1.06 -0.59 -1.51 -0.37 -2.94 1.39 -2.85 2.9 -4.11 2.45 -0.32 -0.11 -0.54 0.36 -0.25 0.57 1.62 1.15 3.25 -2.6 5.28 -2.36 0.27 0 0.52 0.05 0.64 -0.29h-0.05ZM135 36c0.79 0 1.26 -0.64 1.07 -0.86 -0.19 -0.22 -0.39 -0.07 -0.59 0 -0.91 0.49 -1.64 -0.1 -1.28 -0.63 0.36 -0.53 1 -1 1 -1.88 0 -0.88 -0.43 -0.73 -0.51 -0.18 -0.13 0.95 -0.74 1.3 -1.08 1.8 -0.61 0.92 0.28 1.75 1.39 1.75Zm-1.62 -3.78c0.16 0 0.29 -0.24 0.24 -0.62 -0.05 -0.38 -0.21 -0.65 -0.49 -0.58 -0.28 0.07 -0.27 0.26 -0.26 0.54 0.01 0.28 0.26 0.68 0.51 0.63v0.03Z" stroke-width="1"></path>
  <path fill="#ffffff" d="M152.21 75c0 0.28 0.08 0.45 -0.2 0.41 -8.67 -1.16 -5.18 1.21 -7 -6.23 -0.56 -2.24 0.29 -3 1.67 -7 0.63 -1.86 1.38 -4.46 2.37 -6.73l0.49 0.14 0 0.08c-0.78 5.22 0.34 3.11 0.2 7.06 -0.013 0.9033 0.126 1.8024 0.41 2.66 0.22 0.23 0.28 0.42 0.38 1.72 0.34 5.35 0.24 -1.59 1.68 7.89Z" stroke-width="1"></path>
  <path fill="#ffffff" d="M145.25 55.42c0.88 -0.33 1.46 -1.07 1.95 -1.25 -0.388 1.0106 -0.846 1.993 -1.37 2.94 -0.59 1.17 -1.24 2.31 -1.94 3.42 -0.39 0.55 -0.94 0.41 -2.89 0 -2.16 0.35 -1.38 -0.91 3.46 -10 0.9 -1.65 -2.35 6.07 0.79 4.89Z" stroke-width="1"></path>
  <path fill="#ffffff" d="M143.23 49.2c-1.2 2.16 -3.92 6.37 -4.49 7.64 -0.57 1.27 -0.57 1.64 -1.1 1.61 -9.68 -0.55 -4.68 2.39 -6.41 -8.65 -0.15 -1 -0.14 -1.07 0.15 -1.08 12.12 -0.16 13.44 -2.31 11.85 0.48Z" stroke-width="1"></path>
  <path fill="#ffffff" d="M137.22 151c0.3 2 0.43 2 0.2 2.64 -7.66 20.08 -9.8 20.51 -9.08 24.2 0.23 1.12 -2 1.16 -3.13 1 -1.86 -0.29 -1 -0.29 -8.34 -2.51 -2.38 -0.72 -2.4 0.45 1.3 -14.39 4.51 -18 1.52 -15.65 6 -16.34 3.62 0.29 6.31 1.57 9.48 3.17 3.5 1.72 3.5 1.68 3.57 2.23Zm-13.14 4.47c1.37 9.23 4.48 11.89 4.24 11.05 -0.11 -0.38 -0.49 -0.93 -1 -1.91 -3.45 -7.05 -2.32 -10.45 -3.16 -11 -0.34 -0.08 -0.31 0.27 -0.08 1.83v0.03Zm3 19.74c0.2 -0.07 -0.25 -0.77 -0.71 -1.59 -3.16 -5.65 -3.44 -13.68 -4.06 -14.12 -0.19 0.05 -0.27 0.1 -0.25 0.31 1.38 10.65 3.37 13.28 4.42 15.11 0.11 0.24 0.27 0.36 0.57 0.26l0.03 0.03Z" stroke-width="1"></path>
  <path fill="#ffffff" d="M131.07 53.72c-0.11 2 0.34 2.51 -1.11 2.59 -5.061 0.3616 -10.143 0.3349 -15.2 -0.08 -5.196 -0.4841 -10.361 -1.2586 -15.47 -2.32 -5.47 -1.18 -6.84 -1.84 -9.2 -1.84 -0.5976 0.0299 -1.1883 -0.1389 -1.68 -0.48 -0.1076 -0.3459 -0.1516 -0.7084 -0.13 -1.07 0.12 -0.19 0.9 -0.23 1.2 -0.89 0.07 -0.16 0.74 -0.12 1.28 0.22 0 0 0.53 0.41 0.6 0.26 0.23 -0.4 -0.09 -0.64 -0.51 -0.83 -0.86 -0.38 -0.38 -0.4 -1 -0.92 -1.53 -1.25 -0.67 -2.76 -0.74 -3.87 -0.06 -0.8 -0.78 -1.29 -1.28 -3 -0.12 -0.4 -0.31 -1 0.11 -1.06 0.42 -0.06 0.27 0.87 1.66 2.7 0.3029 0.4528 0.637 0.8838 1 1.29 1.2 1.68 1.17 3.14 1.48 3.75 1.14 2.29 3.83 1.2 18 0.86 3.22 -0.1871 6.452 -0.0026 9.63 0.55 5.94 0.85 2.29 0.3 8.27 0 2.44 -0.12 2.59 0 2.64 0.28 0.258 1.2718 0.408 2.563 0.45 3.86Z" stroke-width="1"></path>
  <path fill="#ffffff" d="M130.25 72c-0.79 0.13 -2 -1.35 -9.09 -2.12 -4.59 -0.5 -11.29 -0.59 -15.15 1.75 1.26 -4.19 22.5 -2.84 24.24 0.37Z" stroke-width="1"></path>
  <path fill="#ffffff" d="M129.87 72.69c0.11 0.4 -4.69 -0.09 -5.11 -0.24 -2.76 -0.94 -6.71 -0.59 -5.12 1.12 1 1 3.57 1.61 5 1.59 0.51 0 0.94 0 1.27 0.47 0.14 0.21 0.46 0.3 0.69 0.45 0.4 0.28 0.31 0.92 -0.12 0.93 -5.87 0.1 -24.41 -1 -20.23 -4.72 4.5 -3.97 23.19 -1.09 23.62 0.4Z" stroke-width="1"></path>
  <path fill="#ffffff" d="M126.09 190c0.15 0.46 0.31 0.7 -0.21 0.74 -5.4 0.43 -3.88 -0.18 -9.44 -0.35 -1.86 -0.06 -9.94 1.9 -12.14 -1.33 -0.006 -0.026 -0.006 -0.054 0 -0.08 0 -0.11 0 -0.25 0.27 -0.14 5.12 2.7 8.31 0.47 12.79 0.77 10.08 0.9 8.36 -0.74 8.73 0.39Z" stroke-width="1"></path>
  <path fill="#ffffff" d="M111.48 186c-0.2 -0.471 -0.47 -0.909 -0.8 -1.3 -0.32 -0.37 -0.76 -0.12 -2.87 0.92 -3 1.5 -4.62 2 -2 3.19 2.33 1.06 5.06 0.85 7.2 0.56 -0.451 -1.149 -0.961 -2.274 -1.53 -3.37Z" stroke-width="1"></path>
  <path fill="#ffffff" d="M126 187.67c0 -1.74 -0.59 -6.23 -1.41 -4.68 -0.19 0.365 -0.347 0.747 -0.47 1.14 -0.476 1.625 -0.728 3.307 -0.75 5l2.39 -0.09c0.52 -0.04 0.24 -0.27 0.24 -1.37Z" stroke-width="1"></path>
  <path fill="#ffffff" d="M123.92 183c-2.42 2.27 -3.42 2.84 -5.89 0.07 -0.221 -0.237 -0.489 -0.425 -0.787 -0.552 -0.298 -0.128 -0.619 -0.192 -0.943 -0.188 -0.117 0.005 -0.232 0.034 -0.337 0.086 -0.105 0.051 -0.198 0.124 -0.273 0.214 -0.21 0.27 1.12 1.38 0.47 1.6 -0.5 0.17 -0.91 -1.84 -1.54 -1.14 -0.09 0.1 0.36 0.68 0.59 1.14 0.12 0.24 -0.2 0.59 -0.45 0.26 -0.57 -0.76 -0.59 -1.29 -1.07 -1 -0.48 0.29 0.84 1.44 0.22 1.64 -0.16 0 -0.24 -0.06 -0.3 -0.18 -0.72 -1.46 -0.28 -1.37 -2.22 -0.44 -0.27 0.13 -0.15 0.57 0.12 1.14 0.36 0.73 1.62 3.31 1.81 3.66 0.73 -0.1 1.37 -0.24 2.51 -0.31 3.46 -0.08 1.92 0.32 7.22 0.17 0.12 -1.684 0.374 -3.356 0.76 -5 0.19 -0.83 0.28 -1.32 0.11 -1.17Z" stroke-width="1"></path>
  <path fill="#ffffff" d="M122.82 179.7c1.87 0.17 1.83 0 1.7 0.44 -0.56 1.88 -0.6 2.06 -0.89 2.34 -2.58 2.43 -2.63 2.63 -5.12 0.23 -0.66 -0.63 -0.37 -1 0.45 -3.08 0.4 -1.03 -0.17 -0.29 3.86 0.07Z" stroke-width="1"></path>
  <path fill="#ffffff" d="M104.69 174.55c0.001 0.043 -0.014 0.085 -0.042 0.118 -0.027 0.033 -0.066 0.055 -0.108 0.062 -0.12 0.05 -0.71 0.43 -0.82 0.46 -0.45 0.14 -0.16 0.51 -7.21 -23.31C83.38 107.53 78.79 93 79 92.31c0.24 -0.13 0.3 -0.07 0.67 -0.11 0.14 0 0.29 0 0.39 0.46 0.23 0.7 24.73 81.15 24.63 81.89Z" stroke-width="1"></path>
  <path fill="#ffffff" d="M102.89 175.2c0 0.13 -0.32 0.15 -0.39 0.13 -0.07 -0.02 -0.92 0 -1.09 0 -0.55 -0.08 -0.45 -1 -2.94 -9.65 -10.09 -34.92 -9.55 -31.12 -8.2 -31.39 0.52 -0.1 0.32 -0.37 1.32 3 9.24 31.27 11.15 37.07 11.3 37.91Z" stroke-width="1"></path>
  <path fill="#ffffff" d="M90.46 133.5c0.07 0.22 0 0.24 -0.94 0.4 -3.76 0.66 -3.89 0.78 -4 0.35 -0.17 -1.05 -0.51 -0.86 0.68 -1.12 4.58 -0.97 3.8 -0.96 4.26 0.37Z" stroke-width="1"></path>
  <path fill="#ffffff" d="M89.62 151.11c0.17 0.33 0 0.33 -2.22 1.3 -0.55 0.23 0.76 3.71 -13.37 -50.13 -2.27 -8.64 -2.52 -9 -2.33 -9.21 0.19 -0.21 0.75 -0.14 1.6 -0.19 0.47 -0.16 16.11 57.83 16.32 58.23Z" stroke-width="1"></path>
  <path fill="#ffffff" d="M88.74 48.1c1.11 1.11 0.83 1 -0.43 0.46 -0.12 -0.05 -0.08 -0.06 0.32 -0.5 0.05 0.02 0.09 0.02 0.11 0.04Z" stroke-width="1"></path>
  <path fill="#ffffff" d="M89.09 131.83c0.15 0.08 0 0.18 0 0.19 -4.42 0.87 -3.89 0.92 -4.08 0 0.17 -0.14 -0.23 -0.06 2 -0.43 0.3388 -0.139 0.7072 -0.189 1.0709 -0.147 0.3636 0.042 0.7108 0.175 1.0091 0.387Z" stroke-width="1"></path>
  <path fill="#ffffff" d="M89.78 131.47c-0.51 -0.12 -1.38 -0.4 -1.52 -0.9 -1.09 -4 -3.57 -12.26 -4 -13.65 -7.79 -27.11 -7.57 -24.31 -6.51 -24.55 0.54 -0.12 0.51 0.08 0.64 0.52 1.4 4.56 11.4 38.25 11.39 38.58Z" stroke-width="1"></path>
  <path fill="#ffffff" d="M88.72 49.44c0 0.41 -0.18 0.42 -1.33 0.49 -0.8582 0.1751 -1.751 0.0102 -2.49 -0.46 -0.26 -0.26 -0.07 -0.64 0.33 -0.69 1.03 -0.13 3.49 0.22 3.49 0.66Z" stroke-width="1"></path>
  <path fill="#ffffff" d="M88.44 45.31c-0.0119 0.4927 -0.0587 0.9839 -0.14 1.47 0 0.11 0 0.09 -0.21 0 -0.0207 -0.0042 -0.04 -0.0138 -0.0558 -0.0279 -0.0158 -0.014 -0.0276 -0.032 -0.0342 -0.0521 0.0996 -0.1606 0.1612 -0.3419 0.18 -0.53 -0.006 -0.2144 -0.086 -0.4201 -0.2263 -0.5823 -0.1403 -0.1622 -0.3324 -0.2709 -0.5437 -0.3077 -0.12 0 -0.2 -0.05 -0.24 -0.22 -0.04 -0.17 0 -0.24 0 -0.27 0.83 0.14 1.25 0.21 1.27 0.52Z" stroke-width="1"></path>
  <path fill="#ffffff" d="M87.59 47.27c0.07 0 0.5 0.06 0.49 0.37 0.001 0.0965 -0.0271 0.191 -0.0806 0.2713 -0.0535 0.0802 -0.13 0.1425 -0.2194 0.1787 -1.0999 0.1831 -2.2266 0.1217 -3.3 -0.18 -0.126 -0.0771 -0.2235 -0.1932 -0.2777 -0.3307 -0.0542 -0.1375 -0.0621 -0.2889 -0.0226 -0.4313 0.0396 -0.1424 0.1245 -0.268 0.2418 -0.3579 0.1173 -0.0898 0.2607 -0.139 0.4085 -0.1401 0.9357 0.1291 1.859 0.3365 2.76 0.62Z" stroke-width="1"></path>
  <path fill="#ffffff" d="M88 187.42c-1.42 0.83 -1.73 1 -1.84 0.57 -0.23 -0.94 -20.47 -94.09 -20.49 -94.19 -0.09 -0.31 0.24 -0.25 0.94 -0.31 0.32 -0.08 22 93.57 21.39 93.93Z" stroke-width="1"></path>
  <path fill="#ffffff" d="M87.73 46.22c-0.06 0.62 -2.8 0 -3.3 -0.14 -0.0971 -0.0152 -0.19 -0.0504 -0.2728 -0.1033 -0.0828 -0.053 -0.1537 -0.1226 -0.2082 -0.2043 -0.0546 -0.0818 -0.0915 -0.174 -0.1085 -0.2708 -0.0171 -0.0968 -0.0138 -0.1961 0.0095 -0.2916 0.09 -0.39 0.92 -0.57 1.24 -0.53 0.32 0.04 0.26 0.42 0.6 0.65 0.59 0.4 2.13 -0.05 2.04 0.89Z" stroke-width="1"></path>
  <path fill="#c1e1fd" d="M89 58.63c-1.44 0.79 -1.12 -0.16 -1.27 -1.68 -0.62 -6.57 -1.22 -6.5 -0.44 -6.5s0.19 -0.18 0.87 3.21c0.89 4.7 1.58 4.55 0.84 4.97Zm-4.71 -28.09c0.41 -0.75 -0.66 -0.7 -1.21 -0.51 -0.55 0.19 0 0.74 0.12 0.92 0.8 2 2 11.68 2.61 13.75 0.09 0.3 0.2 0.32 0.27 0.34 0.23 0.07 0.49 0.07 0.57 0 0.08 -0.07 0 -0.44 -0.1 -0.8 -0.24 -1.08 -2.75 -12.8 -2.26 -13.7Z" stroke-width="1"></path>
  <path fill="#ffffff" d="M85.48 148.54c1.08 4.14 1.08 3.86 0.75 3.77 -1.6 -0.43 -0.63 1.06 -5 -15.83 -0.09 -0.34 -0.15 -0.27 0.87 -0.5 0.27 0.39 -0.17 -1.18 3.38 12.56Z" stroke-width="1"></path>
  <path fill="#ffffff" d="M86.16 51.05c0.25 -0.13 0.19 0.45 0.22 0.8 -0.3885 0.4304 -0.9231 0.7013 -1.5 0.76 -0.23 0 -0.39 -0.34 0 -0.61 0.408 -0.3411 0.8354 -0.6583 1.28 -0.95Z" stroke-width="1"></path>
  <path fill="#ffffff" d="M70.61 119.32c15.13 70.23 15.5 69 14.66 69.1l-0.66 0c-0.61 -0.13 -0.89 -2 -17.44 -80.72 -1.54 -7.29 -3 -13.7 -3 -13.93 0 -0.23 0.3 -0.09 0.56 -0.11 0.26 -0.02 0.03 -1.49 5.88 25.66Z" stroke-width="1"></path>
  <path fill="#ffffff" d="M65.45 91.24C86.84 89.85 85 88.51 85 90.64c0 0.69 -21.29 2.68 -20.94 2.2 1.18 -1.63 1.13 -1.58 1.39 -1.6Z" stroke-width="1"></path>
  <path fill="#ffffff" d="M83.72 22.88c0.4155 2.0525 0.5301 4.1545 0.34 6.24 0 0.41 -0.36 0.33 -0.42 0 -0.35 -1.75 -0.16 -2.26 -0.43 -2.27 -0.0308 0.0003 -0.0607 0.01 -0.0857 0.0279 -0.0251 0.0179 -0.044 0.0431 -0.0543 0.0721 -0.24 0.75 0 0.85 -0.19 1.16 -0.2985 -0.7214 -0.5556 -1.4593 -0.77 -2.21 -0.31 -0.59 -0.49 1.1 0.3 2.71 0.44 0.89 0.36 0.57 0.36 0.82 -0.299 -0.1121 -0.5653 -0.297 -0.7748 -0.538 -0.2096 -0.2409 -0.3557 -0.5303 -0.4252 -0.842 -0.4775 -1.1321 -0.5723 -2.3891 -0.27 -3.58 0.26 -1.26 0.26 -2.23 0.55 -2.52 0.56 1.67 0.14 2.38 0.46 2.39 0.13 0 0.23 -0.3 0.23 -0.68 0 -1.21 -0.52 -2.05 -0.05 -2.79 0.2417 0.3944 0.3888 0.8393 0.43 1.3 0.0493 0.876 0.0493 1.754 0 2.63 0 0.45 0 0.51 0.17 0.61 0.1711 -0.8319 0.2914 -1.6735 0.36 -2.52 0.09 -0.24 0.19 -0.16 0.27 -0.01Z" stroke-width="1"></path>
  <path fill="#ffffff" d="M78.29 134.94c3.9 -0.84 3.39 -1.05 3.74 0.41 -1.13 0.37 0.54 -0.08 -4.62 1.07 -0.28 0.07 -0.22 0 -0.47 -0.95 -0.05 -0.26 0.06 -0.25 1.35 -0.53Z" stroke-width="1"></path>
  <path fill="#ffffff" d="M71 93.31c1.62 4.61 10.87 40 10.13 39.55 -1.32 -0.81 -0.34 2.18 -6 -20.48 -2.88 -11.53 -4.47 -17.32 -4.73 -19.07 -0.02 -0.22 0.46 -0.2 0.6 0Z" stroke-width="1"></path>
  <path fill="#ffffff" d="M81.29 133.66c-0.16 0.11 0.41 0 -4.18 1 -0.35 0.08 -0.35 0.15 -0.55 -0.89 -0.1 -0.58 0.11 -0.22 3.24 -1.07 0.5354 0.256 1.036 0.578 1.49 0.96Z" stroke-width="1"></path>
  <path fill="#ffffff" d="M64.82 90.75c-0.4045 0.6638 -0.8591 1.2956 -1.36 1.89 -0.1 0.1 -15 -50.7 -15.83 -55.48 -0.12 -0.7 -0.31 -0.41 0.92 -1.7 0.09 -0.08 0.18 -0.14 0.27 0 0.24 0.45 0.09 -0.06 2.43 9.1 0.54 2.07 12.2 42.12 13.57 46.19Z" stroke-width="1"></path>
  <path fill="#ffffff" d="M62.35 34.42c0.95 3.3 1.17 3.06 0.54 3 -0.4 -0.06 -0.26 0.07 -1.12 -2.75 -0.15 -0.51 0 -0.49 0.22 -0.49s0.3 0.01 0.36 0.24Z" stroke-width="1"></path>
  <path fill="#ffffff" d="M61.34 35.14c0.2522 0.649 0.4496 1.318 0.59 2 -0.2357 0.0171 -0.4688 -0.0583 -0.65 -0.21 -0.0493 -0.0824 -0.08 -0.1745 -0.09 -0.27 -0.46 -1.62 -0.73 -2.14 -0.22 -2.33 0.14 -0.06 0.23 0.32 0.37 0.81Z" stroke-width="1"></path>
  <path fill="#ffffff" d="M60.38 85.23c0.15 0.28 0.35 1.2 0.63 2.1 -4.75 20.3 -5.89 28 -10.92 49.78 -4.86 21.06 -8 35.79 -8.27 36.53 -0.11 0.3 -0.07 0.24 -1.51 1 -0.38 0.2 -0.72 0.4 -0.75 0.17 0 -1.61 2.52 -11.25 12.85 -56 6.37 -27.66 7.59 -34.28 7.97 -33.58Z" stroke-width="1"></path>
  <path fill="#ffffff" d="M60 83.23c0.0434 0.1221 0.067 0.2504 0.07 0.38 -1 4 -2.93 11.93 -12.67 54.21 -8.93 38.72 -8.25 37.54 -9 37.49 -1.92 -0.11 -1.52 0.51 -0.38 -4.39 21.25 -91.8 20.87 -91.11 21 -90.53 0.13 0.58 0.88 2.61 0.98 2.84Z" stroke-width="1"></path>
  <path fill="#ffffff" d="M53.13 33.05c0.49 2.35 0.65 2.38 0.27 2.33 -0.56 -0.07 -0.49 0 -1 -2.53 -0.07 -0.37 -0.05 -0.39 0.21 -0.33 0.44 0.1 0.44 0.11 0.52 0.53Z" stroke-width="1"></path>
  <path fill="#ffffff" d="M52.34 35.19c-0.14 0 -0.59 -0.12 -0.65 -0.22 -0.1891 -0.6893 -0.3294 -1.391 -0.42 -2.1 0 -0.11 0.12 -0.19 0.22 -0.26 0.35 -0.26 0.3 0.11 0.85 2.58Z" stroke-width="1"></path>
  <path fill="#0a0430" d="M158.79 164.92c0.52 -4.59 -0.76 -5.51 -0.53 -10.43 0.56 -11.86 -0.43 -28.11 0.37 -30.3 0.58 -1.59 0.13 -2.56 -0.31 -4.91 -0.38 -2 6.75 -10.71 4.88 -17.07 -3.36 -11.46 -5.11 -10.38 -4.57 -11.88 0.35 -0.94 -0.52 -1 -0.34 -1.43 0.34 -0.93 -0.61 -1.43 -0.35 -2.06 0.39 -0.94 -0.18 -1.24 0.26 -1.27 1.57 -0.1 2.68 -0.1 3.45 -1.56 0.675 -0.9926 1.024 -2.1702 1 -3.37 -1.28 -13.77 -2 -12.67 -1.42 -12.94 1.93 -0.84 2.11 -0.84 0.91 -6 -0.53 -2.26 -1.26 -3.45 -1.17 -4.68 0.033 -1.4168 -0.197 -2.8275 -0.68 -4.16 -0.259 -0.9032 -0.706 -1.7412 -1.313 -2.4584 -0.607 -0.7171 -1.359 -1.2972 -2.207 -1.7016 -0.28 -0.22 -0.19 -1.68 -2.12 -2.16 -0.29 -0.07 -0.62 -0.06 -0.84 -0.35 -2.2 -2.73 -1.72 -2.43 -1.22 -2.55 1.77 -0.43 1 -2.16 1.85 -1.55 1.5 1.08 2.5 0.11 3.81 -0.78 0.368 -0.4662 0.545 -1.0543 0.497 -1.6461 -0.048 -0.5918 -0.319 -1.1434 -0.757 -1.5439 -0.77 -0.58 -0.69 -0.68 -0.56 -1 0.74 -1.7 0.52 -4 -1.52 -4.94 -0.55 -0.27 0.84 -0.69 0.27 -2.35 -0.16 -0.47 -0.61 -0.87 -0.52 -1.37 0.09 -0.5 1.62 -4.83 -1.77 -7 -1 -0.62 -0.73 -0.77 -1.41 -1.7 -1 -1.44 -1.17 -1.41 -1 -1.67 0.596 -0.859 0.942 -1.8663 1 -2.91 -0.12 -0.78 -1.08 -1 -2.08 -1.24 -0.53 -0.11 0.23 -0.44 0.27 -2 0.04 -1.56 -0.75 -1.66 -1.62 -2 -0.4 -0.18 0.06 -0.43 -0.72 -2.65 -0.171 -0.58398 -0.528 -1.09585 -1.018 -1.45712 -0.489 -0.36127 -1.084 -0.55198 -1.692 -0.54288 -1.29 0.2 -1.74 0.9 -2.43 1.81 -2.08 -2.92 -5.5 -2.54 -6.61 -0.58 -0.13 0.23 -0.23 0.59 -0.46 0.39 -0.969 -0.82812 -2.164 -1.34709 -3.43 -1.49 -4 0 -2.79 2.88 -3.83 2.39 -2.51 -1.19 -3.64 0.71 -3.22 2.42 0 0 0.28 0.51 0 0.39 -1.83 -0.66 -3.72 1.59 -3 2.85 0.53 0.85 0.71 1 0.38 1.06 -1.75 0.25 -2.92 3.51 -1.78 4.76 1.37 1.51 1.77 1.13 2.5 1.49 1.78 0.88 -3.13 2.25 0.08 5.25 1.1 1 -0.26 1.21 -0.59 2.79 -0.29 1.36 0.24 1.7 1 2.37 1.39 1.27 0.64 1.74 0.75 2.67 0 0.43 0.75 0.6 1.08 0 0.5 -0.88 1.13 -2.82 0.12 -3.82 -1.67 -1.65 -0.29 -0.35 0.84 -3.51 0.79 -2.23 -2.78 -2.24 -0.17 -3.92 2.06 -1.32 1.4 -2.25 1.8 -1.9 0.67 0.59 1.34 0.23 1.44 1 0.07 0.5789 0.323 1.1203 0.722 1.5449 0.4 0.4247 0.924 0.7103 1.498 0.8151 0.33 0.13 0.15 0.12 -0.46 2.11 -0.11 0.36 -0.7 0.06 -1.2 0.76 -1 1.36 0.34 2.13 0.32 0.92 0 -0.45 0.66 -1 0.66 -0.5l0 2.15c0.14 3.84 0.77 2.37 0.34 6.4 -0.119 1.8151 0.197 3.6323 0.923 5.3004 0.725 1.668 1.838 3.1387 3.247 4.2896 1.69 1.43 3.63 1.14 5.65 0.23 0.85 -0.39 1.11 0.15 1.63 1.2 0.32 0.64 -0.31 -0.19 -3.6 0.59 -4.45 1.09 -5.35 0.05 -8.83 0.67 -0.65 0.12 -0.19 0.68 -0.75 0.67 -1.638 -0.01 -3.275 0.0902 -4.9 0.3 -4.47 0.81 -6.79 -1.8 -21.85 -0.55 -6.21 0.51 -8.85 0.63 -10 0.15 -0.2049 -0.0629 -0.3931 -0.171 -0.5506 -0.3164 -0.1576 -0.1454 -0.2804 -0.3243 -0.3594 -0.5236 -0.38 -0.94 -0.21 -2.44 -1.89 -4.21 -0.515 -0.5155 -0.9681 -1.0894 -1.35 -1.71 -0.3419 -0.5466 -0.6204 -1.1303 -0.83 -1.74 -0.28 -0.59 -1.28 -0.21 -1.26 0.47 0.0638 0.8467 0.3203 1.6676 0.75 2.4 0.6 1.2 0.73 1.46 0.28 1.39 -1.52 -0.23 -1.11 0.41 -2 -3.36 0 0 -2 -9.74 -1.62 -10.42 0.67 -1.27 -0.22 -0.93 -0.17 -1.53 0 -0.41 0.14 -1 0.14 -1.5 0 -1.37 -0.17 -4.91 -0.92 -6.05 -0.19 -0.31 -0.14 0.09 -0.37 0.51 -0.2032 -0.9462 -0.5399 -1.8586 -1 -2.71 -0.15 -0.21 -0.67 -0.56 -0.48 0 0.1248 0.4039 0.1248 0.8361 0 1.24 -0.16 -0.2 -1.1 -1.62 -1.42 -1.4 -0.08 0 -0.06 0.19 0 0.36 0.4326 0.5038 0.6858 1.1369 0.72 1.8 0 1.77 -0.75 3 -0.67 4.52 0.06 1.31 0.52 3.05 1.58 3.81 0.21 0.15 -0.14 0.77 0.34 1.27 0.07 0.07 0.19 0.05 0.28 0.29 0.75 2.16 2.33 12.17 2.35 12.72 0 0.17 -0.6 0 -1.42 0.51 -0.1309 0.0907 -0.2401 0.2091 -0.3198 0.3469 -0.0797 0.1378 -0.128 0.2915 -0.1414 0.4501 -0.0133 0.1586 0.0085 0.3183 0.064 0.4674 0.0556 0.1492 0.1434 0.2843 0.2572 0.3956 0.26 0.23 0.26 0.23 0.12 0.55 -0.36 0.79 0 1.46 0.53 1.6 0.53 0.14 -0.32 0.64 0.12 1.22 1 1.25 2.52 0.19 0.86 1.57 -0.29 0.24 -0.59 0.44 -0.87 0.69 -0.0777 0.0648 -0.1402 0.1458 -0.1831 0.2374 -0.0429 0.0916 -0.0651 0.1915 -0.0651 0.2926 0 0.1011 0.0222 0.201 0.0651 0.2926 0.0429 0.0916 0.1054 0.1726 0.1831 0.2374 0.42 0.27 0.79 0.16 1.85 -0.29 0.36 -0.15 0.35 -0.21 0.57 1.55 0.2 1.51 0.33 3 0.38 4.55 0.07 1.13 1.57 1 2.56 0.17 0.78 -0.64 -2.21 -7.13 -0.95 -6.63 1.0308 0.2233 2.0772 0.3671 3.13 0.43 4.43 0.86 18.93 5.79 37.86 4.19 1.08 -0.09 -0.11 2.2 1.76 2.09 0.721 -0.0797 1.449 -0.0797 2.17 0 0.783 -0.1076 1.577 -0.1076 2.36 0 1.21 0.33 1.75 -0.13 1.58 0.26 -0.418 1.0613 -0.962 2.0685 -1.62 3 -2.47 3.8 1 11.47 -0.17 10.19 -3.13 -3.52 -0.45 -1.89 -5.76 -4.12 -1.35 -0.56 -1.71 1.41 1.08 2.65 0.59 0.26 1.41 1.13 0.88 1.49 -0.53 0.36 -0.49 -0.45 -2.14 -1.48 -5.36 -3.33 -21.94 -3.56 -24.13 -0.06 -0.356 0.4793 -0.554 1.0581 -0.565 1.6554 -0.01 0.5972 0.166 1.1828 0.505 1.6746 2.46 2.91 16.64 3.26 20.37 3.13 1.64 -0.06 1.4 0.36 2 0.62 0.75 0.34 0.17 0.86 1 1.21 1.79 0.85 2.89 1.18 4.67 0.6 4.14 -1.35 1.89 -2.35 3.46 3 0.58 2 -0.33 3.37 0.29 4.51 0.3 0.56 0.68 0.69 0.42 0.82 -0.286 0.0999 -0.529 0.2937 -0.691 0.5497 -0.162 0.2561 -0.232 0.5593 -0.199 0.8603 0.27 3.08 -5.17 13 -7.37 20.79 -0.74 2.63 -6.54 18 -7.24 22.31 -0.84 5.2 -2.76 8.3 -2.66 12.78 0 1 1.11 0.56 1 1 -0.57 2.51 -0.54 3.29 -1.31 6.36 -0.494 1.61 -0.829 3.265 -1 4.94 -0.35 2.92 -2.28 7.55 -2.78 12 -0.22 2.08 -0.8 2.17 -1.06 3.9 -0.47 2.94 0.09 2.77 3.62 3.88 0.64 0.2 0.69 0.27 0.63 0.45 -1 2.83 -1.21 4.16 -1.84 4 -1 -0.28 -2.38 0.78 -2.07 0.18 0.84 -1.55 0.25 -3 -0.71 -2.29 -0.6 0.43 -0.45 1.09 -0.74 1.53 -0.82 -0.67 -1.13 -1.45 -2.58 -1.5 -0.82 0 -1 0.74 -0.61 1.47 0.59 1.23 3.85 1.35 2.9 1.81 -4.91 2.4 -1.19 -0.08 -5.61 2.09s-3.42 1.59 -3.75 3.2c-1 4.67 11 2.76 14.25 2.79 1.714 0.296 3.452 0.426 5.19 0.39 2.94 0.07 4.11 -0.08 3.38 -1.91 -0.12 -0.85 0.22 -3.9 -0.92 -6.85 -0.42 -1.1 -1.06 -0.53 -0.86 -1.13 0.69 -2.08 0.6 -2.05 1 -2 1 0 2.51 -0.21 3.07 -1.07 0.26 -0.4 0.09 -0.63 0 -1.43 -0.28 -1.86 2.27 -6.65 4.55 -11.52 1.88 -4 3.64 -9.57 4.3 -10.2 0.25 0.35 0.05 -0.13 0.31 1.31 0.91 5.16 0.91 5.46 1.59 7.52 5.14 15.74 5.54 13.76 4.18 15.08 -0.73 0.72 0.16 2.17 1.13 2.36 3.16 0.63 3.2 0.24 3.14 0.82 -0.32 2.93 -0.38 2.66 -0.83 2.48 -0.83 -0.33 -1.32 -0.08 -2.45 0.39 0 -0.16 0.87 -1.75 0.48 -2.72 -0.048 -0.132 -0.137 -0.246 -0.254 -0.325 -0.117 -0.079 -0.255 -0.119 -0.396 -0.115 -0.92 0 -1 1.29 -1.25 2.09 -0.634 -0.807 -1.541 -1.355 -2.55 -1.54 -0.74 -0.06 -1.25 0.43 -0.74 1.57 0.51 1.14 2.52 1.1 3.18 1.66 -0.21 0.23 -2.64 1.53 -3.34 1.32 -0.52 -0.16 -5.9 2.61 -6.12 2.81 -0.59 0.54 -0.13 0.54 -0.41 1.54 -0.5 1.65 1.64 2.89 3.34 3.18 5.14 0.9 8.54 -1 13.27 0 1.824 0.264 3.672 0.324 5.51 0.18 2.14 -0.09 1.86 -1 1.58 -1.75 -0.118 -0.219 -0.183 -0.462 -0.19 -0.71 0.168 -2.384 -0.198 -4.775 -1.07 -7 -0.32 -0.64 -0.68 -0.15 -0.7 -0.8 -0.06 -3.8 -0.73 -2 3.46 -3.28 1.94 -0.85 -0.81 -7.59 0.23 -16.67Zm-47.49 16.49c-0.48 -0.17 -1 -1.13 -0.23 -1.15 0.893 0.281 1.642 0.898 2.09 1.72 -0.16 0.02 0.14 0.14 -1.86 -0.57Zm29.87 3c-0.49 -0.18 -1 -1.14 -0.23 -1.18 0.05 0 2 0.81 2.15 1.79 -0.17 -0.02 0.13 0.12 -1.92 -0.61Zm19.05 -127.53c-0.16 1.84 0.87 2.92 1.25 5.5 0.47 3.23 1 3.29 0.46 3.44 -7.68 2.1 -8.45 2 -10.25 2.78 -0.08 0 -0.39 0.18 -0.38 0 0.07 -1.33 -0.58 -2.37 0 -3.92 0.37 -1 1.63 -4.44 0.42 -3.66 0 0 -0.87 2.94 -1.09 3.27 -0.184 -0.5085 -0.256 -1.051 -0.21 -1.59 0.17 -2.14 -0.3 -2.47 -0.6 -4.12 -0.15 -0.8 0.46 -3.13 0 -3.13 -0.21 0 -0.32 0 -0.36 0.25 -0.78 5.22 0.34 3.11 0.2 7.06 -0.013 0.9033 0.126 1.8024 0.41 2.66 0.22 0.23 0.28 0.42 0.38 1.72 0.4 5.34 0.3 -1.6 1.74 7.92 0 0.28 0.08 0.45 -0.2 0.41 -8.67 -1.16 -5.18 1.21 -7 -6.23 -0.56 -2.24 0.29 -3 1.67 -7 1.27 -3.74 2.83 -9.8 6.14 -12.07 4.11 -2.88 7.75 2.29 7.42 6.71ZM131.53 23c-1.31 -1.09 -0.42 -2.29 -1.83 -2.46 -0.213 -0.0445 -0.413 -0.134 -0.588 -0.2625s-0.321 -0.2931 -0.427 -0.4826c-0.106 -0.1896 -0.171 -0.3996 -0.189 -0.6161 -0.018 -0.2165 0.011 -0.4343 0.084 -0.6388 0.18 -0.73 -0.32 -0.8 -0.46 -0.45 -0.22 0.52 -0.17 0.77 -0.48 0.6 -1.17 -0.61 -1.93 -0.43 -0.83 -2 0.27 -0.47 0 -0.79 -0.46 -0.35 -0.81 0.8 -1.17 2.09 0 2.6 1.17 0.51 1.83 0.64 1.48 1.68 -0.27 0.83 -1.06 1.14 -2.06 2 -0.276 0.2318 -0.451 0.5624 -0.486 0.9213 -0.036 0.3588 0.071 0.7173 0.296 0.9987 0.7 0.92 1.12 1.15 0.73 2.25 -0.66 1.85 -2.73 1.84 -0.52 3.79 0.69 0.62 0.1 2.33 0 2.34 -0.45 0 0.42 -0.36 -1 -1.92 -0.33 -0.37 -1.69 -1.43 -0.59 -2.83 0.68 -0.88 1 -1.57 0.15 -2.46 -2.28 -2.4 0.12 -2.69 0.39 -4.11 0.42 -2.24 -3.63 -1.33 -3.29 -4.12 0.138 -0.6894 0.488 -1.3186 1 -1.8 0.34 -0.2812 0.753 -0.4614 1.19 -0.52 2.11 -0.61 -0.82 -1.48 -0.31 -2.68 0.107 -0.254 0.266 -0.4831 0.465 -0.6729 0.2 -0.1898 0.437 -0.3363 0.696 -0.4302 0.26 -0.0939 0.535 -0.1332 0.811 -0.1155 0.275 0.0178 0.543 0.0922 0.788 0.2186 0.69 0.59 1.64 0.56 0.56 -1 -0.71 -1.06 0.21 -2.39 0.86 -2.22 0.555 0.1109 1.088 0.3101 1.58 0.59 0.69 0.45 0.91 0.85 1.12 -0.06 -0.135 -0.35093 -0.152 -0.73653 -0.047 -1.09775s0.325 -0.67815 0.627 -0.90225c2.16 -1.59 4.93 0.93 5.15 1.08 1.51 1 0.49 -1.85 3 -2.07 0.777 -0.09833 1.564 0.05564 2.247 0.43917 0.682 0.38353 1.223 0.97631 1.543 1.69083 0.3 0.71 -0.51 0.33 -0.74 1.49 -0.12 0.57 0.47 0.56 0.59 0.22 0.26 -0.74 0.93 -0.82 1.55 -1 0.62 -0.18 0.86 1 1.34 0.61 0.071 -0.04526 0.122 -0.11693 0.141 -0.19938 0.018 -0.08244 0.004 -0.16894 -0.041 -0.24062 -0.65 -0.78 -0.47 -0.85 -1.56 -0.88 -0.13 0 -0.13 -0.06 -0.1 -0.17 0.043 -0.28699 0.147 -0.56126 0.307 -0.80378 0.159 -0.24251 0.369 -0.44747 0.615 -0.60065 0.247 -0.15317 0.524 -0.2509 0.812 -0.2864 0.288 -0.0355 0.58 -0.00792 0.856 0.08083 0.82 0.37 1.69 1.77 1.82 4.07 0.07 1.35 2.7 -0.09 1.43 3.3 -0.51 1.38 -0.35 1 1.34 1.51 0.52 0.15 1 0.32 0.1 2.17 -0.54 1.07 -0.9 0.34 -2.84 -0.42 -0.85 -0.33 -0.75 0.73 -1.44 1.65 -0.119 0.1556 -0.277 0.2775 -0.458 0.3537 -0.18 0.0762 -0.378 0.104 -0.572 0.0808 -0.195 -0.0232 -0.381 -0.0966 -0.538 -0.2132 -0.158 -0.1165 -0.283 -0.272 -0.362 -0.4513 -0.17 -0.51 -0.46 -1.05 -1 -1 -0.39 0 -0.55 0.58 -0.09 0.66 0.66 0.11 0.34 1 1.06 1.37 1.46 0.71 2.18 0.61 3.14 -1.46 0.15 -0.33 0.38 -0.09 1.13 0.33 4 2.25 1.69 2.36 4.32 4.25 0.569 0.4746 1.028 1.0676 1.344 1.7378 0.316 0.6702 0.482 1.4012 0.486 2.1422 -0.043 0.604 -0.167 1.1995 -0.37 1.77 -0.41 1.43 0.45 1.72 0.52 2.57 0.07 0.85 -0.45 0.94 -1.29 1.79 -0.54 0.55 -0.3 1.08 0.17 0.87 0.32 -0.14 0.48 -0.63 1 -0.37 0.365 0.1878 0.687 0.4484 0.947 0.7658 0.26 0.3173 0.453 0.6846 0.565 1.0792 0.113 0.3946 0.143 0.8081 0.089 1.2149 -0.053 0.4067 -0.19 0.7982 -0.401 1.1501 -0.111 0.1782 -0.159 0.3889 -0.136 0.5977 0.024 0.2088 0.118 0.4035 0.266 0.5523 1.62 1.2 1.41 2.17 0.63 2.69 -0.78 0.52 -1.47 1.28 -2.38 0.59 -2.25 -1.69 -1.14 2.06 -3.34 1.41 -0.436 -0.6037 -0.82 -1.2426 -1.15 -1.91 -2.19 -4.15 0.06 -3 1.22 -7.07 0.84 -3 -2.93 -4.42 -4.52 -2.66 -0.75 0.83 -4.54 -1.22 -4.71 -5.11 -0.07 -1.62 -1.64 -1.93 -1.58 -4.31 0 -1.4 0.89 -0.83 1.28 -2.45 0.16 -0.68 -0.64 -1.29 0.31 -1.74 0.45 -0.21 0.34 -0.77 -0.2 -0.69 -0.73 0.11 -1.1 0.88 -0.78 1.87 0.32 0.99 -0.71 1.67 -1.57 1.81 -1.15 0.19 -1.19 1.34 -1.36 2.2 -0.1 0.52 -0.09 0.91 -0.73 1.1 -0.304 0.1755 -0.649 0.2679 -1 0.2679s-0.696 -0.0924 -1 -0.2679c-0.43 -0.17 -0.54 -0.69 -0.68 -1.15 -0.074 -0.1563 -0.188 -0.2905 -0.33 -0.3896 -0.142 -0.0991 -0.307 -0.1597 -0.48 -0.1759 -0.172 -0.0161 -0.345 0.0128 -0.503 0.0839 -0.158 0.071 -0.295 0.1819 -0.397 0.3216 -0.17 0.23 -0.75 1.36 -1.93 0.36Zm3.77 20.77c-1.627 -1.8133 -2.587 -4.1274 -2.72 -6.56 0 -2.37 0.26 -2.6 0.08 -4.16 -0.435 -1.7818 -0.587 -3.621 -0.45 -5.45 0 -0.44 0.23 -0.2 0.35 0 0.25 0.38 0.51 1.23 0.89 1.08 0.38 -0.15 0.06 -1.32 -0.74 -2 -0.63 -0.51 1.38 -4.41 1.79 -3.6 0.18 0.35 0.12 1 1 1.39 0.356 0.1977 0.75 0.3162 1.155 0.3473 0.406 0.0311 0.813 -0.026 1.195 -0.1673 1.33 -0.19 1.53 -1.36 1.74 -2.77 0.05 -0.38 0.65 -0.84 0.7 -0.2 -0.129 1.1075 0.176 2.2219 0.85 3.11 1 1.34 0.64 6.57 5.35 7.13 0.37 0 0.13 0.23 0.14 0.34 0.01 0.11 0 0.34 0.08 0.39 0.08 0.05 0.63 -0.7 1.14 -1.08 0.26 -0.2071 0.565 -0.3489 0.891 -0.4137 0.326 -0.0647 0.663 -0.0505 0.982 0.0416 0.319 0.092 0.612 0.2592 0.853 0.4875 0.241 0.2282 0.424 0.511 0.534 0.8246 0.29 0.81 0.11 1.59 -0.78 2.84 -0.61 0.84 -0.52 1.14 -1.13 1.62 -0.126 0.0998 -0.271 0.1731 -0.427 0.2157 -0.155 0.0425 -0.317 0.0534 -0.477 0.0319 -0.159 -0.0214 -0.313 -0.0748 -0.451 -0.1568 -0.139 -0.0821 -0.26 -0.1912 -0.355 -0.3208 -0.24 -0.22 0 -0.8 -0.47 -0.86 -0.47 -0.06 -0.6 1.06 0 1.55 1.27 1 1.66 0.17 1.84 0.93 0.627 2.3015 1.642 4.4793 3 6.44 2 2.77 1.58 1.07 -0.54 3.23s-3.88 5.56 -6.21 6.66c-1.34 0.63 -0.27 -3.31 0.25 -4.68 0.73 0.61 0.76 0.06 0.55 -0.32 -2.76 -4.87 -2.16 -2 -0.23 -7.21 0.031 -0.0664 0.035 -0.1424 0.011 -0.2116 -0.025 -0.0691 -0.075 -0.126 -0.141 -0.1584 -1.11 -0.48 -5.36 7.26 -10.25 1.67v-0.01Zm9.95 11.64c0.88 -0.33 1.46 -1.07 1.95 -1.25 -0.388 1.0106 -0.846 1.993 -1.37 2.94 -0.59 1.17 -1.24 2.31 -1.94 3.42 -0.39 0.55 -0.94 0.41 -2.89 0 -2.16 0.35 -1.38 -0.91 3.46 -10 0.9 -1.64 -2.35 6.08 0.79 4.9v-0.01Zm-56.62 -7.35 0.11 0c1.11 1.11 0.83 1 -0.43 0.46 -0.12 -0.01 -0.08 -0.02 0.32 -0.46Zm-1.45 -3.27c0.85 0.14 1.24 0.18 1.26 0.52 -0.0119 0.4927 -0.0587 0.9839 -0.14 1.47 0 0.11 0 0.09 -0.21 0 -0.0207 -0.0042 -0.04 -0.0138 -0.0558 -0.0279 -0.0158 -0.014 -0.0276 -0.032 -0.0342 -0.0521 0.0996 -0.1606 0.1612 -0.3419 0.18 -0.53 -0.006 -0.2144 -0.086 -0.4201 -0.2263 -0.5823 -0.1403 -0.1622 -0.3324 -0.2709 -0.5437 -0.3077 -0.12 0 -0.2 -0.05 -0.24 -0.22 -0.04 -0.17 -0.03 -0.24 0.01 -0.27Zm-4.41 -15.34c-0.299 -0.1121 -0.5653 -0.297 -0.7749 -0.538 -0.2095 -0.2409 -0.3556 -0.5303 -0.4251 -0.842 -0.4775 -1.1321 -0.5723 -2.3891 -0.27 -3.58 0.26 -1.26 0.26 -2.23 0.55 -2.52 0.56 1.67 0.14 2.38 0.46 2.39 0.13 0 0.23 -0.3 0.23 -0.68 0 -1.21 -0.52 -2.05 -0.05 -2.79 0.2416 0.3944 0.3888 0.8393 0.43 1.3 0.0493 0.876 0.0493 1.754 0 2.63 0 0.45 0 0.51 0.17 0.61 0.1711 -0.8319 0.2913 -1.6735 0.36 -2.52 0.05 -0.26 0.15 -0.18 0.23 0 0.4155 2.0525 0.53 4.1545 0.34 6.24 0 0.41 -0.36 0.33 -0.42 0 -0.35 -1.76 -0.16 -2.26 -0.43 -2.27 -0.0308 0.0003 -0.0607 0.01 -0.0858 0.0279 -0.025 0.0179 -0.0439 0.0431 -0.0542 0.0721 -0.24 0.75 0 0.85 -0.19 1.16 -0.2985 -0.7214 -0.5556 -1.4593 -0.77 -2.21 -0.31 -0.59 -0.49 1.1 0.3 2.71 0.48 0.88 0.4 0.56 0.4 0.81ZM83.2 31c-0.09 -0.18 -0.76 -0.7 -0.12 -0.92 0.64 -0.22 1.62 -0.24 1.21 0.51 -0.41 0.75 2 12.75 2.26 13.68 0.07 0.36 0.21 0.68 0.1 0.8 -0.11 0.12 -0.34 0.09 -0.57 0 -0.07 0 -0.18 0 -0.27 -0.34 -0.6 -2.12 -1.88 -11.98 -2.61 -13.73Zm0.65 14.26c0.09 -0.39 0.92 -0.57 1.24 -0.53 0.32 0.04 0.26 0.42 0.6 0.65 0.59 0.4 2.13 0 2 0.89 -0.06 0.62 -2.8 0 -3.3 -0.14 -0.0991 -0.0191 -0.1931 -0.0591 -0.2755 -0.1173 -0.0825 -0.0583 -0.1516 -0.1334 -0.2027 -0.2205 -0.0511 -0.0871 -0.083 -0.184 -0.0937 -0.2844 -0.0107 -0.1004 0.0002 -0.2019 0.0319 -0.2978v0.05Zm0.63 2.7c-0.126 -0.0771 -0.2235 -0.1932 -0.2777 -0.3307 -0.0542 -0.1375 -0.0621 -0.2889 -0.0226 -0.4313 0.0396 -0.1424 0.1245 -0.268 0.2418 -0.3579 0.1173 -0.0898 0.2607 -0.139 0.4085 -0.1401 0.9357 0.1291 1.859 0.3365 2.76 0.62 0.07 0 0.5 0.06 0.49 0.37 0.001 0.0965 -0.0271 0.191 -0.0806 0.2713 -0.0535 0.0802 -0.13 0.1425 -0.2194 0.1787 -1.1035 0.1669 -2.2303 0.0884 -3.3 -0.23v0.05Zm0.4 4.7c-0.23 0 -0.39 -0.34 0 -0.61 0.4196 -0.3595 0.8604 -0.6934 1.32 -1 0.25 -0.13 0.19 0.45 0.22 0.8 -0.3985 0.4394 -0.9489 0.711 -1.54 0.76v0.05Zm0 -3.14c-0.26 -0.26 -0.07 -0.64 0.33 -0.69 1 -0.13 3.49 0.2 3.49 0.66s-0.18 0.42 -1.33 0.49c-0.8583 0.1551 -1.7433 -0.0277 -2.47 -0.51l-0.02 0.05ZM89 58.63c-1.44 0.79 -1.12 -0.16 -1.27 -1.68 -0.62 -6.57 -1.22 -6.5 -0.44 -6.5s0.19 -0.18 0.87 3.21c0.89 4.7 1.58 4.55 0.84 4.97Zm41 -2.32c-5.061 0.3618 -10.143 0.335 -15.2 -0.08 -17.65 -1.85 -20.8 -4.16 -24.71 -4.16 -0.5971 0.0254 -1.1864 -0.1429 -1.68 -0.48 -0.1125 -0.3448 -0.1566 -0.7083 -0.13 -1.07 0.12 -0.19 0.9 -0.23 1.2 -0.89 0.07 -0.16 0.74 -0.12 1.28 0.22 0 0 0.53 0.41 0.6 0.26 0.23 -0.4 -0.09 -0.64 -0.51 -0.83 -0.86 -0.38 -0.38 -0.4 -1 -0.92 -1.53 -1.25 -0.67 -2.76 -0.74 -3.87 -0.06 -0.8 -0.78 -1.29 -1.28 -3 -0.12 -0.4 -0.31 -1 0.11 -1.06 0.42 -0.06 0.34 1 1.66 2.7 0.3029 0.4528 0.637 0.8838 1 1.29 1.2 1.68 1.17 3.14 1.48 3.75 1.14 2.29 3.83 1.2 18 0.86 3.22 -0.1871 6.452 -0.0025 9.63 0.55 5.94 0.85 2.29 0.3 8.27 0 2.44 -0.12 2.59 0 2.64 0.28 0.256 1.2853 0.404 2.5899 0.44 3.9 -0.06 2 0.35 2.47 -1.06 2.55Zm7.68 2.14c-9.68 -0.56 -4.68 2.41 -6.41 -8.65 -0.15 -1 -0.14 -1.07 0.15 -1.08 12.1 -0.15 13.44 -2.32 11.85 0.48 -1.2 2.16 -3.92 6.37 -4.49 7.64 -0.57 1.27 -0.61 1.64 -1.14 1.61h0.04Zm-1.81 7.39c0 -2.58 0.18 -1.77 2.52 -6.59 3.05 -6.27 0.08 -0.65 4 -7.45 2 -3.47 1.74 -3.45 2 -3.23 0.5 0.41 0.13 0.46 -3.6 7.66 -1.22 2.35 -2.76 5 -0.11 5 2.08 0 3 1.75 4.9 -2.25 3.57 -7.38 3.47 -7 5.86 -10.13 1.8 -2.38 4.33 -1.76 4.51 -0.3 -6.49 0.34 -7.1 6.35 -11.41 17.45 -1.15 3 1.39 8.88 0.48 8.76 -0.58 -0.07 -8.06 -1.33 -8.2 -1.93 -0.497 -2.3033 -0.828 -4.6393 -0.99 -6.99h0.04ZM130.25 72c-0.38 0.06 -1 -0.33 -2.49 -0.83 -5.4 -1.76 -16.72 -2.59 -21.75 0.46 1.26 -4.19 22.5 -2.83 24.24 0.37Zm-3.76 4.73c-1.85 0 -4.55 0 -7.41 -0.11 -3.687 -0.1544 -7.347 -0.6974 -10.92 -1.62 -1.71 -0.54 -3.22 -1.56 -1.87 -2.75 4.46 -4 23.15 -1.09 23.58 0.4 0.11 0.4 -4.69 -0.09 -5.11 -0.24 -2.76 -0.94 -6.71 -0.59 -5.12 1.12 1 1 3.57 1.61 5 1.59 0.51 0 0.94 0 1.27 0.47 0.14 0.21 0.46 0.3 0.69 0.45 0.4 0.31 0.32 0.71 -0.11 0.71v-0.02Zm-2.24 -2.28c-1.317 -0.0188 -2.608 -0.3623 -3.76 -1 -1.46 -0.9 1.19 -1 1.19 -0.92 0.88 0 0.89 0 0.8 0.36 -0.21 0.9 1.75 1.56 1.77 1.58v-0.02Zm12 3.57c-1.62 0.78 -3.25 1.7 -5.14 1.32 -0.71 -0.15 -2.16 -0.6 -1.89 -0.92 0.27 -0.32 1.47 0.59 1.69 0 0.22 -0.59 -2.09 -0.58 -3.26 -1.45 -0.31 -0.24 -0.06 -0.65 0.29 -0.44 2 1.24 2.58 0.15 1.47 0 -0.728 -0.2439 -1.439 -0.5345 -2.13 -0.87 -3.88 -1.88 2.5 0.29 2.72 -0.13 0.22 -0.42 -0.51 -0.58 -0.9 -0.64 -1.59 -0.26 -1.23 -0.37 -4.12 -0.92 -2 -0.39 -2.25 -1.33 -1.32 -1.14 5.58 1.17 6 0.38 7.77 0.31 0.168 -0.0095 0.335 -0.0295 0.5 -0.06 1.84 -0.35 0.76 -2.24 -0.69 -2.82 -0.43 -0.18 -1.37 -0.74 -1.46 -1.39 1.279 0.3565 2.511 0.8633 3.67 1.51 0.46 0.25 1 1.42 1.73 2.18 2.66 2.88 19.53 3.76 19.76 3.79 1.55 0.21 3 0.79 2.37 -0.17 -0.19 -0.32 -4.39 -0.47 -4.55 -2.16 -0.6 -6.44 -3.42 -3.94 7.08 -6.83 0.38 -0.11 0.64 1.15 0.71 1.56 0.48 2.49 1.32 10.47 1.39 11.57 0.047 1.161 -0.252 2.3098 -0.86 3.3 -2.32 4.54 -17.44 -5.14 -23.27 -5.75 -0.529 -0.0991 -1.075 -0.0542 -1.58 0.13l0.02 0.02Zm20.93 9.15c-1.391 0.6553 -2.87 1.1066 -4.39 1.34 -1.94 0.28 -2.63 -0.09 -3.39 -1.15 -0.76 -1.06 -1.54 -5.11 -1.54 -5.13 0.41 0.07 7.46 2.94 9.07 3.22 0.81 0.16 0.5 0.94 0.23 1.74l0.02 -0.02ZM119 179.63c0.4 -1 -0.17 -0.29 3.86 0.07 1.87 0.17 1.83 0 1.7 0.44 -0.56 1.88 -0.6 2.06 -0.89 2.34 -2.58 2.43 -2.63 2.63 -5.12 0.23 -0.7 -0.64 -0.41 -0.96 0.45 -3.08Zm-4.36 0.55c0.55 0.13 -0.36 2.09 -0.46 1.64 -0.1 -0.45 0.07 -1.72 0.42 -1.64h0.04Zm-3.21 4.32c1.94 -0.92 1.5 -1 2.22 0.44 0.06 0.12 0.14 0.22 0.3 0.18 0.62 -0.2 -0.56 -1.44 -0.22 -1.64 0.34 -0.2 0.5 0.25 1.07 1 0.25 0.33 0.57 0 0.45 -0.26 -0.23 -0.46 -0.68 -1 -0.59 -1.14 0.63 -0.7 1 1.31 1.54 1.14 0.65 -0.22 -0.68 -1.33 -0.47 -1.6 0.075 -0.09 0.168 -0.163 0.273 -0.214 0.105 -0.052 0.22 -0.081 0.337 -0.086 0.324 -0.004 0.645 0.06 0.943 0.188 0.298 0.127 0.566 0.315 0.787 0.552 2.47 2.77 3.1 2.58 5.53 0.31 0.48 -0.45 -0.77 2.3 -0.58 5.79 -5.22 0.14 -3.71 -0.26 -7.15 -0.18 -0.825 0.058 -1.646 0.158 -2.46 0.3 -0.3 -0.66 -0.63 -1.62 -1.12 -2.6 -0.49 -0.98 -1.21 -2.03 -0.9 -2.18h0.04Zm-3.58 1.09c2.11 -1 2.48 -1.09 2.8 -0.73 0.312 0.354 0.559 0.76 0.73 1.2 1.33 2.66 1.21 2.7 1.54 3.3 -2.12 0.28 -4.78 0.46 -7 -0.58 -2.73 -1.2 -1.16 -1.69 1.89 -3.19h0.04Zm18.07 5.13c-5.4 0.44 -3.88 -0.18 -9.44 -0.35 -1.86 -0.06 -9.94 1.9 -12.14 -1.33 -0.006 -0.026 -0.006 -0.054 0 -0.08 0 -0.11 0 -0.25 0.27 -0.14 5.13 2.7 8.31 0.47 12.79 0.77 10.09 0.92 8.37 -0.72 8.74 0.39 0.1 0.46 0.26 0.7 -0.26 0.74h0.04Zm0.09 -3.05c0 1.1 0.31 1.37 -0.24 1.4l-2.16 0.08 0 -1.52c0.011 -1.599 0.351 -3.179 1 -4.64 0.77 -1.55 1.39 2.94 1.39 4.68h0.01Zm11.45 -34.06c-7.67 20.07 -9.8 20.51 -9.08 24.2 0.16 0.8 -0.93 1 -1.93 1.07 -2 0.05 -3.08 -0.61 -9.54 -2.58 -2.38 -0.72 -2.4 0.45 1.3 -14.39 4.51 -18 1.52 -15.66 6 -16.34 3.62 0.29 6.31 1.57 9.48 3.17 3.45 1.75 3.45 1.71 3.52 2.23 0.32 2.03 0.44 2.03 0.21 2.64h0.04Zm-4.88 -6.19c-0.75 -0.3 -4.48 -2.45 -8.32 -2.44 -0.639 0.001 -1.275 0.068 -1.9 0.2 -2.15 0.48 -2 0.38 -2 -0.16 0 -3.28 1.55 -7.16 2.12 -9.29 0.49 -1.81 0.48 -3 0.94 -4.69 2.78 -10 6 -17.75 6.22 -18.42 1.52 -5.23 6.33 -17.23 7.77 -20.62 0.8 -1.87 -0.29 -2.75 0.75 -3.31 0.32 -0.17 0.32 -0.19 3 0.73 1.728 0.5784 3.567 0.7428 5.37 0.48 0.37 0 0.48 -0.42 0 -0.48 -0.83 -0.1 -4.44 0.33 -7.82 -1.8 -1 -0.66 -0.62 -1.28 -0.58 -3 0.16 -6.16 -4.8 -8.3 5.85 -4 3 1.2 3.12 1.23 3.23 1.67 0.86 3.41 1.34 6.87 4 6.88 4.41 0 6.11 -1.75 6.4 -1.12 0.092 0.1626 0.147 0.3437 0.16 0.53 0 0.47 -0.66 0.67 -3.12 1.17 -4.29 0.87 -4.47 0.26 -4 3.92 0.627 6.437 0.147 12.935 -1.42 19.21 -4.51 19.5 -4 28.17 -4.89 38.84 -0.2 2.02 -11.01 -3.97 -11.8 -4.3h0.04Zm12.27 35.85c0.029 0.307 -0.014 0.617 -0.125 0.905 -0.111 0.288 -0.287 0.546 -0.515 0.755 -0.46 -0.71 0.45 -3.11 0.6 -1.66h0.04Zm-2.07 3.67c0.28 -0.12 0.24 -0.11 0.81 1.11 0.19 0.41 0.69 0.18 0.51 -0.24 -0.55 -1.27 -0.61 -1.13 -0.46 -1.22 0.76 -0.44 0.89 1.25 1.48 1.16 0.59 -0.09 -0.72 -1.43 -0.39 -1.67 0.33 -0.24 0.37 -0.17 1.17 1.08 0.29 0.46 0.67 0 0.48 -0.29 -0.69 -1.13 -0.86 -1.12 -0.48 -1.3 1.47 -0.71 2.41 0.81 4 2.21 1.59 1.4 3.69 -1.12 4.13 -1.37 0.1 0.43 -0.89 2.41 -0.79 6.08 -3.37 0.1 -5.77 -0.5 -8.45 -0.15 -0.69 0.09 -1 0.19 -1.26 0.23 -0.19 -0.44 -0.75 -1.39 -0.83 -1.57 -0.112 -0.236 -0.246 -0.46 -0.4 -0.67 -0.36 -0.48 -0.47 -1 -1.09 -2.15 -0.34 -0.5 -0.12 -0.51 1.53 -1.24h0.04Zm5.95 -3.32c0.16 -0.81 0.3 0.09 3.5 -0.55 2.16 -0.44 2.23 -0.76 2.24 -0.32 0 1.41 0.25 2.07 -0.37 2.64 -3.13 2.9 -3 2.74 -5.43 0.37 -0.36 -0.31 -0.32 -0.38 0.02 -2.14h0.04Zm-9.17 4.3c0.4 -0.2 0.56 -0.17 0.86 0.18 0.5 0.58 1.16 2.42 1.74 3.16 0.09 0.12 0.48 0.81 0.77 1.38 -1.268 0.148 -2.544 0.208 -3.82 0.18 -1.232 0.034 -2.452 -0.241 -3.55 -0.8 -3.1 -1.42 -0.71 -1.89 3.96 -4.1h0.04Zm17.15 5.75c0 0.56 0.16 0.44 -2.89 0.64 -11.74 -0.68 -4.42 -0.61 -10.74 -0.15 -1.8 0.14 -5.75 0.64 -8 -0.69 -0.79 -0.46 -1 -0.76 -1.07 -1.09v-0.23c0 -0.35 0.18 -0.1 1.93 0.71 2.06 1 7 0.62 8.9 0.06 0.72 -0.24 9.19 0.6 11.31 0 0.21 -0.09 0.56 0.14 0.52 0.75h0.04Zm-0.44 -4.2c0.129 0.828 0.206 1.663 0.23 2.5 0 0.33 -0.13 0.38 -0.32 0.36 0 0 -1.09 0.09 -2.37 0.14 -0.052 -1.863 0.173 -3.724 0.67 -5.52 0.52 -1.79 1.2 -2.07 1.75 2.52h0.04Zm2 -8.67c-0.829 0.246 -1.679 0.414 -2.54 0.5 -5 0.54 -3.53 0.74 -10.36 -0.36 -0.68 -0.11 -1.35 -1 -0.92 -1.34 1 -0.89 1.13 -1 0.75 -2.09 -1.84 -5.38 -4.85 -11.49 -6.26 -21.36 -0.51 -3.5 -0.58 -3.74 -0.78 -4.94 -0.06 -0.35 0 -0.19 1 0.21 5.86 2.26 5.72 1.75 6.08 -1.78 0.45 -4.5 0.29 -7 0.37 -7 0 -16.79 6.93 -35.47 5.93 -47 -0.46 -5.15 -1.2 -4.55 1.81 -5.06 1.357 -0.1985 2.695 -0.5096 4 -0.93 0.32 -0.13 1 0.11 0.68 0.56 -0.83 1.08 -4 1.77 -2.57 2.2 0 0 0.09 -0.05 0.15 -0.07 2.57 -1.31 2.27 -1.25 2.46 -0.92 1.92 3.35 5.19 10.79 4.79 13.81 -0.48 3.65 -4.11 11.31 -4.79 12 -0.25 -0.55 0.15 -2.57 -0.27 -2.6 -1 -0.09 0.41 7.19 0.51 7.91 0.1 0.72 -1.13 3 -0.52 8.38 0.23 2.07 0 22.17 -0.16 24.44 -0.27 3.47 0.88 4.09 0.62 7.79 -0.2 2.85 -0.86 4.52 -0.13 11.12s0.76 6.32 0.08 6.53h0.07Z" stroke-width="1"></path>
  <path fill="#0a0430" d="M65.34 50.86c-0.0255 -0.0461 -0.0654 -0.0826 -0.1137 -0.1038 -0.0483 -0.0211 -0.1022 -0.0258 -0.1533 -0.0133 -0.0512 0.0125 -0.0969 0.0415 -0.13 0.0826 -0.033 0.041 -0.0517 0.0918 -0.053 0.1445 0 1.17 0.07 1.42 0.35 1.42 0.28 0 0.28 -1.24 0.1 -1.53Z" stroke-width="1"></path>
  <path fill="#0a0430" d="M66.18 53.17c0.31 -0.23 0.64 -0.8 0.5 -1.05s-0.22 -0.2 -0.55 0.19c-0.48 0.56 -0.34 1.16 0.05 0.86Z" stroke-width="1"></path>
  <path fill="#0a0430" d="M65 56.58c-0.25 0 -0.19 0 -0.55 2 -0.14 0.73 0.43 0.77 1 0.92 0.5025 -0.0918 0.9859 -0.2676 1.43 -0.52 0 0 0.07 -0.13 0.12 -0.18 0.05 -0.05 -0.07 -0.47 -0.31 -0.39 -0.4 0.14 -1 0.54 -1.39 0.44 -0.39 -0.1 -0.34 -0.05 -0.19 -1 0.17 -0.85 0.31 -1.25 -0.11 -1.27Z" stroke-width="1"></path>
  <path fill="#0a0430" d="M61.8 54.62c-0.58 1.5 4.39 2.32 4.16 -0.45 0.29 -0.98 -2.79 -3.03 -4.16 0.45Zm2.09 0.73c-0.59 0 -1.76 -0.26 -1.59 -0.6 1.7 -3.66 5.39 0.56 1.59 0.6Z" stroke-width="1"></path>
  <path fill="#0a0430" d="M62.76 51c0.21 0.46 0.1 -0.1 0.67 1 0 0 0 0.34 0.29 0.32 0.29 -0.02 0.25 -0.37 0.26 -0.43 -0.28 -1.35 -1.45 -1.41 -1.22 -0.89Z" stroke-width="1"></path>
  <path fill="#0a0430" d="M69 63c-0.19 0.37 0.15 0.4 0.55 0.76 2.05 1.83 1.87 3 3.2 5.09 1.89 3 1.17 9.41 2.48 9.3 0.37 0 0 -0.93 -0.21 -2 -0.54 -3.11 -0.52 -3.82 -0.67 -4.57 -0.6 -3.15 -1.11 -2.43 -2.25 -5.29 -0.64 -1.61 -2.76 -3.92 -3.1 -3.29Z" stroke-width="1"></path>
  <path fill="#0a0430" d="M61.8 50c0.52 0.34 0 -0.68 2.17 -1 1.14 -0.19 2.87 1.75 3.39 2.69 0.241 0.5884 0.3764 1.2146 0.4 1.85 0.23 2 0.92 2.22 1 3.57 0.21 2.15 -0.27 2 -0.36 3.52 -0.1 1.85 -3.33 2.8 -5.82 -1.82 -1.61 -3 -1.75 -3.14 -1.84 -3.91 -0.23 -2 0.44 -2.08 0.31 -2.57 -0.27 -1.06 -1.67 1.9 -0.35 4.18 1.83 3.18 2.65 5.75 5.53 6.16 1.42 0.21 2.84 -0.68 2.74 -2 -0.08 -1.07 0.51 -1.37 0.37 -2.61 0.0463 -0.8551 -0.1007 -1.7095 -0.43 -2.5 -1.22 -2.12 0 -3.2 -1.82 -5.16 -0.81 -0.88 -1.87 -2 -3.06 -1.94 -1.75 0.05 -2.53 1.38 -2.23 1.54Z" stroke-width="1"></path>
  <path fill="#0a0430" d="M64.2 47.76c0.26 -0.58 0.31 -1.36 1.08 -1.86 1 -0.67 1.89 0.71 2.28 1.78 0.39 1.07 -0.47 1.44 0.51 1.5 1.45 0.08 2 1.93 1.31 3 -0.74 1.28 1.4 1.34 0.49 3.32 -0.1047 0.196 -0.1366 0.4227 -0.09 0.64 0.09 0.39 0.47 0.65 0.75 1 0.73 0.91 1.41 2.59 0.35 3.09 -0.37 0.16 -0.9 -0.16 -1 0.23 -0.14 0.64 1.52 0.67 1.92 -0.39 0.1648 -0.6621 0.1386 -1.3573 -0.0756 -2.005 -0.2141 -0.6478 -0.6075 -1.2216 -1.1344 -1.655 -0.47 -0.38 -0.26 -0.58 0.07 -1.94 0 -1.11 -1.15 -1.42 -0.76 -2.12 0.85 -1.54 -0.19 -3.62 -1.4 -3.81 -0.7 -0.12 0.27 -0.83 -1.43 -2.87 -1.36 -1.61 -3.5 0.38 -3.18 2 -0.0119 0.0411 -0.007 0.0853 0.0136 0.1228 0.0206 0.0375 0.0553 0.0653 0.0964 0.0772 0.0411 0.0119 0.0853 0.0071 0.1228 -0.0136 0.0375 -0.0206 0.0653 -0.0553 0.0772 -0.0964Z" stroke-width="1"></path>
  <path fill="#0a0430" d="M154 138.29c-0.93 -5.78 -2.24 -8.95 -2.4 -8.93 -0.5 0.06 1.46 5.25 2.36 13.33 0.408 4.78 1.136 9.528 2.18 14.21 0.09 0.36 0.5 0.53 0.52 -0.08 0 -0.44 -1.1 -4.71 -1.58 -9.89 0.02 0 -0.46 -4.7 -1.08 -8.64Z" stroke-width="1"></path>
  <path fill="#0a0430" d="M69.19 67.53c1.63 3 0.4 2.09 2.06 6.19 0.66 1.66 0.42 3.35 1.14 2.39 -0.63 -3.58 -1 -2.8 -1.56 -5.55 -1.09 -5.42 -3.56 -5.27 -4 -6.53 -0.07 -0.22 -0.35 0 -0.35 0.14 0.06 1.3 1.4 0.94 2.71 3.36Z" stroke-width="1"></path>
  <path fill="#0a0430" d="M149.43 145.66c-0.31 0.48 1.45 3.22 4.92 23.12 0.79 4.52 0.84 5.41 1.35 5.15 0.14 -0.07 -4.07 -27.48 -6.27 -28.27Z" stroke-width="1"></path>
  <path fill="#0a0430" d="M153.24 178.16c-2 1 -8.94 0.81 -7.55 1.49 1.372 0.066 2.747 0.012 4.11 -0.16 4.97 -0.49 3.84 -1.49 3.44 -1.33Z" stroke-width="1"></path>
  <path fill="#0a0430" d="M61.64 60.2c-0.19 0.34 -0.69 1.52 -1.65 1 -1.68 -0.93 0.08 -2.9 0 -3 -0.49 -0.76 -1.18 0.92 -1.21 1.74 -0.06 1.88 2.11 3.07 3.38 0.59 0.15 -0.4 -0.16 -0.92 -0.52 -0.33Z" stroke-width="1"></path>
  <path fill="#0a0430" d="M64.4 54.42c0 -0.49 -0.78 -0.58 -0.84 0.06 -0.06 0.64 0.81 0.52 0.84 -0.06Z" stroke-width="1"></path>
  <path fill="#0a0430" d="M68.94 74.87c-0.52 -2.1 -0.56 -1.15 -1 -2.57 -1.09 -3.22 -1.07 -5.19 -1.73 -5 -0.31 0.07 -0.07 0.51 0.24 1.58 0.43 1.52 0.53 3.17 1.59 5s0.37 6.29 3.16 6.24c3.62 -0.08 5.73 -1.68 6.22 0.36 0.75 3.12 -0.2 2.1 -2.24 2.64 -2.0379 0.631 -4.1074 1.155 -6.2 1.57 -3.61 0 -3.09 -3.9 -4.16 -6.86C62 70 62.64 68.16 63 65.86c0.25 -1.68 1.62 -3.36 0.81 -3 -0.57 0.26 -1.31 2.2 -1.36 3.09 -0.18 2.88 -0.71 2 0 5.54 0.84 4.23 0.55 1.51 2.77 10.51 0.49 2 1.71 3 2.3 3.12 1.9 0.38 1.8 0.06 4.2 -0.49 5.93 -1.35 3.41 -1.63 4.51 -0.09 0.1 0.14 -0.14 0.38 -0.26 0.49 -0.49 0.45 -0.32 1.5 0.4 1.42 0.2448 -0.048 0.4855 -0.1149 0.72 -0.2 -0.53 2.58 1 1.75 2.5 0 1.68 -2.06 -0.68 -6 -1.46 -5.77 -0.16 0 -0.18 0 -0.4 -0.73 -0.46 -1.55 -3 -0.62 -6.39 -0.22 -1.78 0.13 -1.79 -2.18 -2.4 -4.66ZM78.09 81c1.25 0.69 1.42 2.48 1.56 3.51 0.14 1.03 -1.52 2.39 -2.11 2.62 0 -0.72 0.31 -1 0.45 -1.37 0.14 -0.37 -0.12 -0.56 -0.45 -0.46 -0.3493 0.1448 -0.6841 0.3222 -1 0.53 -0.13 0 -0.44 -0.06 -0.26 -0.32 0.64 -0.87 1 -0.84 0.45 -1.32 -0.16 -0.15 -0.37 -0.47 -0.34 -0.64 0.03 -0.17 0.28 -0.14 0.76 -0.16 1.39 -0.1 0.85 -1.17 0.94 -2.39Z" stroke-width="1"></path>
  <path fill="#0a0430" d="M61.89 52.33c0.75 0.38 1 0.51 1.17 0.28 0.17 -0.23 -0.07 -0.35 -0.87 -0.76 -0.31 -0.16 -0.67 0.29 -0.3 0.48Z" stroke-width="1"></path>
  <path fill="#0a0430" d="M139.29 30.82c-1.25 0.3 -1.46 1.12 -2.83 1.16 -0.37 0 -0.15 0.49 0.22 0.51 0.37 0.02 2.22 -0.43 3.23 0.17 0.43 0.25 0.81 -0.46 0 -0.75 -0.374 -0.1509 -0.777 -0.2192 -1.18 -0.2v-0.07c1.21 -0.65 2.49 0.23 2.34 -0.61 -0.07 -0.45 -1.32 -0.32 -1.78 -0.21Z" stroke-width="1"></path>
  <path fill="#0a0430" d="M148.21 34.75c0.54 0.38 -0.1 0.62 0.16 1.12 0.11 0.2 0.4 0.14 0.54 -0.25 0.52 -1.49 -0.91 -1.13 -0.74 -2.11 0.13 -0.76 1.12 -1.44 1.65 -0.71 0.21 0.28 0.4 0.43 0.52 0.33 0.39 -0.32 -0.29 -1.29 -1.19 -1.28 -1.15 0 -2.44 1.82 -0.94 2.9Z" stroke-width="1"></path>
  <path fill="#0a0430" d="M140.16 12.69c0.208 -0.0462 0.423 -0.0483 0.632 -0.006 0.209 0.0423 0.406 0.128 0.58 0.2515 0.173 0.1235 0.319 0.2821 0.427 0.4655 0.108 0.1834 0.177 0.3874 0.201 0.599 0.07 0.34 0.14 0.81 0.35 0.92 0.38 0.2 0.44 -0.26 0.54 -0.39 0.293 -0.3504 0.676 -0.6139 1.108 -0.762 0.432 -0.1481 0.896 -0.1751 1.342 -0.078 1.38 0.36 1.08 -0.43 0.66 -0.52 -0.538 -0.1844 -1.114 -0.2288 -1.674 -0.1291 -0.56 0.0997 -1.085 0.3403 -1.526 0.6991 -0.4 0.12 -0.36 -1.64 -2.33 -1.74 -0.64 0 -1.66 0.37 -1.33 0.91 0.23 0.31 0.67 -0.12 1.02 -0.22Z" stroke-width="1"></path>
  <path fill="#0a0430" d="M131.83 13.35c0.31 0.53 0.58 0.27 0.83 -0.23s0.61 0 0.94 0.15c0.93 0.51 1.06 -1.84 1.12 -2.12 0.083 -0.3469 0.3 -0.6468 0.604 -0.8342 0.303 -0.1873 0.669 -0.247 1.016 -0.1658 0.14 0 0.63 0.31 0.69 -0.19 0.06 -0.5 -1.49 -0.58 -2.15 -0.09 -0.94 0.71 -0.82 1.38 -1 2.35 -0.12 0.59 -0.8 -0.45 -1.63 0.22 -0.29 0.23 -0.7 -0.57 -1.49 -0.6 -0.412 -0.0119 -0.817 0.1037 -1.161 0.3311 -0.344 0.2273 -0.609 0.5552 -0.759 0.9389 -0.33 0.68 -0.34 1.29 0.09 1.05 0.43 -0.24 0 -0.69 0.95 -1.4 0.162 -0.1098 0.346 -0.1821 0.539 -0.2116 0.193 -0.0295 0.39 -0.0154 0.577 0.0411 0.187 0.0566 0.359 0.1542 0.503 0.2858 0.144 0.1316 0.257 0.2938 0.331 0.4747Z" stroke-width="1"></path>
  <path fill="#0a0430" d="M135.51 17.05c0.14 -0.75 0.37 -1.66 1.5 -1.46 0.54 0.09 0.61 -0.43 0.22 -0.59 -0.217 -0.0813 -0.45 -0.1146 -0.681 -0.0976 -0.232 0.0169 -0.457 0.0837 -0.66 0.1958s-0.38 0.2668 -0.518 0.4535c-0.138 0.1867 -0.234 0.4011 -0.281 0.6283 -0.16 0.66 -1 -0.8 -2.41 -0.07 -0.481 0.2561 -0.888 0.6316 -1.182 1.0904 -0.295 0.4588 -0.466 0.9855 -0.498 1.5296 0 0.59 0.59 0.67 0.64 0 0.039 -0.4294 0.177 -0.844 0.403 -1.2116 0.225 -0.3677 0.532 -0.6785 0.897 -0.9084 1.25 -0.61 2.34 1.67 2.57 0.44Z" stroke-width="1"></path>
  <path fill="#0a0430" d="M135.08 29.53c1.62 1.15 3.25 -2.6 5.28 -2.36 0.27 0 0.52 0 0.59 -0.29 0.07 -0.29 -1.06 -0.59 -1.51 -0.37 -2.94 1.39 -2.85 2.9 -4.11 2.45 -0.33 -0.11 -0.54 0.37 -0.25 0.57Z" stroke-width="1"></path>
  <path fill="#0a0430" d="M136.07 35.11c-0.09 -0.1 -0.39 -0.07 -0.59 0 -0.91 0.49 -1.64 -0.1 -1.28 -0.63 0.36 -0.53 1 -1 1 -1.88 0 -0.88 -0.43 -0.73 -0.51 -0.18 -0.13 0.95 -0.74 1.3 -1.08 1.8 -0.62 0.91 0.28 1.73 1.39 1.71 0.79 0.07 1.26 -0.6 1.07 -0.82Z" stroke-width="1"></path>
  <path fill="#0a0430" d="M141.06 35.3c-0.058 -0.0623 -0.139 -0.0989 -0.224 -0.1017 -0.086 -0.0028 -0.169 0.0284 -0.231 0.0867s-0.099 0.1391 -0.102 0.2244c-0.003 0.0853 0.029 0.1683 0.087 0.2306 0.23 0.29 -0.25 0.4 -0.94 0.8 -2.67 1.52 -4.88 0.94 -5 1.22 -0.12 0.28 0.58 0.24 1 1.32 0.5 1.29 0.85 2.44 2.17 2.29 2.07 -0.24 2.87 -5.11 3.39 -4.63 0.52 0.48 1.01 -0.63 -0.15 -1.44Zm-3.44 5.36c-0.62 -0.06 -0.63 -0.35 -1.48 -2.22 -0.11 -0.23 0 -0.14 1.62 -0.42 0.766 -0.2059 1.51 -0.4873 2.22 -0.84 -0.69 2.07 -1.05 2.82 -2.36 3.48Z" stroke-width="1"></path>
  <path fill="#0a0430" d="M133.62 31.57c-0.05 -0.38 -0.21 -0.65 -0.49 -0.58 -0.28 0.07 -0.27 0.26 -0.26 0.54 0.01 0.28 0.26 0.71 0.51 0.66 0.25 -0.05 0.29 -0.19 0.24 -0.62Z" stroke-width="1"></path>
  <path fill="#0a0430" d="M143.26 20c-0.54 0 -0.34 1 -0.19 1.37 0.408 1.0273 1.072 1.9329 1.93 2.63 1.09 1.15 0.51 2.19 0.73 3.1 0.38 1.56 1 1.11 0.83 0.64 -0.92 -2 0.75 -2.52 -1.57 -4.78 -2.18 -2.15 -1.07 -2.96 -1.73 -2.96Z" stroke-width="1"></path>
  <path fill="#0a0430" d="M122.28 159.47c-0.19 0.05 -0.27 0.1 -0.25 0.31 1.38 10.65 3.37 13.28 4.42 15.11 0.14 0.27 0.3 0.39 0.6 0.29 0.3 -0.1 -0.25 -0.77 -0.71 -1.59 -3.16 -5.65 -3.44 -13.68 -4.06 -14.12Z" stroke-width="1"></path>
  <path fill="#0a0430" d="M127.35 164.58c-3.45 -7.05 -2.32 -10.45 -3.16 -11 -0.37 0 -0.34 0.31 -0.11 1.87 1.36 9.23 4.48 11.89 4.24 11.05 -0.11 -0.39 -0.49 -0.94 -0.97 -1.92Z" stroke-width="1"></path>
  <path fill="#0a0430" d="M133.71 133.57c-1.77 -10.58 -1.18 -16.75 -1.46 -18.79 -0.05 -0.34 -0.34 -0.41 -0.37 0 -0.175 3.047 -0.175 6.103 0 9.15 2.51 22.51 5 20.87 4.57 20.16 -0.57 -0.86 -1.78 -4.81 -2.74 -10.52Z" stroke-width="1"></path>
  <path fill="#0a0430" d="M57.83 48.13c0.45 0.13 0.59 0.69 0.06 0.89 -0.2478 0.0367 -0.4839 0.1297 -0.6902 0.2719 -0.2063 0.1421 -0.3772 0.3296 -0.4998 0.5481 -0.1423 0.2135 -0.2335 0.457 -0.2665 0.7115s-0.0069 0.5132 0.0763 0.756c0.0832 0.2428 0.2212 0.4631 0.4033 0.6439 0.1822 0.1808 0.4035 0.3172 0.6469 0.3986 0.51 0.09 0.72 0.21 0.21 0.76 -0.3999 0.4505 -0.6801 0.9944 -0.8146 1.5815 -0.1346 0.5872 -0.1193 1.1988 0.0446 1.7785 0.5 0.91 2 1.35 2.63 0.51 0.3 -0.41 0.15 -0.91 -0.41 -0.43 -0.08 0.07 -0.31 0.31 -0.51 0.28 -2 -0.31 -1.24 -2.47 -0.72 -3 1.79 -2 -0.47 -2 -0.69 -2.19 -0.1158 -0.1462 -0.1971 -0.3166 -0.2379 -0.4986s-0.0401 -0.3708 0.0022 -0.5525c0.0423 -0.1816 0.125 -0.3514 0.242 -0.4966 0.117 -0.1453 0.2653 -0.2623 0.4337 -0.3423l0.8 -0.35c0.6 -0.28 0.23 -1.78 -0.8 -1.86 -1.03 -0.08 -1.14 -3 0 -2.78 0.8285 0.0461 1.6235 0.3425 2.28 0.85 0.34 0.33 0.55 0.84 0.87 0.83 0.32 -0.01 0.24 -0.36 0.24 -0.65 0 -0.56 0.51 -1.73 1.22 -1.28 0.93 0.58 0.58 1.72 0.72 2.69 0 0.09 0.13 0.16 0.2 0.24 0.07 -0.08 0.18 -0.15 0.19 -0.23 0.18 -1.49 0.17 -3 -1.31 -3.37 -0.63 -0.16 -0.84 0.05 -1.41 1.23 -0.31 0.63 -0.34 -0.83 -3.22 -0.89 -1.29 0 -1.35 1.95 -0.94 3.16 0.31 0.66 0.84 0.66 1.25 0.79Z" stroke-width="1"></path>
  <path fill="#0a0430" d="M134.26 110.72c-0.41 0.07 0.85 8 1.78 11.06 0.33 1.1 3.22 11 4 9.59 0.27 -0.48 -0.94 -1.1 -3.2 -9 -1.99 -6.9 -1.84 -11.79 -2.58 -11.65Z" stroke-width="1"></path>
  <path fill="#0a0430" d="M153.18 53.68c-0.28 -0.09 -0.38 0 -0.72 0.81 -0.34 0.81 -2.22 4.72 -1.46 4.9 0.36 0.08 0.3 -0.3 0.47 -0.75 1.77 -4.48 2.08 -4.85 1.71 -4.96Z" stroke-width="1"></path>
  <path fill="#0a0430" d="M131.09 75.92c0.16 -0.77 -0.47 -1.19 -0.58 -1.78 -0.025 -0.0439 -0.064 -0.0784 -0.11 -0.0981 -0.046 -0.0198 -0.098 -0.0237 -0.147 -0.0112 -0.049 0.0125 -0.092 0.0408 -0.124 0.0804 -0.031 0.0396 -0.048 0.0884 -0.049 0.1389 -0.14 0.7 0.52 0.87 0.44 1.66 -0.031 0.2021 -0.031 0.4079 0 0.61 0.53 1.14 0.95 2.23 1.41 2 0.31 -0.18 -0.21 -0.79 -0.23 -1 -0.09 -0.72 -0.77 -0.75 -0.61 -1.6Z" stroke-width="1"></path>
  <path fill="#0a0430" d="M149.43 26.86c0 0.51 0 0.63 0.31 0.69 0.419 -0.7803 0.547 -1.6842 0.36 -2.55 -0.22 -1.57 -1.61 -1.92 -2.42 -3.58 -0.16 -0.33 -0.25 -0.78 -0.59 -0.77 -0.34 0.01 -0.21 0.69 -0.13 0.84 1.51 2.71 2.6 1.64 2.47 5.37Z" stroke-width="1"></path>
  <path fill="#0a0430" d="M150.8 39.13c0.082 0.2097 0.209 0.3988 0.373 0.554 0.163 0.1552 0.358 0.2727 0.572 0.3442 0.213 0.0715 0.44 0.0953 0.664 0.0697 0.224 -0.0256 0.439 -0.1 0.631 -0.2179 0.456 -0.2413 0.802 -0.6498 0.964 -1.14 0.162 -0.4902 0.129 -1.0241 -0.094 -1.49 -0.83 -0.79 0 -1.51 -0.07 -2.38 -0.001 -0.0315 -0.009 -0.0625 -0.022 -0.0911s-0.032 -0.0544 -0.055 -0.0757c-0.024 -0.0214 -0.051 -0.038 -0.08 -0.0488 -0.03 -0.0109 -0.061 -0.0157 -0.093 -0.0144 -0.36 0 -0.19 0.58 -0.42 1 -0.59 1 0 1.46 0.21 2 0.18 0.41 0.19 0.9 -0.42 1.56 -0.115 0.1062 -0.251 0.1876 -0.399 0.2393 -0.148 0.0517 -0.305 0.0725 -0.462 0.0613 -0.156 -0.0112 -0.309 -0.0543 -0.448 -0.1267 -0.139 -0.0723 -0.262 -0.1723 -0.361 -0.2939 -0.29 -0.32 -0.5 -0.08 -0.49 0.05Z" stroke-width="1"></path>
  <path fill="#ffffff" d="M53.35 27.06c-0.06 -0.2 0.11 -0.29 0.28 -0.45 0.0047 -0.0062 0.0107 -0.0113 0.0177 -0.0147 0.0069 -0.0035 0.0146 -0.0053 0.0223 -0.0053 0.0078 0 0.0154 0.0018 0.0224 0.0053 0.0069 0.0034 0.013 0.0085 0.0176 0.0147 0.32 0.91 2.41 9 2.43 9.16 -0.1763 0.0125 -0.3533 -0.0113 -0.52 -0.07l-2.27 -8.64Z" stroke-width="1"></path>
  <path fill="#0a0430" d="M105.16 174.58c-0.91 -5.53 -25.15 -82.4 -24.43 -82.46 1.4391 -0.1023 2.8672 -0.323 4.27 -0.66 0.71 -0.13 0.67 -0.55 0.61 -2.16 0 -0.67 -0.6 -0.38 -1.81 -0.28 -0.5 0 -13.7 -44.79 -15.78 -50.15 -0.17 -0.43 -0.3 -0.51 -0.84 -0.62 -3.4 -0.64 -3.16 -0.55 -3.36 -1.24 -0.94 -3.24 -0.83 -3.31 -1.26 -3.3 -0.82 0 -1.46 -0.39 -2.24 0.49 -0.37 0.42 -0.12 0.75 0.25 2.21 0.15 0.6 -0.42 0.22 -1.61 0 -0.53 -0.12 -0.26 0.48 -3.16 -10.15 -0.08 -0.3 0 -0.28 -1.95 -0.37 -0.32 0 -0.64 0.46 -0.8 0.74 -0.16 0.28 2 8.47 2 8.61 0.0202 0.1225 0.0202 0.2475 0 0.37 0 0.09 -0.22 0.05 -0.44 0s-0.35 -0.09 -0.43 -0.45c-0.1294 -0.8892 -0.3679 -1.7591 -0.71 -2.59 -0.0268 -0.0812 -0.0739 -0.1542 -0.137 -0.2119 -0.063 -0.0578 -0.1398 -0.0985 -0.223 -0.1181 -0.4836 -0.1313 -0.9796 -0.2117 -1.48 -0.24 -0.2936 0.0777 -0.5514 0.2543 -0.73 0.5 -0.0663 0.6952 0.012 1.3966 0.23 2.06 0.07 0.37 0 0.34 -1.8 -0.06 -0.71 -0.15 -0.74 0.17 -1.95 1.4 -0.55 0.37 -0.32 1.07 0 2.76 1.9 9.81 11.47 39.54 11.27 40.61 -0.16 0.9 -22 95.16 -22.13 95.71 -0.05 0.23 -0.1 0.49 0.32 0.59 0.7829 0.159 1.5858 0.196 2.38 0.11 0.8454 -0.342 1.6672 -0.739 2.46 -1.19 1.23 -0.65 1.25 -3.5 6.84 -28.37C62.07 85.9 61.06 87.93 61.66 89.3c0.25 0.59 0.64 2.17 1.15 3.89 0.24 0.79 0.73 0.1 0.85 0.76 0 0 2.27 10.68 2.64 12.42 16.25 75.46 16.8 82.14 17.88 82.63 0.6055 0.054 1.2146 0.054 1.82 0 0.224 -0.029 0.4429 -0.09 0.65 -0.18 0.6531 -0.314 1.2845 -0.672 1.89 -1.07 0.13 -0.13 0.07 -0.31 0 -0.76 -0.14 -1.37 -10.59 -46.64 -11.21 -49.65 -0.08 -0.4 -0.24 -0.29 2.78 -0.9 0.59 -0.12 0.39 -0.3 1.36 3.58 3.44 13.73 2.61 12.22 4.9 13 0.68 0.23 1.07 0.13 2.29 -0.47 2.14 -1.05 2.11 1 -2.83 -17.12 -0.11 -0.39 -0.26 -0.24 2.75 -0.77 0.33 0 10.57 35.58 10.58 35.61 1.73 6.14 1 5.56 3.15 5.61 0.486 0.104 0.991 0.078 1.464 -0.077 0.472 -0.154 0.896 -0.431 1.226 -0.803 0.067 -0.045 0.118 -0.109 0.147 -0.185 0.028 -0.075 0.033 -0.157 0.013 -0.235ZM62 34.15c0.19 0 0.3 0 0.36 0.27 1 3.29 1.16 3.06 0.54 3 -0.4 -0.06 -0.26 0.07 -1.12 -2.75 -0.16 -0.54 -0.03 -0.52 0.22 -0.52Zm-1 0.17c0.14 0 0.22 0.34 0.37 0.82 0.2408 0.6528 0.4379 1.321 0.59 2 -0.2346 0.0085 -0.4647 -0.0659 -0.65 -0.21 -0.0493 -0.0824 -0.08 -0.1745 -0.09 -0.27 -0.49 -1.66 -0.76 -2.15 -0.22 -2.34Zm-6.35 -7.84h0.51c0.0558 0.0043 0.1089 0.0259 0.1519 0.0618 0.043 0.0358 0.0738 0.0841 0.0881 0.1382 0.3 1.2 1.91 7.63 2.53 9.27 0.05 0.12 0 0.19 -0.09 0.18 -0.3429 -0.0194 -0.6806 -0.0936 -1 -0.22 -0.41 -0.49 -0.66 -2.25 -2.06 -7.66 -0.51 -1.81 -0.66 -1.78 -0.16 -1.77h0.03Zm-1.27 0.58c-0.06 -0.2 0.11 -0.29 0.28 -0.45 0.0047 -0.0062 0.0107 -0.0113 0.0177 -0.0147 0.0069 -0.0035 0.0145 -0.0053 0.0223 -0.0053s0.0154 0.0018 0.0224 0.0053c0.0069 0.0034 0.013 0.0085 0.0176 0.0147 0.32 0.91 2.41 9 2.43 9.16 -0.1763 0.0125 -0.3533 -0.0113 -0.52 -0.07l-2.27 -8.64Zm-0.72 5.46c0.42 0.1 0.42 0.11 0.5 0.53 0.49 2.35 0.65 2.38 0.27 2.33 -0.56 -0.07 -0.49 0 -1 -2.53 -0.08 -0.37 -0.06 -0.38 0.2 -0.33h0.03Zm-1.36 0.35c0 -0.11 0.12 -0.19 0.22 -0.26 0.35 -0.26 0.3 0.11 0.85 2.58 -0.14 0 -0.59 -0.12 -0.65 -0.22 -0.1992 -0.6885 -0.3496 -1.3903 -0.45 -2.1h0.03Zm3.56 3.36c8.15 1.51 1.79 0.39 8.93 2 3.41 0.75 3.45 0.21 4 1.56 0.31 0.73 14.8 48.26 15.1 49.1 0.12 0.32 0.46 0.52 -6.56 1 -3 0.19 -8 0.72 -10 0.82 -0.71 0 -0.79 0 -1 -0.52C62.93 83.9 49.54 36 49.45 35.55c-0.18 -0.77 0.41 -0.23 5.38 0.68h0.03ZM38.86 175c-0.0254 0.104 -0.0863 0.196 -0.172 0.26 -0.0858 0.063 -0.1912 0.095 -0.298 0.09 -1.92 -0.11 -1.51 0.48 -0.38 -4.39 21.23 -91.74 20.87 -91.12 21 -90.53 0.13 0.59 0.89 2.57 0.99 2.8 0.0434 0.1221 0.067 0.2504 0.07 0.38C57 95.2 39.16 174.16 38.86 175Zm11.23 -37.85c-4.86 21.06 -8 35.79 -8.27 36.53 -0.11 0.3 -0.07 0.24 -1.51 1 -0.38 0.2 -0.72 0.4 -0.75 0.17 0 -1.61 2.52 -11.25 12.85 -56 6.38 -27.66 7.6 -34.25 8 -33.55 0.15 0.28 0.35 1.2 0.63 2.1 -4.78 20.23 -5.92 27.89 -10.95 49.71v0.04Zm13.37 -44.51c-0.1 0.1 -15 -50.7 -15.83 -55.48 -0.12 -0.7 -0.31 -0.41 0.92 -1.7 0.41 -0.42 0.41 0.11 2.7 9.07 0.54 2.1 12.2 42.15 13.57 46.22 -0.4045 0.6638 -0.8591 1.2956 -1.36 1.89Zm0.57 0.2c1.21 -1.63 1.16 -1.58 1.42 -1.6 21.4 -1.31 19.55 -2.73 19.55 -0.6 0 0.69 -21.32 2.68 -21 2.2h0.03ZM87 131.6c0.3459 -0.151 0.7252 -0.209 1.1005 -0.169 0.3753 0.04 0.7336 0.178 1.0395 0.399 0.15 0.08 0 0.18 0 0.19 -4.42 0.87 -3.89 0.92 -4.08 0 0.08 -0.13 -0.32 -0.02 1.94 -0.42ZM74.89 95.52c-0.8 -2.93 -0.88 -2.77 -0.36 -2.84 0.68 -0.09 1.22 -0.14 1.54 -0.16 1.06 -0.06 0.65 0.56 10.43 34.07 1.57 5.39 1.85 4.22 -1.44 4.75 -0.41 0.07 0.32 2.6 -10.17 -35.82Zm13.37 35.05c-1.66 -6 -10.86 -36.9 -11 -37.78 -0.2 -0.41 0.2 -0.34 0.52 -0.42 0.54 -0.12 0.51 0.07 0.64 0.52 1.37 4.55 11.37 38.25 11.36 38.58 -0.51 -0.12 -1.38 -0.4 -1.52 -0.9Zm-8.46 2.13c0.5375 0.268 1.0383 0.604 1.49 1 -0.16 0.11 0.41 0 -4.18 1 -0.35 0.08 -0.35 0.15 -0.55 -0.89 -0.1 -0.62 0.11 -0.26 3.24 -1.11Zm-3.55 -0.3C69.69 102 67 93.73 67.35 93.46c0.06 -0.17 1 -0.19 1.94 -0.25 0.62 0 0.18 -0.78 5.25 19.3 5.39 21.33 5.32 19.69 4.56 19.87 -2.83 0.67 -2.73 0.62 -2.85 0.02Zm4.87 0.46c-1.32 -0.81 -0.34 2.18 -6 -20.48 -2.88 -11.53 -4.47 -17.32 -4.73 -19.07 0 -0.22 0.48 -0.2 0.61 0 0.62 1.8 10.57 39.82 10.12 39.55Zm4.37 55.49c0 0.11 -0.77 0.07 -0.88 0.07 -0.61 -0.13 -0.89 -2 -17.44 -80.72 -1.54 -7.28 -3 -13.7 -3 -13.93 0 -0.23 0.3 -0.09 0.56 -0.11 0.26 -0.02 0 -1.38 5.83 25.66 13 60.14 15.24 68.2 14.93 69.03Zm2.49 -0.93c-1.42 0.83 -1.73 1 -1.84 0.57 -0.22 -0.94 -20.47 -94.09 -20.49 -94.19 -0.09 -0.31 0.24 -0.26 0.94 -0.31 0.34 -0.09 22.02 93.57 21.41 93.93h-0.02Zm-10.57 -51c-0.28 0.07 -0.22 0 -0.47 -0.95 0 -0.26 0.06 -0.25 1.35 -0.53 3.9 -0.84 3.39 -1.05 3.74 0.41 -1.13 0.37 0.54 -0.08 -4.62 1.07Zm8.82 15.89c-1.6 -0.43 -0.63 1.06 -5 -15.83 -0.09 -0.34 -0.15 -0.27 0.87 -0.5 0.28 0.39 -0.16 -1.18 3.39 12.56 1.07 4.14 1.07 3.86 0.74 3.77Zm3.39 -1.2c0.17 0.33 0 0.33 -2.22 1.3 -0.55 0.23 0.76 3.71 -13.37 -50.13 -2.27 -8.64 -2.52 -8.94 -2.33 -9.21 0.19 -0.27 0.75 -0.14 1.6 -0.19 0.47 -0.16 16.1 57.83 16.32 58.23Zm-4.06 -16.86c-0.17 -1.05 -0.51 -0.86 0.68 -1.12 4.54 -1 3.77 -1 4.22 0.37 0.08 0.22 0 0.24 -0.94 0.4 -3.76 0.66 -3.89 0.78 -3.96 0.35Zm16.94 41.08 -1.09 0c-0.55 -0.08 -0.44 -1 -2.94 -9.65 -10.09 -34.92 -9.55 -31.12 -8.2 -31.39 0.52 -0.1 0.32 -0.37 1.32 3 9.25 31.25 11.15 37.05 11.3 37.89 0.02 0.15 -0.32 0.17 -0.39 0.15Zm2.19 -0.78c0.001 0.043 -0.014 0.085 -0.042 0.118 -0.027 0.033 -0.066 0.055 -0.108 0.062 -0.12 0.05 -0.71 0.43 -0.82 0.46 -0.45 0.14 -0.16 0.51 -7.21 -23.31C83.47 107.83 78.79 93 79 92.31c0.24 -0.13 0.3 -0.07 0.67 -0.11 0.14 0 0.29 0 0.39 0.46 0.23 0.7 24.73 81.16 24.63 81.89Z" stroke-width="1"></path>
</svg>