<svg xmlns="http://www.w3.org/2000/svg" viewBox="0 0 200 200" id="Designer-Working-1--Streamline-Barcelona">
  <desc>
    Designer Working 1 Streamline Illustration: https://streamlinehq.com
  </desc>
  <defs></defs>
  <path d="M129.064 92.191q-0.418 -4.848 -0.867 -9.693 -0.582 -6.281 -1.227 -12.557c-0.434 -4.2 -0.892 -8.39 -1.414 -12.576 -0.409 -3.278 -0.831 -6.563 -1.44 -9.811a66.91 66.91 0 0 0 -0.171 -0.871 0.437 0.437 0 0 0 -0.42 -0.319l-1.577 0.038 -4.389 0.111q-3.3 0.086 -6.6 0.177 -4.14 0.114 -8.28 0.237 -4.7 0.14 -9.405 0.29 -5.011 0.162 -10.023 0.34t-9.993 0.379q-4.728 0.191 -9.455 0.414 -4.182 0.2 -8.364 0.442c-2.251 0.134 -4.5 0.281 -6.748 0.467q-0.657 0.055 -1.314 0.116a0.386 0.386 0 0 0 -0.225 0.06l-2.319 1.436a6.664 6.664 0 0 0 -0.831 0.522c-0.233 0.2 -0.172 0.553 -0.16 0.832 0.053 1.227 0.193 2.453 0.331 3.673 0.215 1.9 0.462 3.8 0.717 5.692q0.467 3.468 0.972 6.929 0.558 3.847 1.14 7.69 0.59 3.9 1.2 7.8 0.564 3.635 1.138 7.266 0.489 3.094 0.985 6.187 0.355 2.22 0.715 4.438c0.113 0.7 0.2 1.422 0.344 2.119 0.006 0.03 0.01 0.061 0.015 0.091a0.419 0.419 0 0 0 0.3 0.3l2.807 0.562a0.382 0.382 0 0 0 0.212 0.035l1.766 -0.194 4.813 -0.528 7.218 -0.8 8.921 -0.988 5.015 -0.56a0.393 0.393 0 0 0 -0.025 0.205 67.277 67.277 0 0 0 1.3 7.213l-1.3 0.236 -2.86 0.52c-0.551 0.1 -0.318 0.94 0.231 0.84l7.889 -1.435 12.478 -2.268 2.861 -0.52c0.55 -0.1 0.317 -0.94 -0.232 -0.84l-6.957 1.265q-0.334 -3.33 -0.348 -6.678l2.108 -0.238q4.938 -0.558 9.877 -1.126 4.442 -0.51 8.883 -1.033 3.582 -0.423 7.161 -0.864c1.61 -0.2 3.22 -0.4 4.826 -0.63 0.243 -0.034 0.485 -0.07 0.728 -0.107a0.434 0.434 0 0 0 0.319 -0.42q-0.157 -1.928 -0.326 -3.866zM53.6 49.777c2.682 -0.172 5.366 -0.317 8.051 -0.451q4.619 -0.231 9.241 -0.422 4.954 -0.207 9.912 -0.388 5.016 -0.184 10.032 -0.348 4.82 -0.159 9.641 -0.3 4.3 -0.13 8.605 -0.251 3.529 -0.1 7.061 -0.192 2.484 -0.065 4.967 -0.127c0.675 -0.017 1.386 0.021 2.066 -0.036 0.58 2.911 0.969 5.863 1.348 8.806 0.53 4.125 0.99 8.26 1.425 12.4q0.668 6.348 1.256 12.7 0.4 4.265 0.773 8.529c-1.719 0.109 -3.437 0.244 -5.153 0.386q-3.787 0.317 -7.57 0.673 -4.477 0.417 -8.953 0.86 -4.878 0.48 -9.755 0.979 -4.989 0.509 -9.976 1.03 -4.828 0.5 -9.656 1.016 -4.335 0.46 -8.671 0.926 -3.574 0.384 -7.148 0.772 -2.521 0.273 -5.044 0.549c-0.7 0.077 -1.4 0.152 -2.1 0.23q-0.218 -1.477 -0.429 -2.955 -0.987 -6.863 -1.879 -13.743 -0.925 -7.037 -1.807 -14.079 -0.707 -5.628 -1.4 -11.259l-0.43 -3.54c-0.052 -0.427 -0.062 -0.9 -0.136 -1.34 1.91 -0.17 3.817 -0.302 5.729 -0.425zm-2.122 49.457q-0.908 -5.644 -1.8 -11.294 -1.114 -7.1 -2.184 -14.215a783.021 783.021 0 0 1 -1.872 -13.111c-0.368 -2.776 -0.8 -5.577 -0.917 -8.377 0 -0.088 -0.005 -0.176 -0.007 -0.263l2.317 -1.436q0.213 1.776 0.43 3.55 0.655 5.355 1.327 10.712 0.874 6.979 1.782 13.953 0.918 7.026 1.9 14.042c0.515 3.644 1.039 7.288 1.666 10.915l0.057 0.32 -1.986 -0.4q-0.359 -2.198 -0.713 -4.396zm43.428 8.1 -10.332 1.879a0.41 0.41 0 0 0 -0.011 -0.076 65.1 65.1 0 0 1 -1.27 -6.983 0.449 0.449 0 0 0 -0.146 -0.283l4.181 -0.466q3.647 -0.408 7.292 -0.821 0.021 3.308 0.348 6.6a0.464 0.464 0 0 0 0.035 0.133zm29.933 -11.144q-3.334 0.422 -6.673 0.814 -4.256 0.507 -8.512 1 -4.849 0.561 -9.7 1.11 -5.1 0.579 -10.206 1.152 -5.038 0.564 -10.077 1.125 -4.59 0.511 -9.182 1.019l-7.654 0.844 -5.448 0.6 -2.317 0.253a214.33 214.33 0 0 1 -0.994 -6.131l1.129 -0.124 4.446 -0.485Q63 97 66.344 96.638l8.355 -0.9 9.439 -1q4.99 -0.523 9.984 -1.036 4.929 -0.505 9.861 -1 4.6 -0.458 9.2 -0.9 3.978 -0.376 7.959 -0.724c2.044 -0.177 4.089 -0.346 6.136 -0.486l0.771 -0.049 0.066 0.745q0.139 1.6 0.275 3.2c0.032 0.38 0.023 0.805 0.074 1.2 -1.24 0.202 -2.32 0.336 -3.625 0.501z" fill="#6dd3a8" stroke-width="1"></path>
  <path d="M132.305 114.066q0.357 -1.888 0.783 -3.764l-28.322 -6.859a0.6 0.6 0 0 0 -0.228 -0.01L36.087 113.8a0.592 0.592 0 0 0 -0.087 1.147l41.205 12.809a0.6 0.6 0 0 0 0.314 0.011l55.109 -13.157v-0.021a0.452 0.452 0 0 1 -0.323 -0.523zm-49.312 4.867 -4.77 1.71a0.457 0.457 0 0 1 -0.237 0.675l-1.148 0.426 -8.072 3a0.429 0.429 0 0 1 -0.423 -0.112l-1.088 -1.039 -7.555 -7.232a0.44 0.44 0 0 1 0.192 -0.728l0.763 -0.238 5.242 -1.633a0.38 0.38 0 0 1 0.37 0.063l0.461 0.261a0.41 0.41 0 0 1 0.281 -0.273l1.92 -0.6 1.014 -0.318a0.663 0.663 0 0 1 0.417 -0.033c0.255 0.077 0.5 0.208 0.75 0.31l1.532 0.635 4.287 1.775 6.067 2.514a0.439 0.439 0 0 1 -0.003 0.837z" fill="#aceac7" stroke-width="1"></path>
  <path d="m72.047 114.5 -1.381 -0.572a3.808 3.808 0 0 1 -0.507 -0.184c-0.084 0.029 -0.171 0.052 -0.255 0.078l-1.089 0.341 -1.264 0.4 0.146 0.083 6.387 3.616 3.19 1.807 4.4 -1.577 -1.2 -0.5zm0.419 1.071a0.463 0.463 0 0 1 -0.26 0.2c-0.127 0.042 -0.251 0.09 -0.374 0.141a6.176 6.176 0 0 0 -0.64 0.322 0.436 0.436 0 0 1 -0.64 -0.492 0.453 0.453 0 0 1 0.2 -0.26 6.675 6.675 0 0 1 1.222 -0.551 0.442 0.442 0 0 1 0.536 0.3 0.448 0.448 0 0 1 -0.044 0.335zm2.069 1.018a0.46 0.46 0 0 1 -0.26 0.2l-1.181 0.388a0.442 0.442 0 0 1 -0.536 -0.3 0.45 0.45 0 0 1 0.044 -0.335 0.459 0.459 0 0 1 0.261 -0.2l1.18 -0.388a0.436 0.436 0 0 1 0.492 0.64zm2.229 1.793a0.452 0.452 0 0 1 -0.261 0.2l-0.815 0.223a0.454 0.454 0 0 1 -0.335 -0.043 0.436 0.436 0 0 1 -0.156 -0.6 0.446 0.446 0 0 1 0.26 -0.2l0.815 -0.224a0.45 0.45 0 0 1 0.335 0.044 0.441 0.441 0 0 1 0.2 0.26 0.45 0.45 0 0 1 -0.043 0.335zM67.477 89.8q-0.452 -4.872 -0.9 -9.745l-1.091 -11.756q-0.472 -5.094 -0.946 -10.187c-0.152 -1.641 -0.286 -3.284 -0.457 -4.923l-0.006 -0.067a0.444 0.444 0 0 0 -0.436 -0.436l-9.865 0.434 -1.381 0.06a0.47 0.47 0 0 0 -0.14 0.03 0.348 0.348 0 0 0 -0.295 0.406l0.45 4.145 1.076 9.914 1.3 11.987 1.127 10.389c0.182 1.673 0.353 3.348 0.545 5.019l0.008 0.073c0.023 0.211 0.182 0.467 0.436 0.435l9.209 -1.138 1.308 -0.161c0.217 -0.027 0.46 -0.179 0.436 -0.436l-0.378 -4.043z" fill="#aceac7" stroke-width="1"></path>
  <path d="M134.378 171.656c-0.485 -0.959 -1.539 -2.838 -2.832 -2.8 -2.377 0.065 -4.319 1.745 -6.247 2.919q-3.216 1.95 -6.427 3.907a1.32 1.32 0 0 0 -0.454 0.38c-0.432 0.674 0.921 1.118 2.381 1.4 1.3 0.246 2.68 0.361 2.969 0.386a37.513 37.513 0 0 0 5.084 0.1 17.023 17.023 0 0 0 4.7 -0.618 2.688 2.688 0 0 0 1.187 -0.7c1.139 -1.292 0.305 -3.657 -0.361 -4.974z" stroke-width="1"></path>
  <path d="M92.714 94.763a2.1 2.1 0 0 0 -1.571 2.067 0.469 0.469 0 0 0 0.288 0.41 2.446 2.446 0 0 0 0.389 0.657 1.655 1.655 0 0 0 0.9 0.523 1.993 1.993 0 0 0 1.942 -0.622 1.934 1.934 0 0 0 -1.945 -3.035zm-0.614 1.554c0 -0.007 0 -0.008 0 0zm1.209 1.274zm0.863 -0.735zm0 -0.033a2.66 2.66 0 0 1 -0.051 0.2v0.008a1.1 1.1 0 0 1 -0.059 0.113c-0.013 0.023 -0.035 0.047 -0.046 0.071a3.264 3.264 0 0 1 -0.131 0.132l-0.023 0.019 -0.064 0.044a1.506 1.506 0 0 1 -0.148 0.079l-0.118 0.046c-0.061 0.019 -0.122 0.031 -0.183 0.045h-0.025l-0.08 0.007a1.75 1.75 0 0 1 -0.2 0c-0.024 0 -0.13 -0.025 -0.019 0l-0.1 -0.02a1.527 1.527 0 0 1 -0.162 -0.052l-0.047 -0.021c-0.04 -0.021 -0.077 -0.046 -0.115 -0.069l-0.011 -0.007a0.985 0.985 0 0 1 -0.083 -0.075 1.408 1.408 0 0 1 -0.253 -0.4l-0.015 -0.032 -0.014 -0.038c-0.016 -0.045 -0.033 -0.089 -0.048 -0.134a5.8 5.8 0 0 1 -0.1 -0.315v-0.011l0.025 -0.076v-0.013a1.79 1.79 0 0 1 0.127 -0.226l0.031 -0.044c0.021 -0.026 0.043 -0.052 0.065 -0.076 0.047 -0.051 0.1 -0.095 0.147 -0.143l0.019 -0.018 0.021 -0.014 0.067 -0.046a1.919 1.919 0 0 1 0.196 -0.107l0.064 -0.024c0.038 -0.013 0.077 -0.024 0.116 -0.034s0.065 -0.014 0.1 -0.02h0.247l0.015 0.005c0.047 0.013 0.094 0.022 0.141 0.037l0.029 0.011 0.066 0.03c0.053 0.028 0.1 0.061 0.154 0.093l0.015 0.009 0.011 0.011a1.97 1.97 0 0 1 0.132 0.125c0.021 0.022 0.052 0.061 0.065 0.075a1.943 1.943 0 0 1 0.157 0.263l0.025 0.058 0.033 0.1c0.01 0.031 0.013 0.046 0.019 0.07s0.013 0.081 0.017 0.1a1.143 1.143 0 0 1 0.008 0.143 0.822 0.822 0 0 0 -0.015 0.121z" fill="#6dd3a8" stroke-width="1"></path>
  <path d="m79.9 35.1 -2.72 -1.946c-0.422 -0.3 -0.835 -0.631 -1.273 -0.909a0.97 0.97 0 0 0 -0.583 -0.108h-10a0.365 0.365 0 0 0 -0.171 0h-0.229a0.44 0.44 0 0 0 -0.308 0.743l4.808 4.645 2.276 2.2a0.957 0.957 0 0 0 0.51 0.276l1.631 0.344 3.7 0.778a0.424 0.424 0 0 0 0.41 -0.125 0.452 0.452 0 0 0 0.126 -0.179l2.023 -5.227a0.441 0.441 0 0 0 -0.2 -0.492zm-2.522 5.1 -2.69 -0.567 -1.929 -0.406a2.517 2.517 0 0 0 -0.417 -0.1c-0.2 -0.228 -0.451 -0.43 -0.666 -0.637l-1.3 -1.258 -3.2 -3.091 -0.7 -0.676 6.085 2.192 0.447 0.161a1.1 1.1 0 0 0 1.086 1.1c0.858 0 1.12 -0.538 1.037 -1.084 -0.12 -0.788 -0.96 -1.589 -1.769 -0.816l-5.605 -2.019h7.668a0.162 0.162 0 0 1 -0.027 -0.059 0.145 0.145 0 0 0 0.054 0.059h0.006a0.71 0.71 0 0 0 0.113 0c0.087 -0.016 0.023 0.045 -0.052 0.046 0.068 0.043 0.144 0.084 0.168 0.1l0.653 0.466 2.815 2.011z" fill="#b26ee6" stroke-width="1"></path>
  <path d="M75.454 33.008h-0.027a0.109 0.109 0 0 0 0.094 0.046 0.648 0.648 0 0 1 -0.067 -0.046zm6.772 2.963a0.438 0.438 0 0 0 -0.6 0.156L79.6 40.7l-0.291 0.654a0.45 0.45 0 0 0 0.157 0.6 0.438 0.438 0 0 0 0.595 -0.156l2.033 -4.572 0.29 -0.654a0.448 0.448 0 0 0 -0.158 -0.601z" fill="#b26ee6" stroke-width="1"></path>
  <path d="M75.583 194.586c-0.654 -5.1 -1.35 -10.188 -2.055 -15.278q-1.235 -8.913 -2.512 -17.82 -1.23 -8.6 -2.48 -17.192 -0.969 -6.664 -1.948 -13.327l-0.6 -4.1c-0.094 -0.635 -0.151 -1.291 -0.284 -1.92 -0.005 -0.027 -0.008 -0.054 -0.012 -0.082 -0.082 -0.552 -0.921 -0.317 -0.84 0.232q0.364 2.454 0.724 4.909 0.922 6.267 1.835 12.535 1.229 8.434 2.438 16.873 1.284 8.959 2.537 17.924 0.593 4.252 1.17 8.507c-5.61 -2.119 -11.2 -4.3 -16.777 -6.493q-6.9 -2.714 -13.777 -5.469L40.8 173q0.639 -2.3 1.291 -4.591 1.932 -6.79 3.985 -13.544 2.367 -7.77 4.936 -15.478c1.717 -5.119 3.515 -10.212 5.47 -15.245q0.337 -0.87 0.682 -1.737c0.207 -0.521 -0.635 -0.747 -0.84 -0.232 -1.975 4.972 -3.784 10.01 -5.507 15.074q-2.634 7.74 -5.022 15.561 -2.127 6.918 -4.118 13.878 -1.477 5.143 -2.877 10.305c-0.41 1.509 -0.876 3.019 -1.216 4.546 0 0.02 -0.01 0.04 -0.015 0.059a0.435 0.435 0 0 0 0.839 0.232c0.322 -1.236 0.654 -2.47 0.987 -3.7q0.58 -2.145 1.175 -4.287 3.6 1.448 7.2 2.88 8.259 3.287 16.542 6.511 4.676 1.816 9.366 3.591 0.415 3.077 0.821 6.154 0.1 0.807 0.208 1.612c0.076 0.545 0.948 0.552 0.876 -0.003zm45.145 -20.87c-0.319 -1.025 -0.857 -1.82 -2.012 -1.7 -2.514 0.26 -5.047 1.215 -7.546 1.677 -2.788 0.516 -5.593 0.954 -8.351 1.617a10.367 10.367 0 0 0 -3.467 1.338c-1.011 0.688 -0.593 1.419 0.232 1.792a2.806 2.806 0 0 0 0.425 0.151c6.561 1.762 14.366 2.874 21 0.956 0.631 -0.181 -0.12 -5.313 -0.281 -5.831z" stroke-width="1"></path>
  <path d="M35.431 83.789a4.87 4.87 0 0 0 -2.743 -1.243c-2.329 -0.283 -4.439 1.1 -6.764 0.9a3.839 3.839 0 0 1 -2.6 -1.335 13.173 13.173 0 0 1 -1.916 -4.018 10.99 10.99 0 0 0 -2.307 -3.713 9.809 9.809 0 0 0 -3.642 -2.386 5.653 5.653 0 0 0 -4.38 0.059 3.919 3.919 0 0 0 -2.248 3.23 11.516 11.516 0 0 0 0.686 4.342 17.23 17.23 0 0 0 1.745 3.87 13.931 13.931 0 0 0 6.182 5.551 12.2 12.2 0 0 0 8.3 0.631 20.859 20.859 0 0 0 4.09 -2.042 5.359 5.359 0 0 1 3.9 -0.83 2.574 2.574 0 0 1 1.368 0.877c0.214 0.257 0.43 0.512 0.663 0.751a2.4 2.4 0 0 0 0.916 0.68 0.634 0.634 0 0 0 0.825 -0.477 3.747 3.747 0 0 0 -0.308 -1.851 7.06 7.06 0 0 0 -1.767 -2.996zm96.796 -67.959a4.662 4.662 0 0 0 -2.3 -1.252 6.016 6.016 0 0 0 -5.34 0.952 7.589 7.589 0 0 0 -2.492 5.61c-0.173 2.783 0.721 5.444 1.4 8.106a20.85 20.85 0 0 1 0.494 2.3 2.507 2.507 0 0 1 -0.408 2.029 6.334 6.334 0 0 1 -1.62 1.172 16.175 16.175 0 0 0 -1.673 1.159 7.12 7.12 0 0 0 -2.41 3.2 4.712 4.712 0 0 0 0.215 3.666A2.152 2.152 0 0 0 119.42 44a1.093 1.093 0 0 0 1.189 -0.782 9.145 9.145 0 0 0 0.285 -1.585 3.745 3.745 0 0 1 0.9 -1.7 12.556 12.556 0 0 1 3.469 -2.368 9.3 9.3 0 0 0 3.226 -2.727 7.9 7.9 0 0 0 1.374 -3.78 15.6 15.6 0 0 0 -0.548 -4.372 5.129 5.129 0 0 1 0.427 -3.932c0.689 -1.032 1.628 -1.875 2.34 -2.892a4.754 4.754 0 0 0 0.762 -1.571 2.71 2.71 0 0 0 -0.617 -2.461zM90.6 9.454a19.874 19.874 0 0 0 -6.353 -3.77c-2.272 -0.8 -4.968 -1.1 -7.1 0.245 -1.123 0.709 -2.238 1.9 -2.01 3.331 0.242 1.531 1.993 2.292 3.309 2.674 2.881 0.836 6.35 0.32 8.629 2.649C90.915 18.512 82.84 22.6 86 26.731c0.8 1.044 2.3 1.57 2.776 2.852a4.69 4.69 0 0 1 0.094 2.3 3.17 3.17 0 0 0 0.037 1.928 0.949 0.949 0 0 0 1.5 0.3 4.441 4.441 0 0 0 1.026 -1.988 9.036 9.036 0 0 0 0.163 -4.822 7.953 7.953 0 0 1 -0.374 -2.6 5.34 5.34 0 0 1 0.684 -1.95 19.729 19.729 0 0 0 2 -3.878 9.149 9.149 0 0 0 -1.9 -7.9A11.075 11.075 0 0 0 90.6 9.454z" fill="#fee992" stroke-width="1"></path>
  <path d="M68.772 21.474a3.577 3.577 0 0 0 -3.391 0.883 3.271 3.271 0 0 0 -0.46 3.762 3.429 3.429 0 0 0 3.535 1.905 3.59 3.59 0 0 0 2.811 -3.439 3.148 3.148 0 0 0 -2.495 -3.111zM40.466 94.9a1.945 1.945 0 0 0 -1.4 -0.145A2.4 2.4 0 0 0 37.8 95.8a2.682 2.682 0 0 0 -0.015 2.963 2.373 2.373 0 0 0 1.207 0.9 2.936 2.936 0 0 0 1.709 -0.03 2.08 2.08 0 0 0 1.3 -1 2.3 2.3 0 0 0 0.151 -1.525 3.3 3.3 0 0 0 -1.686 -2.208zm62.423 -75.494a1.939 1.939 0 0 0 -1.4 -0.144 2.389 2.389 0 0 0 -1.262 1.045 2.682 2.682 0 0 0 -0.015 2.963 2.376 2.376 0 0 0 1.207 0.905 2.937 2.937 0 0 0 1.709 -0.031 2.083 2.083 0 0 0 1.3 -1 2.307 2.307 0 0 0 0.151 -1.525 3.307 3.307 0 0 0 -1.69 -2.213zM131.6 44.529a2.482 2.482 0 0 0 -1.259 -1.652 1.517 1.517 0 0 0 -1.1 -0.115 1.841 1.841 0 0 0 -0.974 0.8 2.035 2.035 0 0 0 -0.011 2.238 1.833 1.833 0 0 0 0.935 0.7 2.215 2.215 0 0 0 1.285 -0.021 1.61 1.61 0 0 0 1 -0.77 1.783 1.783 0 0 0 0.124 -1.18z" fill="#fcafb7" stroke-width="1"></path>
  <path d="M128.306 112.644c-1.536 -0.843 -3.151 -1.557 -4.732 -2.307q-2.763 -1.312 -5.536 -2.6a3.184 3.184 0 0 0 -1.152 -0.469 11.75 11.75 0 0 0 -1.332 0.161c-1.484 0.2 -2.965 0.422 -4.445 0.65 -4.248 0.653 -8.488 1.35 -12.728 2.051q-6.432 1.065 -12.858 2.158 -2.266 0.384 -4.532 0.771c-0.73 0.125 -1.473 0.219 -2.2 0.376 -0.033 0.007 -0.066 0.011 -0.1 0.017a0.349 0.349 0 0 0 -0.313 0.369 0.37 0.37 0 0 0 0.209 0.427l3.534 1.82 6.486 3.339 2.468 1.271c0.314 0.161 0.825 0.555 1.2 0.526a4.01 4.01 0 0 0 0.54 -0.111l1.37 -0.3 4.815 -1.04 6.674 -1.443 7.386 -1.6 6.926 -1.5 5.4 -1.167c0.9 -0.194 1.8 -0.368 2.7 -0.583l0.119 -0.026a0.44 0.44 0 0 0 0.101 -0.79z" fill="#6dd3a8" stroke-width="1"></path>
  <path d="m98.63 117.121 -8.153 -4.076 -1.138 -0.569c-0.5 -0.25 -0.941 0.5 -0.439 0.752l8.153 4.076 1.138 0.569c0.5 0.25 0.941 -0.501 0.439 -0.752zm-7.408 -0.912c0.006 0.02 0.005 0.015 0 0zm-2.696 0.074v-0.017a0.343 0.343 0 0 0 0.017 -0.03l-0.017 0.029v-0.011z" stroke-width="1"></path>
  <path d="M90.339 114.9a2.732 2.732 0 0 0 -2.5 0.831 0.911 0.911 0 0 0 -0.075 0.966 1.434 1.434 0 0 0 0.665 0.565 3.819 3.819 0 0 0 1.69 0.378c0.809 -0.024 2.013 -0.362 2 -1.378a0.547 0.547 0 0 0 -0.013 -0.1c-0.123 -0.83 -1.018 -1.185 -1.767 -1.262zm-1.819 1.388v0.01c-0.005 0.017 -0.01 0.023 0 -0.009zm0 -0.01zm0 0zm0 0zm2.679 0.133 -0.011 0.011 -0.005 0.009v-0.008l-0.05 0.052 -0.038 0.034a1.653 1.653 0 0 1 -0.757 0.248 2.92 2.92 0 0 1 -0.418 0.013c-0.044 0 -0.088 -0.006 -0.132 -0.011h-0.049c0.146 0.014 0.016 0 -0.015 0a4.01 4.01 0 0 1 -0.657 -0.16c-0.051 -0.017 -0.1 -0.038 -0.15 -0.055h-0.008c-0.027 -0.014 -0.056 -0.025 -0.083 -0.039a2.025 2.025 0 0 1 -0.13 -0.07l-0.072 -0.046 -0.008 -0.007 0.01 0.011 -0.015 -0.014a0.2 0.2 0 0 1 -0.025 -0.024 0.931 0.931 0 0 0 -0.055 -0.054c0 0.018 0 0.028 0 0v-0.014c-0.006 -0.032 0 -0.018 0 0 -0.01 -0.012 -0.017 -0.022 -0.011 -0.025s0.011 0 0.015 0.011v0.009c0.009 -0.024 0.02 -0.036 0.017 -0.026l0.016 -0.028v-0.006l0.058 -0.065a1.042 1.042 0 0 1 0.33 -0.218 2.636 2.636 0 0 1 0.96 -0.166 2.846 2.846 0 0 1 0.569 0.038 2.48 2.48 0 0 1 0.293 0.078c0.027 0.009 0.053 0.019 0.079 0.03 0.009 0.006 0.09 0.045 0.1 0.05l0.065 0.039c0.014 0.009 0.07 0.055 0.079 0.061a1 1 0 0 1 0.085 0.087l0.025 0.035a0.12 0.12 0 0 1 0.016 0.035l-0.01 -0.038a0.691 0.691 0 0 0 0.025 0.077v0.058l-0.005 0.014c0 0.011 -0.008 0.026 -0.012 0.039l-0.021 0.029c0.01 -0.025 0.012 -0.013 -0.004 0.005zm0.045 -0.089v0.017z" stroke-width="1"></path>
  <path d="M91.185 116.422a0.327 0.327 0 0 1 0.017 -0.031 0.176 0.176 0 0 0 -0.017 0.031zm-2.653 -0.134c0.024 0.026 0.047 0.044 0 0zm0.052 0.053 0.025 0.024h0.005c-0.023 -0.021 -0.032 -0.029 -0.03 -0.024zm-0.052 -0.053 -0.003 -0.002 0.003 0.002z" stroke-width="1"></path>
  <path d="m52.2 107.648 -0.088 -0.915a0.444 0.444 0 0 0 -0.436 -0.435l-1.253 0.028c-0.715 -4.866 -1.371 -9.744 -2.32 -14.571a0.445 0.445 0 0 0 -0.536 -0.3 15.9 15.9 0 0 0 -1.882 0.423 0.951 0.951 0 0 0 -0.676 1.143c0.115 1.075 0.231 2.15 0.341 3.226 0.238 2.319 0.464 4.64 0.7 6.959q0.165 1.61 0.339 3.215l-1.2 0.027 -0.924 0.021a0.417 0.417 0 0 0 -0.269 0.1 0.394 0.394 0 0 0 -0.167 0.337v7.258a0.442 0.442 0 0 0 0.436 0.436h8.129a0.438 0.438 0 0 0 0.436 -0.436l-0.63 -6.516zm-6.187 -13.41 -0.091 -0.841 -0.042 -0.381c-0.007 -0.069 -0.007 -0.319 -0.047 -0.269 0.059 -0.073 0.3 -0.092 0.386 -0.113 0.159 -0.039 0.319 -0.078 0.479 -0.114 0.212 -0.049 0.427 -0.09 0.64 -0.134 0.7 3.614 1.24 7.256 1.769 10.9a6.194 6.194 0 0 0 -2.144 0.328c-0.322 -3.125 -0.619 -6.252 -0.951 -9.376zm1.042 10.254a0.3 0.3 0 0 0 0.043 -0.009 5.9 5.9 0 0 1 1.1 -0.283l0.075 -0.01 0.123 -0.014a5.01 5.01 0 0 1 0.273 -0.02 5.564 5.564 0 0 1 0.563 0q0.158 1.095 0.319 2.189l-2.294 0.052q-0.103 -0.952 -0.203 -1.905zm12.501 -20.967a0.444 0.444 0 0 0 0.536 -0.3q0.483 -1.394 1.053 -2.755a1.754 1.754 0 0 0 0.464 0.036 2.017 2.017 0 0 0 1.062 -3.677 2.242 2.242 0 0 0 -1.331 -0.378 2.046 2.046 0 0 0 -0.859 0.19 0.409 0.409 0 0 0 -0.293 0.05 2.08 2.08 0 0 0 -0.6 2.479 2.236 2.236 0 0 0 0.763 0.957c-0.395 0.945 -0.766 1.9 -1.1 2.866a0.44 0.44 0 0 0 0.305 0.532zm0.747 -5.407 0.005 -0.041a2.03 2.03 0 0 1 0.074 -0.288c0 -0.009 0.026 -0.063 0.031 -0.077a1.119 1.119 0 0 1 0.068 -0.115 0.422 0.422 0 0 0 0.206 0 0.407 0.407 0 0 0 0.262 -0.217h0.012c0.065 -0.018 0.132 -0.033 0.2 -0.045h0.039c0.031 0 0.061 -0.006 0.091 -0.007a2.1 2.1 0 0 1 0.251 0l0.063 0.006 0.069 0.012a1.8 1.8 0 0 1 0.218 0.059 1.333 1.333 0 0 1 0.318 0.165l0.017 0.01 0.02 0.017 0.067 0.061 0.076 0.079 0.036 0.044a1.2 1.2 0 0 1 0.166 0.308 2.018 2.018 0 0 1 0.063 0.252l0.006 0.061a1.831 1.831 0 0 1 0 0.2v0.059c-0.006 0.035 -0.012 0.071 -0.02 0.106a0.821 0.821 0 0 1 -0.117 0.3 1.43 1.43 0 0 1 -0.058 0.092l-0.01 0.017 -0.015 0.016a1.878 1.878 0 0 1 -0.152 0.157 0.838 0.838 0 0 0 -0.058 0.047l-0.062 0.043c-0.049 0.031 -0.1 0.06 -0.152 0.087a1.4 1.4 0 0 1 -0.351 0.108h-0.035c-0.036 0 -0.073 0 -0.109 0.006h-0.087l-0.085 -0.008a1.656 1.656 0 0 1 -0.323 -0.1 1.309 1.309 0 0 1 -0.7 -0.922 1.624 1.624 0 0 1 -0.027 -0.492zm-1.764 -16.242a0.464 0.464 0 0 0 0.515 0.241c0.743 -0.127 1.036 -0.847 1.209 -1.493a8.166 8.166 0 0 1 0.364 -1.084 2.533 2.533 0 0 0 0.4 -1.122 2.188 2.188 0 0 0 -0.533 -0.964 15.892 15.892 0 0 0 -0.7 -0.9 15.6 15.6 0 0 0 -1.639 -1.683 0.442 0.442 0 0 0 -0.728 0.192l-1.417 3.909a0.4 0.4 0 0 0 -0.02 0.213 0.44 0.44 0 0 0 0 0.616q1.1 0.947 2.15 1.956a0.462 0.462 0 0 0 0.399 0.119zm-0.507 -5.932a14.675 14.675 0 0 1 1.976 2.325c0.1 0.148 0.169 0.2 0.088 0.364 -0.067 0.138 -0.136 0.275 -0.2 0.415a9.065 9.065 0 0 0 -0.332 0.856 5.259 5.259 0 0 1 -0.327 1.058l-0.258 -1.331a0.422 0.422 0 0 0 0.065 -0.133 1.052 1.052 0 0 0 0.021 -0.112 0.581 0.581 0 0 0 -0.079 -0.748 0.686 0.686 0 0 0 -0.853 -0.041 0.654 0.654 0 0 0 -0.245 0.665 0.427 0.427 0 0 0 0.208 0.4h0.005l0.2 1.058q-0.753 -0.709 -1.534 -1.389a0.477 0.477 0 0 0 0.076 -0.133zm0.41 6.456a0.437 0.437 0 0 0 -0.435 0.435 0.446 0.446 0 0 0 0.435 0.436 7 7 0 0 0 1.237 -0.032 0.477 0.477 0 0 0 0.308 -0.128 0.435 0.435 0 0 0 0 -0.616 0.419 0.419 0 0 0 -0.308 -0.127 7 7 0 0 1 -1.237 0.032zm2.767 9.774a2.142 2.142 0 0 0 -0.028 -1.665 1.989 1.989 0 0 0 -0.567 -0.686q0.705 -1.144 1.4 -2.3 0.365 -0.611 0.724 -1.224c0.233 -0.4 0.5 -0.791 0.7 -1.208a0.832 0.832 0 0 0 -0.241 -1.108c-0.431 -0.252 -0.8 0.082 -1.079 0.385a8.371 8.371 0 0 0 -1.337 2.059c-0.443 0.916 -0.832 1.859 -1.241 2.789a1.655 1.655 0 0 0 -1.864 2.206 1.345 1.345 0 0 1 0.158 0.614c-0.073 0.4 -0.591 0.5 -0.924 0.523a0.439 0.439 0 0 0 -0.42 0.551c0.232 0.63 1.074 0.8 1.675 0.794a4.426 4.426 0 0 0 1.831 -0.488 2.34 2.34 0 0 0 1.213 -1.242zm1.462 -7.5 -0.012 -0.007zm-4.529 8.36a1.4 1.4 0 0 0 0.186 -0.168 1.368 1.368 0 0 0 0.271 -1.423 1.894 1.894 0 0 1 -0.169 -0.6 0.821 0.821 0 0 1 0.166 -0.5 0.792 0.792 0 0 1 0.867 -0.244 0.464 0.464 0 0 0 0.053 0.176l0.013 0.023a0.4 0.4 0 0 0 0.515 0.179l0.084 0.05a0.794 0.794 0 0 1 0.194 0.214 1.133 1.133 0 0 1 0.17 0.526 1.345 1.345 0 0 1 -0.459 1.109 3.346 3.346 0 0 1 -1.412 0.6 2.546 2.546 0 0 1 -0.479 0.06zm6.346 14.483a5 5 0 0 0 -0.413 -1.046 0.421 0.421 0 0 0 -0.376 -0.215 17.122 17.122 0 0 0 -3.183 0.681c-0.249 0.08 -0.5 0.165 -0.742 0.257a1.651 1.651 0 0 0 -0.638 0.351 1.382 1.382 0 0 0 -0.175 1.366 0.436 0.436 0 0 0 0.84 -0.232 1.113 1.113 0 0 1 -0.073 -0.43c0.019 -0.119 0.084 -0.137 0.2 -0.184a11.641 11.641 0 0 1 1.232 -0.413q0.38 1.624 0.718 3.258a0.436 0.436 0 0 0 0.84 -0.232q-0.338 -1.627 -0.715 -3.245 0.712 -0.168 1.439 -0.269a4.027 4.027 0 0 1 0.21 0.585 0.436 0.436 0 0 0 0.836 -0.232z" fill="#6dd3a8" stroke-width="1"></path>
  <path d="m102.4 82.8 -4.5 -4.444 -4.131 -4.08a8.1 8.1 0 0 1 -6.663 3.433l-0.841 5.018 -0.3 1.812a0.44 0.44 0 0 0 0.006 0.189 0.359 0.359 0 0 0 0.414 0.362l0.063 -0.006a0.453 0.453 0 0 0 0.074 -0.007l5.165 -0.509 8.457 -0.832 1.95 -0.192a0.442 0.442 0 0 0 0.306 -0.744z" fill="#b26ee6" stroke-width="1"></path>
  <path d="M88.419 69.9a0.438 0.438 0 0 1 0.727 -0.193l1.646 1.626 2.98 2.945a7.518 7.518 0 0 0 1.429 -4q0.009 -0.2 0.009 -0.393a8.049 8.049 0 0 0 -6.928 -7.769c-9.3 -1.1 -11.417 13.291 -2.615 15.406a6.929 6.929 0 0 0 1.442 0.188l0.478 -2.849q0.413 -2.485 0.832 -4.961z" fill="#dcbeff" stroke-width="1"></path>
  <path d="m93.772 74.273 -2.98 -2.945 -1.646 -1.628a0.438 0.438 0 0 0 -0.727 0.193l-0.832 4.962 -0.478 2.849a8.1 8.1 0 0 0 6.663 -3.431z" fill="#f55555" stroke-width="1"></path>
  <path d="M135.884 67.671a73.223 73.223 0 0 0 10.142 -0.953 89.737 89.737 0 0 0 4.966 -0.886 0.5 0.5 0 0 1 0.212 0l0.049 -0.019 0.153 0.039a7.774 7.774 0 0 0 -7.7 -5.845c-6.157 0 -8.5 3.847 -9.1 7.566a0.521 0.521 0 0 1 0.205 0.1q0.536 0.005 1.073 -0.002z" fill="#b26ee6" stroke-width="1"></path>
  <path d="M151.2 65.835a0.443 0.443 0 0 1 0.235 0.135l-0.033 -0.115 -0.153 -0.039z" fill="#b26ee6" stroke-width="1"></path>
  <path d="M63.637 32.137a17.052 17.052 0 0 0 -1.878 -0.023 31.845 31.845 0 0 0 -4.869 0.529 31.071 31.071 0 0 0 -6.514 1.957 27.11 27.11 0 0 0 -13.067 11.671 33.544 33.544 0 0 0 -2.377 5.142A26.235 26.235 0 0 0 33.8 55.1a32.24 32.24 0 0 0 -0.494 3.49 2.529 2.529 0 0 0 -2.075 1.565 2.484 2.484 0 0 0 0.454 2.533 2.335 2.335 0 0 0 1.429 0.771c0.021 1 0.08 1.992 0.183 2.983a26.24 26.24 0 0 0 2.258 8.536 16.912 16.912 0 0 0 8.345 8.35c0.505 0.234 0.948 -0.517 0.439 -0.752a16.222 16.222 0 0 1 -7.044 -6.216 22.469 22.469 0 0 1 -2.895 -8.183 33.24 33.24 0 0 1 -0.418 -4.716 2.96 2.96 0 0 0 0.393 -0.085 1.971 1.971 0 0 0 1.209 -0.94 2.371 2.371 0 0 0 0.2 -1.47 2.971 2.971 0 0 0 -1.62 -2.218 32.85 32.85 0 0 1 0.394 -2.981 13.97 13.97 0 0 1 0.324 -1.359 35.416 35.416 0 0 1 2.046 -5.518 28.16 28.16 0 0 1 5.651 -8.064 26.242 26.242 0 0 1 6.689 -4.752 29.244 29.244 0 0 1 6.511 -2.31 30 30 0 0 1 5.118 -0.74 30.263 30.263 0 0 1 2.626 -0.023c0.04 0 0.079 0.005 0.118 0.008 0.559 0.044 0.552 -0.827 -0.004 -0.872zM34.208 59.8a2.564 2.564 0 0 1 0.228 0.238 1.978 1.978 0 0 1 0.168 0.239c0.059 0.1 0.111 0.2 0.16 0.3l0.013 0.03 0.029 0.075c0.021 0.056 0.04 0.113 0.057 0.17a2.671 2.671 0 0 1 0.074 0.333c0 0.018 0.005 0.044 0.007 0.059 0 0.035 0 0.071 0.006 0.107 0 0.088 0 0.175 -0.007 0.264v0.021l-0.024 0.117c-0.009 0.039 -0.02 0.077 -0.033 0.115 0 0.011 -0.019 0.052 -0.026 0.073l-0.035 0.071a1.52 1.52 0 0 1 -0.051 0.087l-0.046 0.067 -0.066 0.073c-0.029 0.029 -0.06 0.056 -0.09 0.084l-0.012 0.012 -0.015 0.008a2.796 2.796 0 0 1 -0.232 0.134l-0.01 0.005 -0.057 0.021a4.54 4.54 0 0 1 -0.144 0.045l-0.126 0.03h-0.007l-0.093 0.017 -0.037 0.006a2.933 2.933 0 0 1 -0.338 0.019h-0.152c-0.019 0 -0.094 -0.012 -0.109 -0.012 -0.045 -0.009 -0.09 -0.021 -0.135 -0.032 -0.03 -0.007 -0.06 -0.012 -0.09 -0.021s-0.085 -0.029 -0.127 -0.044h-0.011l-0.041 -0.02a2.448 2.448 0 0 1 -0.211 -0.121l-0.078 -0.056 -0.011 -0.009c-0.023 -0.021 -0.047 -0.04 -0.069 -0.061a1.926 1.926 0 0 1 -0.166 -0.172l-0.032 -0.039c-0.025 -0.036 -0.05 -0.07 -0.072 -0.107a2.124 2.124 0 0 1 -0.124 -0.224 0.732 0.732 0 0 1 -0.022 -0.052c-0.014 -0.039 -0.029 -0.077 -0.041 -0.116a2.053 2.053 0 0 1 -0.058 -0.231 0.569 0.569 0 0 0 -0.012 -0.081c0 -0.037 -0.007 -0.075 -0.008 -0.113a2.119 2.119 0 0 1 0.006 -0.239v-0.036c0.009 -0.047 0.017 -0.094 0.029 -0.141a2.113 2.113 0 0 1 0.073 -0.234l0.025 -0.05c0.024 -0.046 0.048 -0.092 0.075 -0.137s0.042 -0.067 0.064 -0.1l0.029 -0.041 0.014 -0.017a3.143 3.143 0 0 1 0.261 -0.268 1.671 1.671 0 0 1 0.517 -0.32c0.043 -0.014 0.087 -0.027 0.131 -0.038l0.071 -0.013 0.043 -0.009h0.112a1.39 1.39 0 0 1 0.144 0.008h0.009l0.081 0.018a1.439 1.439 0 0 1 0.158 0.048l0.039 0.014 0.047 0.025c0.044 0.023 0.087 0.046 0.129 0.071s0.064 0.043 0.1 0.065l0.045 0.03c-0.051 -0.045 0.054 0.038 0.074 0.055zm0.088 2.683c-0.042 0.021 -0.018 0.007 0 0zm-2.256 -2.035c0.008 -0.019 0.031 -0.063 0 0z" fill="#dcbeff" stroke-width="1"></path>
  <path d="M190.723 93.728a7.8 7.8 0 0 0 -4.514 -4.025 24.162 24.162 0 0 0 -14.083 -0.782 14.622 14.622 0 0 1 2.261 7.513 13.782 13.782 0 0 1 -2.892 8.216 17.947 17.947 0 0 1 -2.88 3.021 26.866 26.866 0 0 1 -3.378 2.255 24.456 24.456 0 0 0 -5.114 4.231 40.979 40.979 0 0 0 -2.373 2.767 36.243 36.243 0 0 0 -2.91 4.194 0.427 0.427 0 0 1 -0.376 0.215c-0.306 -0.03 -0.61 -0.069 -0.914 -0.112a33.144 33.144 0 0 1 -1.1 3.517 24.527 24.527 0 0 1 -1.532 3.467 1.391 1.391 0 0 1 -1.124 0.807 1.293 1.293 0 0 1 -0.324 -0.036 95.76 95.76 0 0 0 -0.422 5.179c-0.1 1.866 -0.154 3.706 -0.154 5.5v2.224s-1.332 -0.21 -3.386 -0.48a9.33 9.33 0 0 1 -1.184 0.112 39.3 39.3 0 0 1 -5.026 -0.3c-1.8 -0.171 -3.6 -0.375 -5.4 -0.545a46.742 46.742 0 0 0 -6.037 -0.3 14.63 14.63 0 0 0 -2.562 0.416 0.539 0.539 0 0 0 0.075 1.052c6.141 0.845 12.391 1.733 18.655 2.341a0.444 0.444 0 0 0 -0.042 0.178 5.323 5.323 0 0 0 1.966 4.322 3.609 3.609 0 0 0 1.228 0.607q0 4.034 0.04 8.066c0.038 4.047 0.1 8.095 0.209 12.14a20.388 20.388 0 0 0 -4.62 0.8 13.021 13.021 0 0 0 -7.231 5.136 10.331 10.331 0 0 0 -1.571 3.706 2.978 2.978 0 0 0 -1.675 0.636 3.075 3.075 0 0 0 -0.863 3.562 3.542 3.542 0 0 0 2.885 2.052 3.035 3.035 0 0 0 3.177 -3.138 3.183 3.183 0 0 0 -1.914 -2.83 3.494 3.494 0 0 0 -0.734 -0.225c0.036 -0.159 0.075 -0.318 0.12 -0.474a9.372 9.372 0 0 1 0.911 -2.168 11.558 11.558 0 0 1 5.93 -5 18.708 18.708 0 0 1 5.612 -1.174c0.034 1.134 0.069 2.268 0.113 3.4 0.1 2.65 0.221 5.3 0.463 7.944a0.436 0.436 0 0 0 0.019 0.1 2.933 2.933 0 0 0 -1.2 0.57 3.076 3.076 0 0 0 -0.864 3.562 3.54 3.54 0 0 0 2.885 2.052 3.035 3.035 0 0 0 3.177 -3.138 3.183 3.183 0 0 0 -1.914 -2.83 3.49 3.49 0 0 0 -1.231 -0.288v-0.026c-0.346 -3.781 -0.491 -7.585 -0.587 -11.384a16.881 16.881 0 0 1 5.572 0.7 12.313 12.313 0 0 1 6.5 4.808 13.388 13.388 0 0 1 0.8 1.333c0.1 0.2 0.2 0.4 0.294 0.6 0.044 0.1 0.087 0.192 0.128 0.289l0.022 0.051 0.061 0.149c0.124 0.308 0.225 0.619 0.321 0.933a2.923 2.923 0 0 0 -1.218 0.573 3.075 3.075 0 0 0 -0.863 3.562 3.54 3.54 0 0 0 2.884 2.052 3.034 3.034 0 0 0 3.177 -3.138 3.18 3.18 0 0 0 -1.914 -2.83 3.508 3.508 0 0 0 -1.162 -0.282 12.1 12.1 0 0 0 -1.411 -3.165 13.212 13.212 0 0 0 -6.24 -5.358 16.206 16.206 0 0 0 -5.731 -1.154c-0.409 -0.012 -0.82 -0.01 -1.231 0q-0.036 -1.5 -0.067 -3 -0.156 -7.246 -0.172 -14.5v-2.56h0.176a3.614 3.614 0 0 0 2.355 -1.136 5.414 5.414 0 0 0 1.45 -2.708c0.107 -0.548 -0.732 -0.782 -0.84 -0.232 -0.34 1.737 -1.913 3.695 -3.874 3.1 -1.641 -0.5 -2.515 -2.471 -2.462 -4.069a0.527 0.527 0 0 0 -0.006 -0.1 134.664 134.664 0 0 0 15.907 0.639c8.306 -0.215 14.739 -5.458 16.346 -13.673 1.03 -5.267 1.934 -10.24 4.347 -15.083 2.682 -5.386 6.2 -10.313 8.73 -15.78a8.392 8.392 0 0 0 0.526 -6.626zM135.005 180.1a2.326 2.326 0 0 1 1.663 2.139 2.186 2.186 0 0 1 -2.011 2.279 2.658 2.658 0 0 1 -2.269 -1.314 2.153 2.153 0 0 1 2.617 -3.1zm14.517 2.613a2.325 2.325 0 0 1 1.663 2.139 2.186 2.186 0 0 1 -2.011 2.279 2.658 2.658 0 0 1 -2.269 -1.314 2.153 2.153 0 0 1 2.617 -3.1zm15.6 -0.474a2.186 2.186 0 0 1 -2.011 2.279 2.659 2.659 0 0 1 -2.269 -1.314 2.153 2.153 0 0 1 2.617 -3.1 2.325 2.325 0 0 1 1.662 2.139z" fill="#7d4ab4" stroke-width="1"></path>
  <path d="M173.492 95.661a14.024 14.024 0 0 0 -2.23 -6.5c-0.291 -0.468 -0.6 -0.926 -0.928 -1.369a24.84 24.84 0 0 0 -1.857 -2.219 0.426 0.426 0 0 1 -0.116 -0.233 0.474 0.474 0 0 1 0.261 -0.472 66.12 66.12 0 0 0 -2.179 -1.606c-0.031 0.087 -0.06 0.173 -0.093 0.261 0 0 -4.143 -3.727 -12.674 -4.491 0 0.032 0.01 0.065 0.013 0.1a6.063 6.063 0 0 1 -1.008 3.962 6.2 6.2 0 0 1 -3.03 2.37 10.066 10.066 0 0 1 -3.723 0.616 7.191 7.191 0 0 1 -3.461 -0.713 3.236 3.236 0 0 1 -0.8 -0.656c-3.528 1.865 -6.967 3.461 -8.413 3.461a2.365 2.365 0 0 1 -0.668 -0.1c-10.105 -1.848 -17.352 -19.557 -17.352 -19.557 -5.535 -0.2 -12.321 4.352 -12.321 4.352 6.591 30.653 31.2 27.746 32.862 27.513q0.807 -2.566 1.716 -5.1c0.523 -1.453 1.061 -2.9 1.666 -4.325a0.438 0.438 0 0 1 0.6 -0.156 0.451 0.451 0 0 1 0.156 0.6l0.014 -0.033c0.017 -0.042 0.01 -0.024 0 0l-0.016 0.038 -0.116 0.282q-0.22 0.538 -0.431 1.08a124.385 124.385 0 0 0 -2.9 8.334c-0.962 3.1 -1.811 6.242 -2.526 9.411q-0.428 1.888 -0.79 3.791a0.37 0.37 0 0 1 -0.471 0.3l-0.042 -0.01v0.021l-0.884 3.889a3.216 3.216 0 0 0 0.2 2.056 19.486 19.486 0 0 0 1.535 2.72q0.308 0.456 0.636 0.891c4.342 5.761 11.225 8.732 14.935 9.989a95.76 95.76 0 0 1 0.422 -5.179 2.161 2.161 0 0 1 -1.11 -0.751 4.215 4.215 0 0 1 -0.663 -1.089c-0.031 0.1 -0.061 0.209 -0.093 0.314a3.877 3.877 0 0 1 -0.65 1.343 1.47 1.47 0 0 1 -2.476 -0.241 5.374 5.374 0 0 1 -0.589 -1.595c-0.057 -0.228 -0.1 -0.458 -0.148 -0.69a0.443 0.443 0 0 1 -0.158 0c-1.746 -0.339 -2.052 -2.558 -2.2 -4a16.544 16.544 0 0 1 0.459 -5.786 17.311 17.311 0 0 1 -1.5 -1.144 0.422 0.422 0 0 1 -0.112 -0.423 29.472 29.472 0 0 1 4.471 -8.025 29.177 29.177 0 0 1 5.276 -4.617c1.229 -0.9 2.474 -1.771 3.707 -2.662a24.267 24.267 0 0 0 4.291 -3.586c1.5 -1.731 2.339 -3.964 1.469 -6.184a5.793 5.793 0 0 0 -1.681 -2.375c-0.433 -0.358 0.187 -0.971 0.616 -0.616 0.08 0.066 0.157 0.14 0.234 0.212a6.923 6.923 0 0 1 1.832 3.016c0.732 2.473 -0.347 4.889 -2 6.726a27.325 27.325 0 0 1 -4.5 3.687c-1.221 0.881 -2.452 1.747 -3.667 2.635a26.91 26.91 0 0 0 -5.189 4.654c-0.193 0.24 -0.377 0.486 -0.558 0.734q2.542 1.617 5.014 3.339c0.458 0.318 0.022 1.073 -0.439 0.752q-2.5 -1.74 -5.065 -3.372a33.078 33.078 0 0 0 -2.867 5.671c0.176 0.144 0.33 0.258 0.514 0.394s0.347 0.253 0.522 0.377q0.314 0.222 0.633 0.436a27.026 27.026 0 0 0 8.113 3.715 22.861 22.861 0 0 0 3.265 0.61 16.284 16.284 0 0 1 1.025 -1.562q1.122 -1.644 2.387 -3.188a36.3 36.3 0 0 1 3.316 -3.575 22.6 22.6 0 0 1 4.242 -3.166 17.689 17.689 0 0 0 5.888 -5.2 12.743 12.743 0 0 0 2.404 -8.086zm-2.513 4.533a6.065 6.065 0 0 1 -1.922 3 0.445 0.445 0 0 1 -0.616 0 0.439 0.439 0 0 1 0 -0.616 5.213 5.213 0 0 0 1.05 -1.176 4.888 4.888 0 0 0 0.648 -1.436 0.436 0.436 0 1 1 0.84 0.232z" fill="#ffd35c" stroke-width="1"></path>
  <path d="M147.784 139.3a4.515 4.515 0 0 1 -3.511 1.343 39.613 39.613 0 0 1 -4.83 -0.288c-3.525 -0.331 -7.058 -0.854 -10.6 -0.869a19.376 19.376 0 0 0 -5.226 0.618 10.177 10.177 0 0 1 1.313 -3.587 0.436 0.436 0 0 0 -0.752 -0.44 11.02 11.02 0 0 0 -1.363 3.57q-0.209 -0.7 -0.425 -1.393c-0.29 -0.931 -0.591 -1.857 -0.895 -2.783 -0.174 -0.53 -1.016 -0.3 -0.84 0.231a84.252 84.252 0 0 1 2.979 10.858 38.994 38.994 0 0 1 0.5 10.864 37.741 37.741 0 0 1 -0.908 5.343q-0.321 1.313 -0.734 2.6a12.61 12.61 0 0 1 -0.97 2.5 3.472 3.472 0 0 1 -3.428 1.573 5.569 5.569 0 0 1 -3.623 -2.023 16.347 16.347 0 0 1 -2.447 -4.061 34.4 34.4 0 0 1 -1.794 -4.816 39.222 39.222 0 0 1 -1.529 -10.281 37.8 37.8 0 0 1 1.007 -9.825 17.7 17.7 0 0 1 4.282 -8.24 18.332 18.332 0 0 1 8.5 -4.573 41.4 41.4 0 0 1 5.435 -1 45.018 45.018 0 0 1 5.409 -0.483c0.264 0 0.526 0.01 0.788 0.027q-0.329 -0.435 -0.636 -0.891a26.077 26.077 0 0 0 -2.888 0.179c-1.935 0.2 -3.872 0.414 -5.787 0.764a22.918 22.918 0 0 0 -9.685 3.842c-5.552 4.146 -7.056 11.392 -7.281 17.945a41.358 41.358 0 0 0 1.022 10.781 36.25 36.25 0 0 0 1.6 5.138 26.805 26.805 0 0 0 2.277 4.634 8.466 8.466 0 0 0 3.394 3.241 5.377 5.377 0 0 0 4.094 0.23 3.89 3.89 0 0 0 1.69 -1.211 7.977 7.977 0 0 0 1.13 -2.386 38.352 38.352 0 0 0 1.464 -5.547c0.184 -0.991 0.327 -1.989 0.435 -2.991l0.074 0.63a26.222 26.222 0 0 0 0.7 4.2c0.679 2.381 2.335 4.654 4.943 5.032a3.98 3.98 0 0 0 3.215 -0.922 6.044 6.044 0 0 0 1.682 -2.85 23.6 23.6 0 0 0 0.715 -3.842q0.328 -2.425 0.551 -4.862a108.438 108.438 0 0 0 0.428 -11.037 0.436 0.436 0 0 0 -0.871 0q0.054 4.561 -0.272 9.118a83.247 83.247 0 0 1 -1.011 8.8c-0.348 1.915 -1.114 4.457 -3.386 4.756a4.2 4.2 0 0 1 -2.994 -0.927 6.1 6.1 0 0 1 -1.979 -2.918 20.223 20.223 0 0 1 -0.827 -4.331l-0.591 -5.085a0.447 0.447 0 0 0 -0.156 -0.3 38.007 38.007 0 0 0 -0.214 -3.755 51.123 51.123 0 0 0 -1.518 -7.745 0.447 0.447 0 0 0 0.039 -0.186c0 -0.21 0.012 -0.419 0.026 -0.628a17.132 17.132 0 0 1 4.368 -0.674 46.742 46.742 0 0 1 6.037 0.3c1.8 0.17 3.6 0.374 5.4 0.545a39.3 39.3 0 0 0 5.026 0.3 9.33 9.33 0 0 0 1.184 -0.112 4.556 4.556 0 0 0 2.889 -1.484c0.345 -0.429 -0.268 -1.049 -0.625 -0.616z" fill="#fcafb7" stroke-width="1"></path>
  <path d="m91.172 38.1 -2.01 0.768a0.424 0.424 0 0 0 -0.3 0.513l0.887 2.217 2.128 5.326 2.576 6.444 2.228 5.573 1.084 2.712 0.016 0.039a0.43 0.43 0 0 0 0.613 0.261l5.35 -2.281 8.524 -3.636 1.953 -0.833a0.418 0.418 0 0 0 0.2 -0.472l-2.868 -7.35 -4.573 -11.722 -1.053 -2.7a0.52 0.52 0 0 0 -0.314 -0.311l-1.02 0.323 -4.7 1.8z" fill="#cff0fa" stroke-width="1"></path>
  <path d="M117.783 57.716q-0.465 -1.258 -0.935 -2.517 -1.134 -3.041 -2.282 -6.075 -1.421 -3.754 -2.87 -7.5a341.163 341.163 0 0 0 -2.712 -6.814 32.047 32.047 0 0 0 -1.8 -4.011 2.758 2.758 0 0 0 -0.121 -0.19 0.449 0.449 0 0 0 -0.492 -0.2 235.23 235.23 0 0 0 -5.393 1.75c-3.408 1.146 -6.808 2.339 -10.129 3.72A33.851 33.851 0 0 0 86.6 38a0.441 0.441 0 0 0 -0.2 0.492 299.485 299.485 0 0 0 2.324 6.636c1.69 4.682 3.459 9.339 5.386 13.929 1.091 2.6 2.228 5.18 3.487 7.7a0.372 0.372 0 0 0 0.5 0.187 0.562 0.562 0 0 0 0.1 -0.031q2.825 -1.22 5.642 -2.457 2.988 -1.309 5.97 -2.637a6.39 6.39 0 0 1 1.065 -3.183 1.759 1.759 0 0 1 2.951 0.2 3.986 3.986 0 0 1 0.438 0.966c1.117 -0.512 2.238 -1.023 3.322 -1.6a0.439 0.439 0 0 0 0.198 -0.486zm-12.37 -25.059a0.308 0.308 0 0 1 0.2 -0.009 0.52 0.52 0 0 1 0.314 0.311l1.053 2.7 4.573 11.722 2.868 7.35a0.418 0.418 0 0 1 -0.2 0.472l-1.953 0.833 -8.524 3.636 -5.35 2.281a0.43 0.43 0 0 1 -0.613 -0.261l-0.016 -0.039 -1.084 -2.712 -2.228 -5.573 -2.576 -6.444q-1.063 -2.664 -2.128 -5.326l-0.887 -2.217a0.424 0.424 0 0 1 0.3 -0.513l2.01 -0.768 8.72 -3.331 4.7 -1.8z" fill="#6dd3a8" stroke-width="1"></path>
  <path d="M133.252 88.173c1.446 0 4.885 -1.6 8.413 -3.461a3.236 3.236 0 0 0 0.8 0.656 7.191 7.191 0 0 0 3.461 0.713 10.066 10.066 0 0 0 3.723 -0.616 6.2 6.2 0 0 0 3.03 -2.37 6.063 6.063 0 0 0 1.008 -3.962c0 -0.032 -0.009 -0.065 -0.013 -0.1 8.531 0.764 12.674 4.491 12.674 4.491 0.033 -0.088 0.062 -0.174 0.093 -0.261 4.66 -13.127 -8.816 -15.711 -10.835 -16.288a159.225 159.225 0 0 0 -4.2 -1.123l0.033 0.115a0.443 0.443 0 0 0 -0.235 -0.135 0.5 0.5 0 0 0 -0.212 0c-1.644 0.349 -3.3 0.63 -4.966 0.886a73.223 73.223 0 0 1 -10.142 0.953q-0.537 0.007 -1.079 0a0.521 0.521 0 0 0 -0.205 -0.1 0.383 0.383 0 0 0 -0.355 0.086 20.792 20.792 0 0 1 -3.636 -0.378c-0.547 -0.113 -0.781 0.727 -0.232 0.84a22.57 22.57 0 0 0 3.665 0.423 13.415 13.415 0 0 0 0.078 3.892c-8.33 6.752 -4.844 14.655 -1.536 15.633a2.365 2.365 0 0 0 0.668 0.106zm7.216 -19.89c2.169 -0.2 4.331 -0.487 6.482 -0.835 0.831 -0.134 1.66 -0.275 2.486 -0.428q0.677 -0.124 1.35 -0.26l0.773 3.092a0.441 0.441 0 0 0 0.728 0.192 2.053 2.053 0 0 1 2.049 -0.4 0.944 0.944 0 0 1 0.412 1.419 1.807 1.807 0 0 1 -1.484 0.94 2.384 2.384 0 0 1 -0.815 -0.055l-0.064 -0.015a0.413 0.413 0 0 0 -0.366 0.069 0.47 0.47 0 0 0 -0.186 0.351 4.174 4.174 0 0 1 -0.082 0.636 6.1 6.1 0 0 1 -2.959 3.792 12.26 12.26 0 0 1 -5.642 1.692 10.439 10.439 0 0 1 -2.969 -0.26c-0.16 -0.039 -0.319 -0.084 -0.476 -0.133s-0.316 -0.1 -0.471 -0.162a6.411 6.411 0 0 1 -1.65 -0.916 7.139 7.139 0 0 1 -2.374 -3.714 10.251 10.251 0 0 1 -0.279 -1.276 12.117 12.117 0 0 1 -0.019 -3.439 54.149 54.149 0 0 0 5.556 -0.29zm9.993 15.822a7.734 7.734 0 0 1 -3.349 1.056 9.446 9.446 0 0 1 -3.339 -0.2 3.1 3.1 0 0 1 -1.312 -0.672 2.154 2.154 0 0 1 -0.239 -0.256 4.94 4.94 0 0 1 -0.5 -0.818 9.281 9.281 0 0 1 -0.494 -1.21c-0.316 -0.94 -0.588 -1.9 -0.827 -2.862a10.979 10.979 0 0 0 2.034 0.212 13.275 13.275 0 0 0 6.375 -1.584 7.9 7.9 0 0 0 3.234 -3.105l0.655 3.75 0.053 0.3c0.014 0.083 0.024 0.167 0.034 0.25a5.294 5.294 0 0 1 -2.325 5.139z" stroke-width="1"></path>
  <path d="M140.6 73.231a5.011 5.011 0 0 0 1.914 -0.05 3.37 3.37 0 0 0 2.431 -2.1c0.189 -0.529 -0.652 -0.757 -0.84 -0.232a2.466 2.466 0 0 1 -1.739 1.47 3.947 3.947 0 0 1 -1.391 0.088 1.536 1.536 0 0 1 -1.064 -0.386 0.45 0.45 0 0 0 -0.6 -0.156 0.439 0.439 0 0 0 -0.156 0.6 2.072 2.072 0 0 0 1.445 0.766zm5.664 -3.212a0.436 0.436 0 0 0 0.8 0.1 0.477 0.477 0 0 0 0.044 -0.336l-0.19 -0.9a0.436 0.436 0 0 0 -0.8 -0.1 0.472 0.472 0 0 0 -0.044 0.336zm-9.432 1.267a0.473 0.473 0 0 0 0.118 0.1 0.445 0.445 0 0 0 0.335 0.044 0.438 0.438 0 0 0 0.309 -0.436 0.486 0.486 0 0 0 0 -0.1 6.003 6.003 0 0 1 -0.066 -0.375 5.49 5.49 0 0 1 -0.041 -0.512 0.458 0.458 0 0 0 -0.128 -0.308 0.435 0.435 0 0 0 -0.743 0.308 6.191 6.191 0 0 0 0.138 1.119 0.386 0.386 0 0 0 0.078 0.16zm35.294 17.635a21.576 21.576 0 0 0 -1.695 -2.422c-0.033 -0.041 -0.064 -0.082 -0.1 -0.122l-0.042 -0.052a26.29 26.29 0 0 0 -1.2 -1.364 0.382 0.382 0 0 0 -0.471 -0.089 0.474 0.474 0 0 0 -0.261 0.472 0.426 0.426 0 0 0 0.116 0.233 24.84 24.84 0 0 1 1.857 2.219c0.328 0.443 0.637 0.9 0.928 1.369a14.024 14.024 0 0 1 2.23 6.5 12.743 12.743 0 0 1 -2.41 8.082 17.689 17.689 0 0 1 -5.888 5.2 22.6 22.6 0 0 0 -4.242 3.166 36.3 36.3 0 0 0 -3.316 3.575q-1.262 1.542 -2.387 3.188a16.284 16.284 0 0 0 -1.025 1.562 22.861 22.861 0 0 1 -3.265 -0.61 27.026 27.026 0 0 1 -8.113 -3.715q-0.32 -0.215 -0.633 -0.436c-0.175 -0.124 -0.35 -0.249 -0.522 -0.377s-0.338 -0.25 -0.514 -0.394a33.078 33.078 0 0 1 2.867 -5.671q2.568 1.632 5.065 3.372c0.461 0.321 0.9 -0.434 0.439 -0.752q-2.47 -1.724 -5.014 -3.339c0.181 -0.248 0.365 -0.494 0.558 -0.734a26.91 26.91 0 0 1 5.189 -4.654c1.215 -0.888 2.446 -1.754 3.667 -2.635a27.325 27.325 0 0 0 4.5 -3.687c1.651 -1.837 2.73 -4.253 2 -6.726a6.923 6.923 0 0 0 -1.832 -3.016c-0.077 -0.072 -0.154 -0.146 -0.234 -0.212 -0.429 -0.355 -1.049 0.258 -0.616 0.616a5.793 5.793 0 0 1 1.681 2.375c0.87 2.22 0.031 4.453 -1.469 6.184a24.267 24.267 0 0 1 -4.291 3.586c-1.233 0.891 -2.478 1.766 -3.707 2.662a29.177 29.177 0 0 0 -5.276 4.617 29.472 29.472 0 0 0 -4.471 8.025 0.422 0.422 0 0 0 0.112 0.423 17.311 17.311 0 0 0 1.5 1.144 16.544 16.544 0 0 0 -0.459 5.786c0.145 1.44 0.451 3.659 2.2 4a0.443 0.443 0 0 0 0.158 0c0.043 0.232 0.091 0.462 0.148 0.69a5.374 5.374 0 0 0 0.589 1.595 1.47 1.47 0 0 0 2.476 0.241 3.877 3.877 0 0 0 0.65 -1.343l0.093 -0.314a4.215 4.215 0 0 0 0.663 1.089 2.161 2.161 0 0 0 1.11 0.751 1.293 1.293 0 0 0 0.324 0.036 1.391 1.391 0 0 0 1.124 -0.807 24.527 24.527 0 0 0 1.532 -3.467 33.144 33.144 0 0 0 1.1 -3.517c0.3 0.043 0.608 0.082 0.914 0.112a0.427 0.427 0 0 0 0.376 -0.215 36.243 36.243 0 0 1 2.91 -4.194 40.979 40.979 0 0 1 2.373 -2.767 24.456 24.456 0 0 1 5.114 -4.231 26.866 26.866 0 0 0 3.378 -2.255 17.947 17.947 0 0 0 2.88 -3.021 13.782 13.782 0 0 0 2.892 -8.216 14.622 14.622 0 0 0 -2.26 -7.516zm-21.456 37.825a5.329 5.329 0 0 1 -0.632 1.223 0.394 0.394 0 0 1 -0.465 0.13 1.437 1.437 0 0 1 -0.519 -0.4 3.339 3.339 0 0 1 -0.792 -2.555c0.047 -0.5 -0.722 -0.573 -0.856 -0.115l-0.519 1.781a5.211 5.211 0 0 1 -0.453 1.219c-0.164 0.278 -0.432 0.592 -0.792 0.466s-0.549 -0.587 -0.662 -0.912a10.408 10.408 0 0 1 -0.463 -1.935 11.735 11.735 0 0 1 0.248 -4.576 0.491 0.491 0 0 0 0.014 -0.117 0.437 0.437 0 0 0 -0.854 -0.114 12.463 12.463 0 0 0 -0.365 4.048c0.013 0.159 0.029 0.318 0.047 0.477 -1.236 -0.455 -1.321 -2.575 -1.392 -3.634a15.824 15.824 0 0 1 0.4 -4.734c0.09 0.058 0.179 0.117 0.269 0.174a28.917 28.917 0 0 0 6.554 3.107c0.442 0.144 0.888 0.273 1.336 0.391q0.534 0.139 1.073 0.255l0.311 0.064q0.263 0.052 0.526 0.1a32.347 32.347 0 0 1 -2.014 5.657z" stroke-width="1"></path>
  <path d="M169.057 103.19a6.065 6.065 0 0 0 1.922 -3 0.436 0.436 0 1 0 -0.84 -0.232 4.888 4.888 0 0 1 -0.648 1.436 5.213 5.213 0 0 1 -1.05 1.176 0.439 0.439 0 0 0 0 0.616 0.445 0.445 0 0 0 0.616 0.004zm-20.405 18.368a0.443 0.443 0 0 0 -0.6 0.156 3.259 3.259 0 0 0 -0.349 1.485 0.436 0.436 0 1 0 0.871 0 2.7 2.7 0 0 1 0.019 -0.336 2.815 2.815 0 0 1 0.167 -0.612l0.045 -0.1a0.462 0.462 0 0 0 0.043 -0.336 0.438 0.438 0 0 0 -0.196 -0.257zM139.751 90.8a0.438 0.438 0 0 0 -0.6 0.156 85.917 85.917 0 0 0 -1.666 4.325q-0.912 2.53 -1.716 5.1 -0.9 2.865 -1.668 5.766 -0.547 2.069 -1.017 4.156 -0.423 1.875 -0.783 3.764a0.452 0.452 0 0 0 0.327 0.523l0.042 0.01a0.37 0.37 0 0 0 0.471 -0.3q0.36 -1.9 0.79 -3.791a123.84 123.84 0 0 1 2.526 -9.411 121.1 121.1 0 0 1 2.9 -8.334q0.212 -0.542 0.431 -1.08l0.116 -0.282 0.016 -0.038 -0.014 0.033a0.451 0.451 0 0 0 -0.155 -0.597zm0.17 0.562zm-56.928 26.732 -6.067 -2.514 -4.287 -1.775 -1.532 -0.635c-0.245 -0.1 -0.5 -0.233 -0.75 -0.31a0.663 0.663 0 0 0 -0.417 0.033l-1.014 0.318 -1.92 0.6a0.41 0.41 0 0 0 -0.281 0.273l-0.461 -0.261a0.38 0.38 0 0 0 -0.37 -0.063l-5.242 1.64 -0.763 0.238a0.44 0.44 0 0 0 -0.192 0.728l7.558 7.228 1.088 1.039a0.429 0.429 0 0 0 0.423 0.112l8.072 -3 1.148 -0.426a0.457 0.457 0 0 0 0.237 -0.675l4.77 -1.71a0.439 0.439 0 0 0 0 -0.84zm-17.631 -3.254 0.6 -0.186 3.837 2.172 6.387 3.617 0.66 0.373 -7.16 2.658 -0.927 0.344 -7.359 -7.033 -0.56 -0.536zm11.912 5.22 -3.19 -1.807 -6.384 -3.616 -0.146 -0.083 1.264 -0.4 1.089 -0.341c0.084 -0.026 0.171 -0.049 0.255 -0.078a3.808 3.808 0 0 0 0.507 0.184l1.381 0.572 8.426 3.49 1.2 0.5z" stroke-width="1"></path>
  <path d="m64.338 117.148 1.572 -0.551a0.436 0.436 0 0 0 -0.231 -0.84l-1.572 0.551a0.436 0.436 0 0 0 0.231 0.84zm0.676 1.257a0.443 0.443 0 0 0 0.536 0.3 13.194 13.194 0 0 0 2.087 -0.845 0.437 0.437 0 0 0 0.156 -0.595 0.447 0.447 0 0 0 -0.6 -0.157q-0.23 0.117 -0.465 0.225l-0.236 0.105 -0.042 0.017 -0.024 0.011 -0.12 0.048q-0.488 0.2 -0.992 0.351a0.442 0.442 0 0 0 -0.3 0.54zm1.723 1.812a0.443 0.443 0 0 0 0.6 0.156 11.922 11.922 0 0 1 1.143 -0.6l0.14 -0.062 0.111 -0.048 0.27 -0.108c0.2 -0.078 0.411 -0.151 0.619 -0.218a0.436 0.436 0 0 0 -0.231 -0.84 12.368 12.368 0 0 0 -2.492 1.121 0.441 0.441 0 0 0 -0.16 0.599zM69.2 121.8a0.446 0.446 0 0 0 0.6 0.157l1.913 -0.92a0.438 0.438 0 0 0 0.156 -0.6 0.447 0.447 0 0 0 -0.6 -0.156l-1.913 0.92a0.436 0.436 0 0 0 -0.156 0.599zm2.774 -6.874a6.675 6.675 0 0 0 -1.222 0.551 0.453 0.453 0 0 0 -0.2 0.26 0.436 0.436 0 0 0 0.64 0.492 6.176 6.176 0 0 1 0.64 -0.322c0.123 -0.051 0.247 -0.1 0.374 -0.141a0.463 0.463 0 0 0 0.26 -0.2 0.448 0.448 0 0 0 0.044 -0.336 0.442 0.442 0 0 0 -0.536 -0.304zm2.069 1.018 -1.18 0.388a0.459 0.459 0 0 0 -0.261 0.2 0.45 0.45 0 0 0 -0.044 0.335 0.442 0.442 0 0 0 0.536 0.3l1.181 -0.388a0.46 0.46 0 0 0 0.26 -0.2 0.436 0.436 0 0 0 -0.492 -0.64zm2.564 1.838a0.45 0.45 0 0 0 -0.335 -0.044l-0.815 0.224a0.451 0.451 0 0 0 -0.261 0.2 0.445 0.445 0 0 0 -0.043 0.335 0.441 0.441 0 0 0 0.2 0.261 0.454 0.454 0 0 0 0.335 0.043l0.815 -0.223a0.437 0.437 0 0 0 0.305 -0.536 0.441 0.441 0 0 0 -0.201 -0.26zm25.35 -48.975a5.909 5.909 0 0 1 -0.765 -1.944 0.449 0.449 0 0 0 -0.435 -0.436 0.438 0.438 0 0 0 -0.436 0.436 6.524 6.524 0 0 0 0.807 2.232l1.156 2.275c0.254 0.5 1.006 0.059 0.752 -0.44zm11.866 -9.964a1.759 1.759 0 0 0 -2.951 -0.2 6.39 6.39 0 0 0 -1.065 3.183c-0.036 0.3 -0.066 0.586 -0.092 0.865a23.8 23.8 0 0 0 -0.091 3.2c0.024 0.558 0.9 0.561 0.871 0v-0.019a24.166 24.166 0 0 1 0.026 -2.3 18.4 18.4 0 0 1 0.219 -2.166 7.061 7.061 0 0 1 0.48 -1.656 2.943 2.943 0 0 1 0.362 -0.612 1.032 1.032 0 0 1 0.428 -0.322 0.884 0.884 0 0 1 0.98 0.347 2.751 2.751 0 0 1 0.451 1.019c0.045 0.178 0.082 0.357 0.113 0.529a11.658 11.658 0 0 1 0.144 2.045c0 0.677 -0.037 1.354 -0.1 2.029 -0.021 0.224 -0.044 0.447 -0.071 0.671l-0.024 0.188 0.005 -0.033a0.592 0.592 0 0 0 0 0.133 0.419 0.419 0 0 0 0.3 0.4 0.439 0.439 0 0 0 0.536 -0.305 22.347 22.347 0 0 0 0.217 -2.784 10.621 10.621 0 0 0 -0.306 -3.249 3.986 3.986 0 0 0 -0.432 -0.963z" stroke-width="1"></path>
  <path d="m110.809 53.4 -3.034 -3 -2.785 -2.752a5.458 5.458 0 0 1 -4.494 2.315l-0.567 3.384 -0.2 1.222a0.3 0.3 0 0 0 0 0.128 0.242 0.242 0 0 0 0.279 0.244h0.043a0.272 0.272 0 0 0 0.049 -0.005l3.484 -0.343 5.7 -0.562 1.316 -0.131a0.3 0.3 0 0 0 0.209 -0.5z" fill="#b26ee6" stroke-width="1"></path>
  <path d="M101.379 44.694a0.3 0.3 0 0 1 0.491 -0.129l1.109 1.1 2.011 1.986a5.068 5.068 0 0 0 0.963 -2.7c0 -0.088 0.006 -0.177 0.006 -0.265a5.427 5.427 0 0 0 -4.672 -5.239c-6.271 -0.74 -7.7 8.963 -1.764 10.389a4.712 4.712 0 0 0 0.973 0.127l0.322 -1.921z" fill="#dcbeff" stroke-width="1"></path>
  <path d="m104.99 47.647 -2.011 -1.986 -1.109 -1.1a0.3 0.3 0 0 0 -0.491 0.129l-0.561 3.347 -0.322 1.921a5.458 5.458 0 0 0 4.494 -2.311z" fill="#f55555" stroke-width="1"></path>
</svg>